<svg xmlns="http://www.w3.org/2000/svg" viewBox="0 0 540 450"><defs><style>.cls-1{isolation:isolate;}.cls-2,.cls-20,.cls-6{fill:#34559c;}.cls-2{opacity:0.5;}.cls-2,.cls-20,.cls-24{mix-blend-mode:multiply;}.cls-3{fill:#eedfcf;}.cls-4{fill:#f3f2f2;}.cls-5{fill:#282752;}.cls-7{fill:#262626;}.cls-8{fill:#bf343b;}.cls-9{fill:#e98535;}.cls-10{fill:#ea6c78;}.cls-11{fill:#f4b874;}.cls-12{fill:#fff;}.cls-13{fill:#9aa651;}.cls-14{fill:#b8ca62;}.cls-15{fill:#a2d96a;}.cls-16{fill:#747d3d;}.cls-17{fill:#eaf6a8;}.cls-18{fill:#de8d1d;}.cls-19{fill:#f5c075;}.cls-20{opacity:0.3;}.cls-21{fill:#ffb2a3;}.cls-22{fill:#182b3b;}.cls-23{fill:#1f387d;}.cls-24{fill:#e3ccb3;}</style></defs><title>accounts</title><g class="cls-1"><g id="Layer_3" data-name="Layer 3"><polygon class="cls-2" points="131.02 262.58 19 327.11 186.71 424.02 196.42 418.2 205.48 423.16 251.67 395.97 292.9 420.57 354.84 383.88 311.46 359.06 470.53 266.89 412.47 232.36 439.24 216.82 417.44 200.63 224.84 194.52 131.02 262.58"/><ellipse class="cls-2" cx="153.61" cy="244.43" rx="47.34" ry="27.33"/><polygon class="cls-3" points="446.22 267.63 185.81 417.99 28.64 327.24 289.06 176.89 446.22 267.63"/><polygon class="cls-4" points="464.33 266.29 203.91 416.64 46.75 325.9 307.16 175.54 464.33 266.29"/><path class="cls-5" d="M186.61,324.83,131,356.92l-18.32-10.58,55.58-32.09ZM131,355.88l53.79-31.05-16.53-9.55L114.5,346.34Z"/><path class="cls-5" d="M221.39,304.75l-35.68,20.59-18.32-10.58,35.67-20.59Zm-35.68,19.56,33.88-19.56-16.53-9.55-33.88,19.56Z"/><path class="cls-5" d="M256.16,284.67l-35.67,20.6-18.32-10.58,35.67-20.6Zm-35.67,19.56,33.88-19.56-16.53-9.54L204,294.69Z"/><path class="cls-5" d="M290.94,264.59l-35.67,20.6-18.33-10.58L272.61,254Zm-35.67,19.56,33.87-19.56-16.53-9.54-33.88,19.56Z"/><path class="cls-5" d="M325.71,244.52,290,265.11l-18.32-10.58,35.67-20.59ZM290,264.08l33.88-19.56L307.39,235l-33.88,19.56Z"/><path class="cls-5" d="M360.49,224.44,324.81,245l-18.32-10.58,35.67-20.59ZM324.81,244l33.88-19.56-16.53-9.55-33.88,19.56Z"/><path class="cls-5" d="M325.17,204.05,251.4,246.63,238.21,239,312,196.43ZM251.4,245.6l72-41.55L312,197.46,240,239Z"/><path class="cls-5" d="M198.67,331.79l-55.58,32.09-13-7.48,55.58-32.09Zm-55.58,31.06,53.79-31.06-11.17-6.45L131.93,356.4Z"/><path class="cls-5" d="M233.45,311.71l-35.67,20.6-13-7.48,35.67-20.6Zm-35.67,19.56,33.88-19.56-11.17-6.44-33.88,19.56Z"/><path class="cls-5" d="M268.22,291.63l-35.67,20.6-13-7.48,35.68-20.6ZM232.55,311.2l33.88-19.57-11.16-6.44-33.88,19.56Z"/><path class="cls-5" d="M303,271.56l-35.67,20.59-13-7.48L290,264.08Zm-35.67,19.56,33.88-19.56L290,265.11l-33.88,19.56Z"/><path class="cls-5" d="M337.77,251.48,302.1,272.07l-13-7.48L324.81,244ZM302.1,271,336,251.48,324.81,245l-33.87,19.56Z"/><path class="cls-5" d="M372.55,231.4,336.88,252l-13-7.48,35.67-20.6ZM336.88,251l33.88-19.56L359.59,225l-33.88,19.57Z"/><path class="cls-5" d="M210.73,338.75l-55.58,32.09-13-7.48,55.58-32.09Zm-55.58,31.06,53.79-31.06-11.16-6.44L144,363.36Z"/><path class="cls-5" d="M245.51,318.68l-35.67,20.59-13-7.48,35.67-20.59Zm-35.67,19.56,33.88-19.56-11.17-6.45-33.88,19.56Z"/><path class="cls-5" d="M280.28,298.6l-35.67,20.59-13-7.48,35.67-20.59Zm-35.67,19.56,33.88-19.56-11.16-6.45-33.88,19.56Z"/><path class="cls-5" d="M315.06,278.52l-35.67,20.6-13-7.49L302.1,271Zm-35.67,19.56,33.88-19.56-11.17-6.45-33.88,19.56Z"/><path class="cls-5" d="M349.83,258.44,314.16,279l-13-7.48L336.88,251ZM314.16,278,348,258.44,336.88,252,303,271.56Z"/><path class="cls-5" d="M384.61,238.36,348.94,259l-13-7.48,35.67-20.6Zm-35.67,19.57,33.88-19.57-11.17-6.44-33.88,19.56Z"/><path class="cls-5" d="M222.8,345.72l-55.58,32.09-13-7.48,55.58-32.09Zm-55.58,31,53.78-31-11.16-6.45-53.79,31.06Z"/><path class="cls-5" d="M257.57,325.64l-35.67,20.6-13-7.49,35.67-20.59ZM221.9,345.2l33.88-19.56-11.17-6.45-33.88,19.56Z"/><path class="cls-5" d="M292.35,305.56l-35.68,20.6-13-7.48,35.67-20.6Zm-35.68,19.56,33.88-19.56-11.16-6.44-33.88,19.56Z"/><path class="cls-5" d="M327.12,285.48l-35.67,20.6-13-7.48L314.16,278ZM291.45,305l33.88-19.56L314.16,279,280.28,298.6Z"/><path class="cls-5" d="M361.89,265.41,326.22,286l-13-7.48,35.67-20.59ZM326.22,285l33.88-19.56L348.94,259l-33.88,19.56Z"/><path class="cls-5" d="M396.67,245.33,361,265.92l-13-7.48,35.67-20.59ZM361,264.89l33.88-19.56-11.17-6.45-33.88,19.56Z"/><path class="cls-5" d="M234.86,352.68l-55.58,32.09-13-7.48L221.9,345.2Zm-55.58,31.06,53.79-31.06-11.17-6.44-53.79,31.05Z"/><path class="cls-5" d="M269.63,332.6,234,353.2l-13-7.48,35.67-20.6ZM234,352.16l33.88-19.56-11.17-6.44L222.8,345.72Z"/><path class="cls-5" d="M304.41,312.53l-35.67,20.59-13-7.48L291.45,305Zm-35.67,19.56,33.88-19.56-11.17-6.45-33.88,19.56Z"/><path class="cls-5" d="M339.18,292.45,303.51,313l-13-7.48L326.22,285ZM303.51,312l33.88-19.56L326.22,286l-33.87,19.56Z"/><path class="cls-5" d="M374,272.37,338.29,293l-13-7.49L361,264.89Zm-35.67,19.56,33.87-19.56L361,265.92l-33.88,19.56Z"/><path class="cls-5" d="M408.73,252.29l-35.67,20.6-13-7.48,35.67-20.6Zm-35.67,19.56,33.88-19.56-11.17-6.44-33.88,19.56Z"/><path class="cls-5" d="M246.92,359.65l-55.58,32.09-13-7.48L234,352.16ZM191.34,390.7l53.79-31.05L234,353.2l-53.79,31.06Z"/><path class="cls-5" d="M281.69,339.57,246,360.16l-13-7.48,35.67-20.59ZM246,359.13l33.88-19.56-11.16-6.45-33.88,19.56Z"/><path class="cls-5" d="M316.47,319.49l-35.67,20.6-13-7.49L303.51,312ZM280.8,339.05l33.88-19.56L303.51,313,269.63,332.6Z"/><path class="cls-5" d="M351.24,299.41,315.57,320l-12.95-7.48,35.67-20.6ZM315.57,319l33.88-19.56L338.29,293l-33.88,19.56Z"/><path class="cls-5" d="M386,279.33l-35.67,20.6-13-7.48,35.67-20.6ZM350.35,298.9l33.88-19.57-11.17-6.44-33.88,19.56Z"/><path class="cls-5" d="M420.79,259.26l-35.67,20.59-13-7.48,35.68-20.59Zm-35.67,19.56L419,259.26l-11.16-6.45L374,272.37Z"/><path class="cls-5" d="M259,366.61,203.4,398.7l-13-7.48L246,359.13ZM203.4,397.67l53.79-31.06L246,360.16l-53.79,31.06Z"/><path class="cls-5" d="M293.76,346.53l-35.68,20.6-12.95-7.48,35.67-20.6Zm-35.68,19.56L292,346.53l-11.16-6.44-33.88,19.56Z"/><path class="cls-5" d="M328.53,326.45l-35.67,20.6-13-7.48L315.57,319ZM292.86,346l33.88-19.56L315.57,320l-33.88,19.56Z"/><path class="cls-5" d="M363.3,306.38,327.63,327l-12.95-7.48,35.67-20.59Zm-35.67,19.56,33.88-19.56-11.16-6.45-33.88,19.56Z"/><path class="cls-5" d="M398.08,286.3l-35.67,20.59-13-7.48,35.67-20.59Zm-35.67,19.56,33.88-19.56-11.17-6.45-33.88,19.56Z"/><path class="cls-5" d="M432.85,266.22l-35.67,20.6-12.95-7.49,35.67-20.59Zm-35.67,19.56,33.88-19.56-11.16-6.45L386,279.33Z"/><polygon class="cls-5" points="195.88 287.17 103.5 340.5 101.11 339.13 193.49 285.79 195.88 287.17"/><polygon class="cls-5" points="332.28 208.41 277.6 239.99 275.21 238.61 329.89 207.04 332.28 208.41"/><polygon class="cls-5" points="124.45 313.69 90.76 333.15 88.37 331.77 122.07 312.31 124.45 313.69"/><polygon class="cls-5" points="162.78 325.7 129.08 345.16 126.69 343.78 160.39 324.32 162.78 325.7"/><polygon class="cls-5" points="180.71 336.06 147.02 355.51 144.63 354.13 178.32 334.68 180.71 336.06"/><polygon class="cls-5" points="180.78 349.95 159.08 362.48 156.69 361.1 178.39 348.57 180.78 349.95"/><polygon class="cls-5" points="187.99 359.71 171.14 369.44 168.75 368.06 185.6 358.33 187.99 359.71"/><polygon class="cls-5" points="216.9 356.95 183.2 376.4 180.81 375.03 214.51 355.57 216.9 356.95"/><polygon class="cls-5" points="228.96 363.91 195.26 383.37 192.87 381.99 226.57 362.53 228.96 363.91"/><polygon class="cls-5" points="232.26 375.94 207.32 390.33 204.94 388.95 229.87 374.56 232.26 375.94"/><polygon class="cls-5" points="155.74 336.64 135.03 348.6 132.65 347.22 153.35 335.26 155.74 336.64"/><polygon class="cls-5" points="200.96 303.66 181.84 314.7 179.46 313.32 198.57 302.28 200.96 303.66"/><polygon class="cls-5" points="199.54 311.35 187.79 318.13 185.41 316.75 197.15 309.97 199.54 311.35"/><polygon class="cls-5" points="216.2 315.57 204.46 322.35 202.07 320.97 213.81 314.19 216.2 315.57"/><polygon class="cls-5" points="228.26 322.53 216.52 329.31 214.13 327.93 225.87 321.15 228.26 322.53"/><polygon class="cls-5" points="240.32 329.5 228.58 336.28 226.19 334.9 237.93 328.12 240.32 329.5"/><polygon class="cls-5" points="252.38 336.46 240.64 343.24 238.25 341.86 250 335.08 252.38 336.46"/><polygon class="cls-5" points="264.45 343.43 252.7 350.21 250.31 348.83 262.06 342.05 264.45 343.43"/><polygon class="cls-5" points="251.09 295.42 239.35 302.2 236.96 300.82 248.7 294.04 251.09 295.42"/><polygon class="cls-5" points="263.15 302.39 251.41 309.17 249.02 307.79 260.76 301.01 263.15 302.39"/><polygon class="cls-5" points="287.28 316.32 275.53 323.1 273.14 321.72 284.89 314.94 287.28 316.32"/><polygon class="cls-5" points="299.34 323.28 287.59 330.06 285.2 328.68 296.95 321.9 299.34 323.28"/><polygon class="cls-5" points="311.4 330.24 299.65 337.02 297.27 335.64 309.01 328.86 311.4 330.24"/><polygon class="cls-5" points="285.98 275.28 274.24 282.06 271.85 280.68 283.59 273.9 285.98 275.28"/><polygon class="cls-5" points="298.04 282.24 286.3 289.02 283.91 287.64 295.65 280.86 298.04 282.24"/><polygon class="cls-5" points="310.11 289.21 298.36 295.99 295.97 294.61 307.72 287.83 310.11 289.21"/><polygon class="cls-5" points="322.17 296.17 310.42 302.95 308.03 301.57 319.78 294.79 322.17 296.17"/><polygon class="cls-5" points="334.23 303.13 322.48 309.92 320.1 308.54 331.84 301.75 334.23 303.13"/><polygon class="cls-5" points="346.29 310.1 334.55 316.88 332.16 315.5 343.9 308.72 346.29 310.1"/><polygon class="cls-5" points="320.87 255.13 309.13 261.92 306.74 260.54 318.48 253.75 320.87 255.13"/><polygon class="cls-5" points="345 269.06 333.25 275.84 330.86 274.46 342.61 267.68 345 269.06"/><polygon class="cls-5" points="357.06 276.03 345.31 282.81 342.92 281.43 354.67 274.65 357.06 276.03"/><polygon class="cls-5" points="381.18 289.95 369.44 296.73 367.05 295.36 378.79 288.57 381.18 289.95"/><polygon class="cls-5" points="355.76 234.99 344.02 241.77 341.63 240.39 353.38 233.61 355.76 234.99"/><polygon class="cls-5" points="367.83 241.95 356.08 248.73 353.69 247.35 365.44 240.57 367.83 241.95"/><polygon class="cls-5" points="379.89 248.92 368.14 255.7 365.75 254.32 377.5 247.54 379.89 248.92"/><polygon class="cls-5" points="391.95 255.88 380.2 262.66 377.82 261.28 389.56 254.5 391.95 255.88"/><polygon class="cls-5" points="404.01 262.85 392.27 269.63 389.88 268.25 401.62 261.47 404.01 262.85"/><polygon class="cls-5" points="416.07 269.81 404.33 276.59 401.94 275.21 413.68 268.43 416.07 269.81"/><polygon class="cls-5" points="236.81 282.96 217.69 294 215.3 292.62 234.42 281.59 236.81 282.96"/><polygon class="cls-5" points="235.39 290.65 223.64 297.44 221.25 296.06 233 289.28 235.39 290.65"/><polygon class="cls-5" points="275.09 265 255.97 276.04 253.58 274.66 272.7 263.62 275.09 265"/><polygon class="cls-5" points="298.71 247.22 287.09 253.94 284.7 252.56 296.32 245.84 298.71 247.22"/><polygon class="cls-5" points="313.42 245.6 293.04 257.37 290.65 255.99 311.03 244.22 313.42 245.6"/><polygon class="cls-5" points="340.89 222.87 321.78 233.9 319.39 232.52 338.5 221.49 340.89 222.87"/><polygon class="cls-5" points="346.85 226.3 327.73 237.34 325.34 235.96 344.46 224.92 346.85 226.3"/><polygon class="cls-5" points="312.63 205.05 278.93 224.5 276.54 223.12 310.24 203.67 312.63 205.05"/><polygon class="cls-5" points="272.43 228.26 252.31 239.88 249.92 238.5 270.04 226.88 272.43 228.26"/><polygon class="cls-5" points="139.67 298.24 84.98 329.81 81.4 327.75 136.09 296.17 139.67 298.24"/><g class="cls-1"><path class="cls-6" d="M271.05,97.21c-.26-.19-.51-.36-.76-.51a3.17,3.17,0,0,0-3.18-.31l-126,73.22a3.17,3.17,0,0,1,3.18.3,6.85,6.85,0,0,1,.76.52l43.11,33.33,126-73.21Z"/><polygon class="cls-5" points="299.95 129.62 297.61 130.98 188.79 194.2 161.6 173.18 159.26 171.36 270.41 106.77 299.95 129.62"/><polygon class="cls-3" points="297.61 130.98 188.79 194.2 161.6 173.18 270.41 109.94 297.61 130.98"/><polygon class="cls-3" points="188.16 203.76 314.15 130.55 429.27 197.01 303.29 270.23 188.16 203.76"/><path class="cls-6" d="M429.27,197l-126,73.22a9.94,9.94,0,0,1,4.5,7.8v6.14l0,6.34,126-73.21,0-6.34,0-6.14A10,10,0,0,0,429.27,197Z"/><path class="cls-5" d="M144.3,169.91a6.85,6.85,0,0,1,.76.52l43.11,33.33,115.12,66.47a9.94,9.94,0,0,1,4.5,7.8v6.14l0,6.34L137.63,192.29V186l2.24-14.26C140.24,169.37,142.15,168.67,144.3,169.91Z"/></g><path class="cls-7" d="M294.76,157.57l9.42,5.43a7.07,7.07,0,0,0,6.44,0l17.26-10a2.24,2.24,0,0,0,1.32-1.84l0-4a1.28,1.28,0,0,1-.05.27,2.12,2.12,0,0,0-1.3-2.15l-9.42-5.44a7.08,7.08,0,0,0-6.43,0l-17.27,10a2.28,2.28,0,0,0-1.32,1.86s0,4,0,4A2.3,2.3,0,0,0,294.76,157.57Z"/><path class="cls-5" d="M266.88,173.77l9.42,5.44a7.1,7.1,0,0,0,6.44,0l17.26-10a2.25,2.25,0,0,0,1.32-1.85l0-4.05a1.51,1.51,0,0,1,0,.28,2.13,2.13,0,0,0-1.3-2.16L290.57,156a7.08,7.08,0,0,0-6.43,0l-17.27,10a2.25,2.25,0,0,0-1.32,1.85v4A2.3,2.3,0,0,0,266.88,173.77Z"/><path class="cls-5" d="M239,190l9.42,5.44a7.1,7.1,0,0,0,6.44,0l17.26-10a2.24,2.24,0,0,0,1.33-1.86v-4a1.51,1.51,0,0,1,0,.28,2.1,2.1,0,0,0-1.3-2.16l-9.41-5.44a7.1,7.1,0,0,0-6.44,0l-17.26,10a2.27,2.27,0,0,0-1.33,1.87v4A2.27,2.27,0,0,0,239,190Z"/><path class="cls-8" d="M245.57,199.73v-4a1.51,1.51,0,0,1-.05.28,2.1,2.1,0,0,0-1.3-2.16l-9.41-5.44a7.07,7.07,0,0,0-6.44,0l-17.26,10a2.24,2.24,0,0,0-1.33,1.86v4a2.27,2.27,0,0,0,1.34,1.87l9.42,5.44a7.1,7.1,0,0,0,6.44,0l17.26-10A2.24,2.24,0,0,0,245.57,199.73Z"/><path class="cls-5" d="M313.53,163.25v4a2.3,2.3,0,0,0,1.35,1.89l9.41,5.43a7.1,7.1,0,0,0,6.44,0l17.26-10a2.25,2.25,0,0,0,1.32-1.85l0-4a1.37,1.37,0,0,1-.05.28,2.13,2.13,0,0,0-1.3-2.16l-9.41-5.43a7.13,7.13,0,0,0-6.44,0l-17.27,10A2.25,2.25,0,0,0,313.53,163.25Z"/><path class="cls-9" d="M320.09,173l-9.41-5.44a7.1,7.1,0,0,0-6.44,0L287,177.6a2.25,2.25,0,0,0-1.32,1.86s0,4,0,4a2.29,2.29,0,0,0,1.35,1.88l9.41,5.43a7.1,7.1,0,0,0,6.44,0l17.26-10a2.25,2.25,0,0,0,1.32-1.85l0-4.05a1.26,1.26,0,0,1-.05.28A2.11,2.11,0,0,0,320.09,173Z"/><path class="cls-9" d="M276.36,183.77l-17.26,10a2.26,2.26,0,0,0-1.33,1.86v4a2.29,2.29,0,0,0,1.35,1.88l9.41,5.44a7.13,7.13,0,0,0,6.44,0l17.26-10a2.24,2.24,0,0,0,1.33-1.85v-4a1.37,1.37,0,0,1-.05.28,2.1,2.1,0,0,0-1.29-2.16l-9.42-5.43A7.1,7.1,0,0,0,276.36,183.77Z"/><path class="cls-9" d="M265.67,211.33v-4.05a1.37,1.37,0,0,1-.05.28,2.08,2.08,0,0,0-1.29-2.15L254.92,200a7.1,7.1,0,0,0-6.44,0l-17.26,10a2.27,2.27,0,0,0-1.33,1.86s0,4,0,4a2.29,2.29,0,0,0,1.35,1.88l9.41,5.44a7.07,7.07,0,0,0,6.44,0l17.26-10A2.24,2.24,0,0,0,265.67,211.33Z"/><path class="cls-5" d="M333.64,174.86l0,4a2.29,2.29,0,0,0,1.35,1.88l9.41,5.44a7.16,7.16,0,0,0,6.44,0l17.26-10a2.25,2.25,0,0,0,1.32-1.85v-4.05a1.26,1.26,0,0,1,0,.28,2.11,2.11,0,0,0-1.3-2.15L358.66,163a7.1,7.1,0,0,0-6.44,0L335,173A2.25,2.25,0,0,0,333.64,174.86Z"/><path class="cls-9" d="M340.19,184.61l-9.41-5.44a7.16,7.16,0,0,0-6.44,0l-17.26,10a2.23,2.23,0,0,0-1.32,1.86l0,4a2.29,2.29,0,0,0,1.35,1.87l9.41,5.44a7.1,7.1,0,0,0,6.44,0l17.26-10a2.25,2.25,0,0,0,1.32-1.85v-4a1.26,1.26,0,0,1,0,.27A2.12,2.12,0,0,0,340.19,184.61Z"/><path class="cls-9" d="M279.21,213.18l9.41,5.44a7.1,7.1,0,0,0,6.44,0l17.26-10a2.29,2.29,0,0,0,1.33-1.86v-4a1.47,1.47,0,0,1-.05.29,2.1,2.1,0,0,0-1.29-2.16l-9.42-5.44a7.07,7.07,0,0,0-6.44,0l-17.26,10a2.25,2.25,0,0,0-1.32,1.86s0,4,0,4A2.23,2.23,0,0,0,279.21,213.18Z"/><path class="cls-9" d="M285.77,222.93v-4a1.51,1.51,0,0,1,0,.28,2.1,2.1,0,0,0-1.29-2.16L275,211.57a7.13,7.13,0,0,0-6.44,0l-17.26,10a2.26,2.26,0,0,0-1.32,1.86l0,4a2.29,2.29,0,0,0,1.35,1.88l9.41,5.43a7.1,7.1,0,0,0,6.44,0l17.26-10A2.28,2.28,0,0,0,285.77,222.93Z"/><path class="cls-5" d="M409.57,193.78a2.1,2.1,0,0,0-1.29-2.16l-29.52-17a7.1,7.1,0,0,0-6.44,0l-17.26,10a2.21,2.21,0,0,0-1.32,1.86s0,4,0,4a2.26,2.26,0,0,0,1.35,1.87l29.52,17.05a7.08,7.08,0,0,0,6.43,0l17.27-10a2.25,2.25,0,0,0,1.32-1.85v-4A1.51,1.51,0,0,1,409.57,193.78Z"/><path class="cls-9" d="M360.29,196.21l-9.41-5.43a7.1,7.1,0,0,0-6.44,0l-17.26,10a2.22,2.22,0,0,0-1.32,1.86s0,4,0,4a2.29,2.29,0,0,0,1.35,1.88L336.6,214a7.13,7.13,0,0,0,6.44,0l17.27-10a2.25,2.25,0,0,0,1.32-1.85v-4a1.28,1.28,0,0,1-.05.27A2.12,2.12,0,0,0,360.29,196.21Z"/><path class="cls-9" d="M299.31,224.79l9.41,5.43a7.06,7.06,0,0,0,6.45,0l17.26-10a2.25,2.25,0,0,0,1.32-1.85v-4.05a2.36,2.36,0,0,1,0,.28,2.13,2.13,0,0,0-1.3-2.16L323,207a7.1,7.1,0,0,0-6.44,0L299.3,217a2.28,2.28,0,0,0-1.32,1.86l0,4A2.29,2.29,0,0,0,299.31,224.79Z"/><path class="cls-9" d="M305.87,234.54v-4a1.26,1.26,0,0,1,0,.28,2.11,2.11,0,0,0-1.3-2.15l-9.42-5.44a7.1,7.1,0,0,0-6.44,0l-17.26,10a2.28,2.28,0,0,0-1.32,1.86l0,4.05a2.29,2.29,0,0,0,1.35,1.87l9.41,5.44a7.12,7.12,0,0,0,6.45,0l17.26-10A2.28,2.28,0,0,0,305.87,234.54Z"/><path class="cls-9" d="M380.4,207.82,371,202.39a7.07,7.07,0,0,0-6.44,0l-17.26,10a2.21,2.21,0,0,0-1.32,1.85s0,4,0,4a2.29,2.29,0,0,0,1.35,1.88l9.42,5.44a7.08,7.08,0,0,0,6.43,0l17.27-10a2.25,2.25,0,0,0,1.32-1.85V209.7a1.37,1.37,0,0,1-.05.28A2.1,2.1,0,0,0,380.4,207.82Z"/><path class="cls-9" d="M352.52,224l-9.41-5.44a7.12,7.12,0,0,0-6.45,0l-17.26,10a2.28,2.28,0,0,0-1.32,1.87l0,4a2.29,2.29,0,0,0,1.35,1.88l9.42,5.43a7.1,7.1,0,0,0,6.44,0l17.26-10a2.26,2.26,0,0,0,1.32-1.86v-4a2.51,2.51,0,0,1,0,.27A2.12,2.12,0,0,0,352.52,224Z"/><path class="cls-9" d="M324.64,240.22l-9.41-5.43a7.06,7.06,0,0,0-6.45,0l-17.26,10a2.25,2.25,0,0,0-1.32,1.86s0,4,0,4a2.29,2.29,0,0,0,1.35,1.88L301,258a7.1,7.1,0,0,0,6.44,0l17.26-10a2.25,2.25,0,0,0,1.32-1.85V242.1a2.7,2.7,0,0,1,0,.28A2.13,2.13,0,0,0,324.64,240.22Z"/><path class="cls-6" d="M327.87,145.2c1.79,1,1.8,2.7,0,3.73l-17.27,10a7.1,7.1,0,0,1-6.44,0l-9.42-5.44c-1.78-1-1.79-2.7,0-3.73l17.27-10a7.08,7.08,0,0,1,6.43,0Z"/><path class="cls-6" d="M300,161.4c1.79,1,1.8,2.7,0,3.73l-17.27,10a7.1,7.1,0,0,1-6.44,0l-9.42-5.44c-1.78-1-1.79-2.7,0-3.72l17.27-10a7.08,7.08,0,0,1,6.43,0Z"/><path class="cls-6" d="M272.11,177.6c1.79,1,1.8,2.7,0,3.73l-17.26,10a7.12,7.12,0,0,1-6.45,0L239,185.92c-1.78-1-1.79-2.69,0-3.73l17.26-10a7.1,7.1,0,0,1,6.44,0Z"/><path class="cls-10" d="M244.23,193.8c1.79,1,1.8,2.7,0,3.73l-17.26,10a7.06,7.06,0,0,1-6.45,0l-9.42-5.43c-1.78-1-1.79-2.7,0-3.73l17.26-10a7.07,7.07,0,0,1,6.44,0Z"/><path class="cls-6" d="M348,156.8c1.78,1,1.79,2.7,0,3.73l-17.26,10a7.1,7.1,0,0,1-6.44,0l-9.41-5.43c-1.79-1-1.8-2.7,0-3.73l17.27-10a7.13,7.13,0,0,1,6.44,0Z"/><path class="cls-11" d="M320.09,173c1.78,1,1.79,2.69,0,3.72l-17.26,10a7.1,7.1,0,0,1-6.44,0L287,181.33c-1.79-1-1.8-2.7,0-3.73l17.27-10a7.1,7.1,0,0,1,6.44,0Z"/><path class="cls-11" d="M292.22,189.2c1.78,1,1.79,2.7,0,3.73L275,203a7.1,7.1,0,0,1-6.44,0l-9.41-5.44c-1.79-1-1.8-2.7,0-3.73l17.26-10a7.1,7.1,0,0,1,6.44,0Z"/><path class="cls-11" d="M264.34,205.41c1.78,1,1.79,2.69,0,3.73l-17.26,10a7.1,7.1,0,0,1-6.44,0l-9.41-5.44c-1.79-1-1.8-2.7,0-3.73l17.26-10a7.1,7.1,0,0,1,6.44,0Z"/><path class="cls-6" d="M368.07,168.41c1.78,1,1.79,2.7,0,3.72l-17.26,10a7.1,7.1,0,0,1-6.44,0L335,176.73c-1.78-1-1.79-2.7,0-3.72l17.26-10a7.1,7.1,0,0,1,6.44,0Z"/><path class="cls-11" d="M340.19,184.61c1.78,1,1.79,2.7,0,3.73l-17.26,10a7.1,7.1,0,0,1-6.44,0l-9.41-5.44c-1.78-1-1.79-2.69,0-3.72l17.26-10a7.16,7.16,0,0,1,6.44,0Z"/><path class="cls-11" d="M312.32,200.81c1.78,1,1.79,2.7,0,3.73l-17.26,10a7.1,7.1,0,0,1-6.44,0l-9.41-5.43c-1.78-1-1.79-2.7,0-3.73l17.26-10a7.07,7.07,0,0,1,6.44,0Z"/><path class="cls-11" d="M284.44,217c1.78,1,1.79,2.7,0,3.73l-17.26,10a7.13,7.13,0,0,1-6.44,0l-9.41-5.44c-1.78-1-1.79-2.7,0-3.73l17.26-10a7.13,7.13,0,0,1,6.44,0Z"/><path class="cls-6" d="M408.28,191.62c1.78,1,1.79,2.7,0,3.73l-17.27,10a7.08,7.08,0,0,1-6.43,0l-29.52-17c-1.78-1-1.79-2.7,0-3.73l17.26-10a7.1,7.1,0,0,1,6.44,0Z"/><path class="cls-11" d="M360.29,196.21c1.79,1,1.8,2.71,0,3.73l-17.27,10a7.07,7.07,0,0,1-6.44,0l-9.41-5.43c-1.78-1-1.79-2.7,0-3.73l17.26-10a7.1,7.1,0,0,1,6.44,0Z"/><path class="cls-11" d="M332.42,212.41c1.79,1,1.79,2.7,0,3.74l-17.26,10a7.12,7.12,0,0,1-6.45,0l-9.41-5.44c-1.78-1-1.79-2.7,0-3.73l17.26-10a7.1,7.1,0,0,1,6.44,0Z"/><path class="cls-11" d="M304.54,228.62c1.79,1,1.79,2.7,0,3.73l-17.26,10a7.12,7.12,0,0,1-6.45,0l-9.41-5.44c-1.78-1-1.79-2.69,0-3.73l17.26-10a7.1,7.1,0,0,1,6.44,0Z"/><path class="cls-11" d="M380.4,207.82c1.78,1,1.79,2.7,0,3.73l-17.27,10a7.08,7.08,0,0,1-6.43,0l-9.42-5.43c-1.79-1-1.79-2.7,0-3.73l17.26-10a7.07,7.07,0,0,1,6.44,0Z"/><path class="cls-11" d="M352.52,224c1.78,1,1.79,2.7,0,3.73l-17.26,10a7.1,7.1,0,0,1-6.44,0l-9.42-5.43c-1.79-1-1.8-2.7,0-3.74l17.26-10a7.12,7.12,0,0,1,6.45,0Z"/><path class="cls-11" d="M324.64,240.22c1.78,1,1.79,2.7,0,3.73L307.4,254a7.07,7.07,0,0,1-6.44,0l-9.42-5.44c-1.79-1-1.8-2.7,0-3.73l17.26-10a7.06,7.06,0,0,1,6.45,0Z"/><path class="cls-12" d="M253.45,211.15l-1.87,1.08-6.59-3.8s-.84,1.36-.84,1.36l-1.78-.65,1.16-1.86,1.61-.93Z"/><path class="cls-12" d="M283.14,194l-5.86,3.4-1.18-.68.09-1.18c.19-2,.12-3-.82-3.61a2.51,2.51,0,0,0-2.57.09,2.16,2.16,0,0,0-1.08,1.42l-1.94-.48a3.62,3.62,0,0,1,1.85-2.07,5.55,5.55,0,0,1,5.51-.18c1.39.8,1.49,2,1.38,3.35l-.12.81s3.14-1.8,3.14-1.8Z"/><path class="cls-12" d="M308.53,176.35c1.47.85,1.26,2.22-.84,3.44a8.6,8.6,0,0,1-3,1.08l-1.06-1.07A8.25,8.25,0,0,0,306,179c1-.58,1-1.16.39-1.52a3,3,0,0,0-2.85.28l-.78.46-1.4-.81.75-.43c.64-.39,1.22-1,.52-1.41a2.14,2.14,0,0,0-2.1.2,3.09,3.09,0,0,0-1.22,1.3l-1.81-.59a4.58,4.58,0,0,1,1.93-1.84,5,5,0,0,1,4.82-.4c.88.51,1.08,1.19.42,2A4.71,4.71,0,0,1,308.53,176.35Z"/><path class="cls-12" d="M272.63,221l2,1.14-1.82,1.06-2-1.14-3.66,2.12-1.27-.73-1.94-4.74,2.36-1.37,4.88,2.81,1-.57,1.46.84Zm-5.15,1.3,1.86-1.08-1.84-1.07c-.51-.29-1-.6-1.49-.93.22.5.49.9.74,1.37l.71,1.69Z"/><path class="cls-12" d="M300.31,203.9c1.55.9,1.6,2.45-.63,3.75a9.31,9.31,0,0,1-2.77,1.06l-1.11-1a8.63,8.63,0,0,0,2.27-.85c.8-.47,1.27-1.18.39-1.69s-2.06-.41-3.71.55a8.42,8.42,0,0,0-1,.7l-3.82-2.84,4.56-2.64,1.6.92-3.21,1.86,1.1.84.51-.32a7,7,0,0,1,2.78-.92A5,5,0,0,1,300.31,203.9Z"/><path class="cls-12" d="M328.41,187.54c1.64,1,1.75,2.47-.05,3.51a7,7,0,0,1-6.91-.19c-1.56-.9-2.3-2-2.23-3a3.58,3.58,0,0,1,2-2.56c.33-.22.56-.35.76-.46l1.49.87c-.22.12-.44.26-.72.45-1.57,1.08-1.45,2-.7,2.72,0-.5.36-1,1.13-1.43A5.51,5.51,0,0,1,328.41,187.54Zm-4.52,2.51a3.23,3.23,0,0,0,3,.19c.69-.4.5-1-.35-1.5a2.74,2.74,0,0,0-2.66-.11c-.53.3-.63.74-.41,1.09a1.18,1.18,0,0,0,.41.33Z"/><path class="cls-12" d="M288.29,229.27l3.68,6.07-2,1.18-3.3-5.84s-3.81,2.19-3.81,2.19l-1.59-.92,5.83-3.39Z"/><path class="cls-12" d="M321.07,215.66c1.51.87,1.27,2.19-.65,3.3a5.65,5.65,0,0,1-5.37.45c-1-.58-1.12-1.31-.61-2.06a4.74,4.74,0,0,1-3.06-.38c-1.41-.81-1.08-2.08.57-3a5.05,5.05,0,0,1,4.87-.36c.72.42,1,1.05.64,1.76A5.07,5.07,0,0,1,321.07,215.66Zm-4.23,2.51a2.48,2.48,0,0,0,2.31,0c.69-.39.69-.91.11-1.25a3.33,3.33,0,0,0-2.67,0c-.46.47-.37,1,.23,1.3Zm-3.7-2.3a3.06,3.06,0,0,0,2.29,0,.66.66,0,0,0-.23-1.1,2,2,0,0,0-2,0c-.66.38-.57.83,0,1.13Z"/><path class="cls-12" d="M346.86,203.58c-.31.21-.65.39-.87.51l-1.53-.88a6.29,6.29,0,0,0,.84-.49,2.61,2.61,0,0,0,1.11-1.24,1.43,1.43,0,0,0-.49-1.49c0,.45-.35.89-1.1,1.32a5.43,5.43,0,0,1-5.18,0c-1.62-.94-1.7-2.48.12-3.54a6.8,6.8,0,0,1,6.71.26c1.72,1,2.45,2,2.37,3A3.59,3.59,0,0,1,346.86,203.58Zm-5.4-3.46a2.53,2.53,0,0,0,2.5.09c.52-.3.63-.67.51-.94a.8.8,0,0,0-.38-.34,3.1,3.1,0,0,0-3-.31c-.65.38-.56,1,.29,1.48Z"/><polygon class="cls-12" points="386.87 187.87 383.52 189.82 387.08 191.87 385.5 192.79 381.94 190.73 378.59 192.68 377.07 191.81 380.43 189.86 376.9 187.82 378.48 186.91 382 188.94 385.36 187 386.87 187.87"/><polygon class="cls-12" points="356.62 170.41 348.34 175.22 347.05 174.48 355.33 169.66 356.62 170.41"/><polygon class="cls-12" points="337.52 160.38 337.54 161.36 332.59 161.33 332.67 164.19 330.97 164.19 330.9 161.32 325.95 161.29 325.93 160.32 330.89 160.35 330.83 157.47 332.51 157.48 332.57 160.35 337.52 160.38"/><path class="cls-12" d="M310.44,147.33c.55.32.58.75,0,1.08a1.92,1.92,0,0,1-1.86,0c-.59-.34-.59-.78,0-1.1A2,2,0,0,1,310.44,147.33Z"/><g class="cls-1"><path class="cls-12" d="M314.93,149.92c.56.33.59.76,0,1.09a1.92,1.92,0,0,1-1.87,0c-.58-.33-.57-.76,0-1.08A1.91,1.91,0,0,1,314.93,149.92Z"/><polygon class="cls-12" points="307.87 150.72 314.43 146.91 315.63 147.61 309.07 151.42 307.87 150.72"/></g><g class="cls-1"><path class="cls-12" d="M286.23,166c-1.49-.86-1.71-2-.3-2.85a4.76,4.76,0,0,1,4.69.13c1.74,1,1.56,2.17.37,2.86A5,5,0,0,1,286.23,166Zm3-1.83a2.42,2.42,0,0,0-2.3-.39c-.59.34-.18.87.65,1.35a2.54,2.54,0,0,0,2.34.37c.55-.31.25-.79-.69-1.33Z"/><polygon class="cls-12" points="282.35 161.27 286.19 169 285.17 169.59 281.31 161.87 282.35 161.27"/></g><path class="cls-12" d="M281.22,164.78c1.74,1,1.56,2.17.36,2.86a4.94,4.94,0,0,1-4.75-.14c-1.49-.86-1.71-2-.3-2.85A4.76,4.76,0,0,1,281.22,164.78Zm-3,1.86a2.58,2.58,0,0,0,2.35.37c.55-.32.25-.8-.69-1.34a2.49,2.49,0,0,0-2.32-.39c-.57.34-.17.88.66,1.36Z"/><polygon class="cls-12" points="266.9 180.23 261.44 183.4 252.82 178.42 258.11 175.35 259.7 176.27 256.36 178.22 258.15 179.25 261.31 177.42 262.89 178.34 259.74 180.17 261.79 181.35 265.31 179.31 266.9 180.23"/><path class="cls-12" d="M251.89,179.24l1.16,1.12a7.28,7.28,0,0,0-2,.77c-1.54.89-1.8,2.12.12,3.23a5.5,5.5,0,0,0,5.56,0,4.77,4.77,0,0,0,1.33-1.1l1.81.71a5.41,5.41,0,0,1-1.82,1.49,8.81,8.81,0,0,1-8.8.12c-2.94-1.7-2.49-3.86.1-5.36A8.69,8.69,0,0,1,251.89,179.24Z"/><path class="cls-12" d="M227.33,193.52l1.15,1.12a7,7,0,0,0-1.94.76c-1.54.89-1.8,2.13.12,3.24a5.55,5.55,0,0,0,5.56,0,4.61,4.61,0,0,0,1.33-1.11l1.81.71a5.18,5.18,0,0,1-1.82,1.49,8.81,8.81,0,0,1-8.8.13c-3-1.7-2.5-3.86.1-5.37A8.49,8.49,0,0,1,227.33,193.52Z"/><path class="cls-12" d="M311.47,242.43c2.58,1.48,3.31,3.1,1.2,4.32s-5,.68-7.37-.68-3.3-3.08-1.16-4.32S309.2,241.11,311.47,242.43ZM307.32,245c1.85,1.07,3.19,1.31,3.93.88s.22-1.22-1.68-2.31-3.21-1.39-4-.94-.3,1.2,1.58,2.28l.07,0,.08.05Z"/><polygon class="cls-12" points="358.97 212.65 365.53 208.84 366.71 209.52 360.16 213.33 358.97 212.65"/><polygon class="cls-12" points="368.17 210.37 369.36 211.05 362.81 214.86 361.61 214.18 368.17 210.37"/><path class="cls-12" d="M337.43,227.39c.68.4.72,1,0,1.35a2.43,2.43,0,0,1-2.31,0c-.69-.4-.72-1,0-1.35A2.42,2.42,0,0,1,337.43,227.39Z"/><path class="cls-5" d="M229.66,152.68l1.47,0,.09-1,3.13-1.86-4.82-3.55-3.13,1.86-1.47,0-.1,1L221.7,151l-1.47-.05.09-1,7.83-4.65,1.47,0,1.48,0,4.82,3.55-.09,1,1.47,0,4.82,3.55-.09,1-.1,1-7.83,4.65-1.47,0,.09-1,3.14-1.87,1.47,0,.09-1,3.14-1.86-4.83-3.55-3.13,1.87-1.47-.05-.1,1-3.13,1.86-1.47,0,.09-1Z"/><path class="cls-5" d="M243.68,137l-.09,1-3.13,1.86-1.48,0-.09,1-3.13,1.86,4.82,3.55,3.13-1.86,1.48,0,.09-1,3.13-1.87,1.48.05,1.47,0,4.82,3.55-.09,1-.1,1-7.83,4.65-1.47,0-1.47,0-4.83-3.55.1-1-1.47,0-4.83-3.55.1-1,.09-1,7.83-4.66Zm1.41,8.33L242,147.2l4.82,3.55,3.14-1.86,1.47,0,.09-1,3.14-1.86-4.83-3.55-3.13,1.86-1.47,0Z"/><path class="cls-5" d="M257.77,136l1.48,0,.09-1,3.13-1.86-4.82-3.55-3.13,1.86-1.48,0-.09,1-3.13,1.86-1.47,0,.09-1,7.83-4.65,1.47,0,1.48,0,4.82,3.55-.09,1-.1,1-3.13,1.86-1.47,0-.1,1L256,138.85l4.82,3.54,3.14-1.86,1.47,0,.09-1,3.14-1.86,1.47,0-.1,1-7.83,4.66-1.47,0-1.47,0-4.83-3.55.1-1,.09-1Z"/><path class="cls-5" d="M262.31,126.86l.09-1,.1-1,7.83-4.65,1.47,0,1.48,0,4.82,3.55-.1,1-1.47,0-3.44-2.53,1.09,3.93-.78.46-1.38-1-1.09-3.93-2.35,1.4-1.48,0-.09,1-3.13,1.86,4.82,3.55-.09,1-1.48,0Zm6.2,4.56.1-1,1.47,0,3.44,2.54-1.09-3.94.78-.46,1.38,1,1.1,3.93,2.35-1.39,1.47,0,.09-1,3.13-1.87-4.82-3.54.09-1,1.48,0,4.82,3.54-.09,1-.1,1-7.83,4.65-1.47,0-1.47,0Z"/><path class="cls-5" d="M229.66,152.68l1.47,0,.09-1,3.13-1.86-4.82-3.55-3.13,1.86-1.47,0-.1,1L221.7,151l-1.47-.05.09-1,7.83-4.65,1.47,0,1.48,0,4.82,3.55-.09,1,1.47,0,4.82,3.55-.09,1-.1,1-7.83,4.65-1.47,0,.09-1,3.14-1.87,1.47,0,.09-1,3.14-1.86-4.83-3.55-3.13,1.87-1.47-.05-.1,1-3.13,1.86-1.47,0,.09-1Z"/><path class="cls-5" d="M243.68,137l-.09,1-3.13,1.86-1.48,0-.09,1-3.13,1.86,4.82,3.55,3.13-1.86,1.48,0,.09-1,3.13-1.87,1.48.05,1.47,0,4.82,3.55-.09,1-.1,1-7.83,4.65-1.47,0-1.47,0-4.83-3.55.1-1-1.47,0-4.83-3.55.1-1,.09-1,7.83-4.66Zm1.41,8.33L242,147.2l4.82,3.55,3.14-1.86,1.47,0,.09-1,3.14-1.86-4.83-3.55-3.13,1.86-1.47,0Z"/><path class="cls-5" d="M257.77,136l1.48,0,.09-1,3.13-1.86-4.82-3.55-3.13,1.86-1.48,0-.09,1-3.13,1.86-1.47,0,.09-1,7.83-4.65,1.47,0,1.48,0,4.82,3.55-.09,1-.1,1-3.13,1.86-1.47,0-.1,1L256,138.85l4.82,3.54,3.14-1.86,1.47,0,.09-1,3.14-1.86,1.47,0-.1,1-7.83,4.66-1.47,0-1.47,0-4.83-3.55.1-1,.09-1Z"/><path class="cls-5" d="M262.31,126.86l.09-1,.1-1,7.83-4.65,1.47,0,1.48,0,4.82,3.55-.1,1-1.47,0-3.44-2.53,1.09,3.93-.78.46-1.38-1-1.09-3.93-2.35,1.4-1.48,0-.09,1-3.13,1.86,4.82,3.55-.09,1-1.48,0Zm6.2,4.56.1-1,1.47,0,3.44,2.54-1.09-3.94.78-.46,1.38,1,1.1,3.93,2.35-1.39,1.47,0,.09-1,3.13-1.87-4.82-3.54.09-1,1.48,0,4.82,3.54-.09,1-.1,1-7.83,4.65-1.47,0-1.47,0Z"/><g class="cls-1"><polygon class="cls-13" points="293.27 401.48 347.24 370.12 347.2 384.01 293.23 415.37 293.27 401.48"/><polygon class="cls-14" points="165.91 327.95 219.87 296.59 347.24 370.12 293.27 401.48 165.91 327.95"/><polygon class="cls-15" points="182.88 327.92 219.89 306.42 330.26 370.14 293.26 391.65 182.88 327.92"/><polygon class="cls-16" points="293.27 401.48 293.23 415.37 165.87 341.84 165.91 327.95 293.27 401.48"/></g><path class="cls-14" d="M276.15,332.85c9,5.2,5.65,15.57-7.48,23.15s-31.09,9.52-40.09,4.32-5.66-15.56,7.48-23.15S267.14,327.66,276.15,332.85Z"/><g class="cls-1"><path class="cls-4" d="M292.07,338.26l-54,31.35-17.73-10.23-2.56-1.48-5.14-3,54-31.37,5.15,3,2.56,1.48Z"/><path class="cls-3" d="M238.09,369.61l0,13.9-17.7-10.22-2.57-1.49-5.17-3,0-13.88,5.13,3,2.57,1.48Z"/></g><path class="cls-10" d="M272.76,327.1l-54,31.37v13.91l-2.58-1.49V357s54-31.37,54-31.37Z"/><path class="cls-8" d="M218.79,358.47v13.91l-2.58-1.49V357S218.79,358.47,218.79,358.47Z"/><path class="cls-10" d="M288.17,336l-54,31.37v13.91l-2.57-1.49v-13.9l54-31.37Z"/><path class="cls-8" d="M234.2,367.37v13.91l-2.57-1.49v-13.9Z"/><path class="cls-14" d="M297.53,357.71c3,1.74,3,4.56,0,6.3a12,12,0,0,1-10.92,0c-3-1.74-3-4.56,0-6.3A12,12,0,0,1,297.53,357.71Z"/><path class="cls-14" d="M230.82,324.87c3,1.74,3,4.57,0,6.31a12.1,12.1,0,0,1-10.93,0c-3-1.74-3-4.57,0-6.31A12.1,12.1,0,0,1,230.82,324.87Z"/><polygon class="cls-14" points="267.73 360.25 293.97 375.4 298.05 373.05 271.81 357.9 267.73 360.25"/><polygon class="cls-14" points="264.28 364.57 284.96 376.51 288.17 374.65 267.49 362.71 264.28 364.57"/><g class="cls-1"><polygon class="cls-13" points="296.62 387.5 350.59 356.14 350.55 370.03 296.58 401.39 296.62 387.5"/><polygon class="cls-14" points="169.25 313.97 223.22 282.61 350.59 356.14 296.62 387.5 169.25 313.97"/><polygon class="cls-15" points="186.23 313.94 223.24 292.44 333.61 356.16 296.61 377.67 186.23 313.94"/><polygon class="cls-16" points="296.62 387.5 296.58 401.39 169.22 327.86 169.25 313.97 296.62 387.5"/></g><path class="cls-14" d="M279.5,318.88c9,5.19,5.65,15.56-7.48,23.14s-31.09,9.52-40.09,4.32-5.66-15.56,7.48-23.15S270.49,313.68,279.5,318.88Z"/><g class="cls-1"><path class="cls-4" d="M295.42,324.28l-54,31.35L223.71,345.4l-2.56-1.48L216,341l54-31.37,5.15,3,2.56,1.48Z"/><path class="cls-3" d="M241.44,355.63l0,13.9-17.69-10.22-2.57-1.49-5.17-3L216,341l5.13,3,2.57,1.48Z"/></g><path class="cls-10" d="M276.11,313.12l-54,31.37V358.4l-2.57-1.49V343l54-31.37Z"/><path class="cls-8" d="M222.13,344.49V358.4l-2.57-1.49V343Z"/><path class="cls-10" d="M291.52,322l-54,31.37V367.3L235,365.81v-13.9l54-31.37Z"/><path class="cls-8" d="M237.55,353.39V367.3L235,365.81v-13.9Z"/><path class="cls-14" d="M300.88,343.73c3,1.74,3,4.56,0,6.31A12.1,12.1,0,0,1,290,350c-3-1.75-3-4.57,0-6.31A12,12,0,0,1,300.88,343.73Z"/><path class="cls-14" d="M234.17,310.89c3,1.74,3,4.57,0,6.31a12.1,12.1,0,0,1-10.93,0c-3-1.74-3-4.57,0-6.31A12.1,12.1,0,0,1,234.17,310.89Z"/><polygon class="cls-14" points="271.08 346.27 297.32 361.42 301.4 359.07 275.16 343.92 271.08 346.27"/><polygon class="cls-14" points="267.63 350.59 288.31 362.53 291.52 360.68 270.84 348.73 267.63 350.59"/><g class="cls-1"><polygon class="cls-13" points="293.27 369.45 347.24 338.08 347.2 351.97 293.23 383.33 293.27 369.45"/><polygon class="cls-14" points="165.91 295.91 293.27 369.45 347.24 338.08 263.05 289.48 219.87 264.56 212.69 268.73 206.48 272.34 201.62 275.17 165.91 295.91"/><polygon class="cls-17" points="182.88 295.89 219.89 274.38 330.26 338.11 293.26 359.62 182.88 295.89"/><polygon class="cls-16" points="293.27 369.45 293.23 383.33 165.87 309.8 165.91 295.91 293.27 369.45"/></g><path class="cls-14" d="M276.15,300.82c9,5.2,5.65,15.56-7.48,23.14s-31.09,9.52-40.09,4.32-5.66-15.56,7.48-23.14S267.14,295.62,276.15,300.82Z"/><g class="cls-1"><path class="cls-4" d="M292.07,306.22l-54,31.36-17.73-10.23-2.56-1.48-5.14-3,54-31.36,5.15,3,2.56,1.48Z"/><path class="cls-3" d="M238.09,337.58l0,13.89-17.7-10.21-2.57-1.5-5.17-3,0-13.89,5.13,3,2.57,1.48Z"/></g><path class="cls-10" d="M272.76,295.07l-54,31.36v13.91l-2.58-1.49V325s54-31.37,54-31.37Z"/><path class="cls-8" d="M218.79,326.43v13.91l-2.58-1.49V325S218.79,326.43,218.79,326.43Z"/><path class="cls-10" d="M288.17,304l-54,31.36v13.91l-2.57-1.49v-13.9l54-31.36Z"/><path class="cls-8" d="M234.2,335.33v13.91l-2.57-1.49v-13.9Z"/><path class="cls-14" d="M297.53,325.67c3,1.74,3,4.57,0,6.31a12.07,12.07,0,0,1-10.92,0c-3-1.74-3-4.57,0-6.31A12.07,12.07,0,0,1,297.53,325.67Z"/><path class="cls-14" d="M230.82,292.83c3,1.75,3,4.57,0,6.31a12.1,12.1,0,0,1-10.93,0c-3-1.74-3-4.56,0-6.31A12.1,12.1,0,0,1,230.82,292.83Z"/><polygon class="cls-14" points="267.73 328.22 293.97 343.37 298.05 341.01 271.81 325.87 267.73 328.22"/><polygon class="cls-14" points="264.28 332.53 284.96 344.47 288.17 342.62 267.49 330.68 264.28 332.53"/><path class="cls-18" d="M197.74,236.05H110.63v5.84c-.12,6.52,4.13,13.07,12.75,18.05,17,9.82,44.59,9.82,61.6,0,8.62-5,12.87-11.53,12.74-18.05C197.74,241.89,197.74,236.05,197.74,236.05Z"/><ellipse class="cls-19" cx="154.18" cy="236.05" rx="43.56" ry="25.15"/><path class="cls-18" d="M193.74,236c0,.32,0,.64,0,1-.41,5.09-4.18,10-10.71,13.9-7.64,4.56-17.86,7.07-28.81,7.07s-21.18-2.51-28.8-7.07c-6.53-3.91-10.31-8.81-10.72-13.9,0-.31,0-.63,0-1,0-5.41,3.82-10.68,10.76-14.83,7.62-4.57,17.85-7.07,28.8-7.07s21.17,2.5,28.81,7.07C189.93,225.36,193.74,230.63,193.74,236Z"/><path class="cls-19" d="M193.7,237c-.41,5.09-4.18,10-10.71,13.9-7.64,4.56-17.86,7.07-28.81,7.07s-21.18-2.51-28.8-7.07c-6.53-3.91-10.31-8.81-10.72-13.9.41-5.08,4.19-10,10.72-13.89,7.62-4.56,17.85-7.07,28.8-7.07s21.17,2.51,28.81,7.07C189.52,227,193.29,231.91,193.7,237Z"/><path class="cls-18" d="M172.31,248.13a26.75,26.75,0,0,1-5.25,2.15,32.06,32.06,0,0,1-5.07,1,20,20,0,0,1-4.28,0,6.77,6.77,0,0,1-2.8-.78,3,3,0,0,1-.79-.7,2,2,0,0,1-.4-.88,1.5,1.5,0,0,1,.1-.89,1.44,1.44,0,0,1,.67-.69,4.18,4.18,0,0,1,1.91-.38c.83,0,1.81-.05,2.95-.11a31,31,0,0,0,3.74-.45,17.81,17.81,0,0,0,4.27-1.39l-12.05-7.43c-1.65.42-3.34.82-5.05,1.19a29.5,29.5,0,0,1-5.19.67,22.55,22.55,0,0,1-5.18-.4,15.26,15.26,0,0,1-5-2,8.63,8.63,0,0,1-3.22-3,4.46,4.46,0,0,1-.52-3,5.91,5.91,0,0,1,1.57-2.87,17.26,17.26,0,0,1,3-2.56l-1.48-.92a.69.69,0,0,1-.39-.74,1.36,1.36,0,0,1,.8-.84,3.54,3.54,0,0,1,1.48-.39,2.38,2.38,0,0,1,1.35.23l1.4.87a28.41,28.41,0,0,1,3.18-1.46,29.52,29.52,0,0,1,3.6-1.17,15,15,0,0,1,3.35-.5,4.49,4.49,0,0,1,2.5.52,4,4,0,0,1,.73.62,2.3,2.3,0,0,1,.55.84,1.36,1.36,0,0,1,0,.89,1.47,1.47,0,0,1-.76.76,4.17,4.17,0,0,1-1.29.41l-1.88.33c-.71.13-1.52.32-2.42.57a18.75,18.75,0,0,0-2.87,1.08L154,233.09c1.61-.4,3.27-.75,5-1.07a30.37,30.37,0,0,1,5.23-.48,22.53,22.53,0,0,1,5.32.62,18.13,18.13,0,0,1,5.29,2.24q4.71,2.91,4.59,6t-4,5.87l1.74,1.07a.62.62,0,0,1,.3.79,1.48,1.48,0,0,1-.76.83,3.24,3.24,0,0,1-1.51.4,2.24,2.24,0,0,1-1.27-.28ZM139.82,233.8a7.29,7.29,0,0,0,2.28.94,10.76,10.76,0,0,0,2.48.23,18.14,18.14,0,0,0,2.67-.29c.93-.17,1.88-.37,2.85-.62l-9.33-5.75a6,6,0,0,0-2.5,2.83C138,232.1,138.49,233,139.82,233.8Zm30.08,3.91a9.63,9.63,0,0,0-5.06-1.5,25.27,25.27,0,0,0-5.5.57l10.82,6.66a4.19,4.19,0,0,0,1.89-2.92C172.08,239.55,171.37,238.62,169.9,237.71Z"/><path class="cls-18" d="M200.7,228.83H113.59v5.84c-.11,6.53,4.13,13.08,12.75,18.06,17,9.82,44.59,9.82,61.6,0,8.63-5,12.87-11.53,12.75-18.06C200.7,234.67,200.7,228.83,200.7,228.83Z"/><ellipse class="cls-19" cx="157.14" cy="228.84" rx="43.56" ry="25.15"/><path class="cls-18" d="M196.7,228.83c0,.32,0,.64,0,.95-.41,5.09-4.18,10-10.71,13.89-7.63,4.57-17.86,7.08-28.81,7.08s-21.17-2.51-28.8-7.08c-6.53-3.91-10.31-8.8-10.72-13.89,0-.31,0-.63,0-.95,0-5.41,3.82-10.68,10.76-14.83,7.63-4.57,17.86-7.08,28.8-7.08S178.32,209.43,186,214C192.89,218.15,196.7,223.42,196.7,228.83Z"/><path class="cls-19" d="M196.66,229.78c-.41,5.09-4.18,10-10.71,13.89-7.63,4.57-17.86,7.08-28.81,7.08s-21.17-2.51-28.8-7.08c-6.53-3.91-10.31-8.8-10.72-13.89.41-5.08,4.19-10,10.72-13.89,7.63-4.56,17.86-7.07,28.8-7.07s21.18,2.51,28.81,7.07C192.48,219.8,196.25,224.7,196.66,229.78Z"/><path class="cls-18" d="M175.27,240.91a25.5,25.5,0,0,1-5.24,2.15,30.25,30.25,0,0,1-5.08,1,19.37,19.37,0,0,1-4.28.06,7,7,0,0,1-2.8-.78,3,3,0,0,1-.79-.7,2,2,0,0,1-.4-.89,1.56,1.56,0,0,1,.1-.88,1.44,1.44,0,0,1,.68-.7,4.25,4.25,0,0,1,1.9-.37c.83,0,1.82-.06,2.95-.12a31,31,0,0,0,3.74-.45,17.38,17.38,0,0,0,4.27-1.39l-12-7.42c-1.65.42-3.33.81-5.05,1.19a30.47,30.47,0,0,1-5.19.67,21.93,21.93,0,0,1-5.17-.41,15.19,15.19,0,0,1-5-2,8.63,8.63,0,0,1-3.22-3,4.54,4.54,0,0,1-.52-3.05,5.93,5.93,0,0,1,1.57-2.86,17.34,17.34,0,0,1,3-2.56l-1.49-.92a.68.68,0,0,1-.38-.74c.05-.31.31-.59.79-.85a3.69,3.69,0,0,1,1.48-.38,2.3,2.3,0,0,1,1.35.23l1.4.86a27.87,27.87,0,0,1,3.19-1.45,29.39,29.39,0,0,1,3.59-1.17,15,15,0,0,1,3.35-.51,4.49,4.49,0,0,1,2.5.53,4.24,4.24,0,0,1,.74.61,2.41,2.41,0,0,1,.54.84,1.24,1.24,0,0,1,0,.89,1.45,1.45,0,0,1-.76.77,4.35,4.35,0,0,1-1.29.41l-1.88.33c-.71.13-1.52.32-2.42.56a19.14,19.14,0,0,0-2.87,1.08l10.41,6.42c1.61-.4,3.28-.76,5-1.07a29.41,29.41,0,0,1,5.23-.49,22.54,22.54,0,0,1,5.32.63,18,18,0,0,1,5.29,2.24q4.71,2.91,4.59,6t-4,5.87l1.74,1.07a.62.62,0,0,1,.3.79,1.48,1.48,0,0,1-.76.83,3.2,3.2,0,0,1-1.51.39,2.35,2.35,0,0,1-1.27-.27Zm-32.49-14.32a7.22,7.22,0,0,0,2.29.93,9.71,9.71,0,0,0,2.48.23,18.37,18.37,0,0,0,2.67-.28c.92-.17,1.87-.38,2.84-.62l-9.33-5.75a5.86,5.86,0,0,0-2.49,2.83C140.94,224.88,141.45,225.77,142.78,226.59Zm30.08,3.91A9.71,9.71,0,0,0,167.8,229a26.57,26.57,0,0,0-5.5.57l10.82,6.67a4.21,4.21,0,0,0,1.89-2.92C175.05,232.34,174.33,231.4,172.86,230.5Z"/><path class="cls-18" d="M197.74,220.84H110.63v5.84c-.12,6.52,4.13,13.07,12.75,18,17,9.82,44.59,9.82,61.6,0,8.62-5,12.87-11.53,12.74-18C197.74,226.68,197.74,220.84,197.74,220.84Z"/><ellipse class="cls-19" cx="154.18" cy="220.84" rx="43.56" ry="25.15"/><path class="cls-18" d="M193.74,220.84c0,.32,0,.63,0,.95-.41,5.08-4.18,10-10.71,13.89-7.64,4.57-17.86,7.07-28.81,7.07s-21.18-2.5-28.8-7.07c-6.53-3.91-10.31-8.81-10.72-13.89,0-.32,0-.63,0-.95,0-5.42,3.82-10.69,10.76-14.84,7.62-4.57,17.85-7.07,28.8-7.07s21.17,2.5,28.81,7.07C189.93,210.15,193.74,215.42,193.74,220.84Z"/><path class="cls-19" d="M193.7,221.79c-.41,5.08-4.18,10-10.71,13.89-7.64,4.57-17.86,7.07-28.81,7.07s-21.18-2.5-28.8-7.07c-6.53-3.91-10.31-8.81-10.72-13.89.41-5.09,4.19-10,10.72-13.9,7.62-4.56,17.85-7.07,28.8-7.07s21.17,2.51,28.81,7.07C189.52,211.81,193.29,216.7,193.7,221.79Z"/><path class="cls-18" d="M172.31,232.92a26.75,26.75,0,0,1-5.25,2.15,31,31,0,0,1-5.07,1,20,20,0,0,1-4.28,0,6.94,6.94,0,0,1-2.8-.77,3,3,0,0,1-.79-.71,2,2,0,0,1-.4-.88,1.5,1.5,0,0,1,.1-.89,1.48,1.48,0,0,1,.67-.69,4.31,4.31,0,0,1,1.91-.38c.83,0,1.81,0,2.95-.11a31,31,0,0,0,3.74-.45,17.81,17.81,0,0,0,4.27-1.39l-12.05-7.43c-1.65.42-3.34.82-5.05,1.19a29.5,29.5,0,0,1-5.19.67,22,22,0,0,1-5.18-.4,15.26,15.26,0,0,1-5-2,8.63,8.63,0,0,1-3.22-3,4.46,4.46,0,0,1-.52-3,6,6,0,0,1,1.57-2.87,17.69,17.69,0,0,1,3-2.56l-1.48-.92a.69.69,0,0,1-.39-.74c.06-.3.32-.58.8-.84a3.39,3.39,0,0,1,1.48-.38,2.22,2.22,0,0,1,1.35.23l1.4.86a28.41,28.41,0,0,1,3.18-1.46,29.52,29.52,0,0,1,3.6-1.17,15.54,15.54,0,0,1,3.35-.5,4.49,4.49,0,0,1,2.5.52,4,4,0,0,1,.73.62,2.3,2.3,0,0,1,.55.84,1.36,1.36,0,0,1,0,.89,1.47,1.47,0,0,1-.76.76,4.17,4.17,0,0,1-1.29.41l-1.88.33c-.71.13-1.52.32-2.42.57a18.75,18.75,0,0,0-2.87,1.08L154,217.88c1.61-.4,3.27-.75,5-1.07a30.37,30.37,0,0,1,5.23-.48,22.53,22.53,0,0,1,5.32.62,18.13,18.13,0,0,1,5.29,2.24q4.71,2.91,4.59,6t-4,5.87l1.74,1.07a.62.62,0,0,1,.3.79,1.48,1.48,0,0,1-.76.83,3.24,3.24,0,0,1-1.51.4,2.24,2.24,0,0,1-1.27-.28ZM139.82,218.6a7.51,7.51,0,0,0,2.28.93,10.23,10.23,0,0,0,2.48.23,18.14,18.14,0,0,0,2.67-.29c.93-.16,1.88-.37,2.85-.62l-9.33-5.75a6,6,0,0,0-2.5,2.83C138,216.89,138.49,217.77,139.82,218.6Zm30.08,3.9a9.63,9.63,0,0,0-5.06-1.5,25.27,25.27,0,0,0-5.5.57l10.82,6.66a4.19,4.19,0,0,0,1.89-2.92C172.08,224.35,171.37,223.41,169.9,222.5Z"/><path class="cls-18" d="M197.74,213.23H110.63v5.84c-.12,6.53,4.13,13.08,12.75,18.06,17,9.82,44.59,9.82,61.6,0,8.62-5,12.87-11.53,12.74-18.06C197.74,219.07,197.74,213.23,197.74,213.23Z"/><ellipse class="cls-19" cx="154.18" cy="213.23" rx="43.56" ry="25.15"/><path class="cls-18" d="M193.74,213.23c0,.32,0,.64,0,1-.41,5.09-4.18,10-10.71,13.89-7.64,4.57-17.86,7.08-28.81,7.08s-21.18-2.51-28.8-7.08c-6.53-3.91-10.31-8.8-10.72-13.89,0-.31,0-.63,0-1,0-5.41,3.82-10.68,10.76-14.83,7.62-4.57,17.85-7.08,28.8-7.08s21.17,2.51,28.81,7.08C189.93,202.55,193.74,207.82,193.74,213.23Z"/><path class="cls-19" d="M193.7,214.18c-.41,5.09-4.18,10-10.71,13.89-7.64,4.57-17.86,7.08-28.81,7.08s-21.18-2.51-28.8-7.08c-6.53-3.91-10.31-8.8-10.72-13.89.41-5.08,4.19-10,10.72-13.89,7.62-4.56,17.85-7.08,28.8-7.08s21.17,2.52,28.81,7.08C189.52,204.2,193.29,209.1,193.7,214.18Z"/><path class="cls-18" d="M172.31,225.31a25.58,25.58,0,0,1-5.25,2.15,30,30,0,0,1-5.07,1,20,20,0,0,1-4.28.06,6.93,6.93,0,0,1-2.8-.78,3,3,0,0,1-.79-.7,2,2,0,0,1-.4-.89,1.48,1.48,0,0,1,.1-.88,1.46,1.46,0,0,1,.67-.7,4.33,4.33,0,0,1,1.91-.37c.83,0,1.81-.06,2.95-.12a31,31,0,0,0,3.74-.45,17.38,17.38,0,0,0,4.27-1.39l-12.05-7.42c-1.65.41-3.34.81-5.05,1.19a30.47,30.47,0,0,1-5.19.67,22,22,0,0,1-5.18-.41,15.23,15.23,0,0,1-5-2,8.63,8.63,0,0,1-3.22-3,4.49,4.49,0,0,1-.52-3.05,5.93,5.93,0,0,1,1.57-2.86,17.26,17.26,0,0,1,3-2.56l-1.48-.92a.7.7,0,0,1-.39-.74c.06-.31.32-.59.8-.85a3.69,3.69,0,0,1,1.48-.38,2.3,2.3,0,0,1,1.35.23l1.4.86a28.48,28.48,0,0,1,3.18-1.45,31.45,31.45,0,0,1,3.6-1.18,15.54,15.54,0,0,1,3.35-.5,4.49,4.49,0,0,1,2.5.53,3.87,3.87,0,0,1,.73.61,2.3,2.3,0,0,1,.55.84,1.36,1.36,0,0,1,0,.89,1.48,1.48,0,0,1-.76.77,4.18,4.18,0,0,1-1.29.4l-1.88.34c-.71.13-1.52.32-2.42.56a18.75,18.75,0,0,0-2.87,1.08L154,210.28q2.42-.6,5-1.07a29.41,29.41,0,0,1,5.23-.49,22.54,22.54,0,0,1,5.32.63,18.13,18.13,0,0,1,5.29,2.24q4.71,2.91,4.59,6t-4,5.87l1.74,1.07a.62.62,0,0,1,.3.79,1.51,1.51,0,0,1-.76.83,3.36,3.36,0,0,1-1.51.39,2.33,2.33,0,0,1-1.27-.27ZM139.82,211a7.51,7.51,0,0,0,2.28.93,9.76,9.76,0,0,0,2.48.23,18.08,18.08,0,0,0,2.67-.28c.93-.17,1.88-.38,2.85-.62l-9.33-5.75a5.94,5.94,0,0,0-2.5,2.83C138,209.28,138.49,210.17,139.82,211Zm30.08,3.91a9.74,9.74,0,0,0-5.06-1.51,26.57,26.57,0,0,0-5.5.57l10.82,6.67a4.21,4.21,0,0,0,1.89-2.92C172.08,216.74,171.37,215.8,169.9,214.9Z"/><path class="cls-18" d="M198.78,205.76H111.67v5.84c-.11,6.52,4.13,13.07,12.75,18.05,17,9.82,44.59,9.82,61.6,0,8.63-5,12.87-11.53,12.75-18.05C198.78,211.6,198.78,205.76,198.78,205.76Z"/><ellipse class="cls-19" cx="155.22" cy="205.76" rx="43.56" ry="25.15"/><path class="cls-18" d="M194.78,205.76c0,.31,0,.63,0,1-.41,5.08-4.18,10-10.71,13.89-7.63,4.57-17.86,7.07-28.81,7.07s-21.17-2.5-28.8-7.07c-6.53-3.91-10.31-8.81-10.72-13.89,0-.32,0-.64,0-1,0-5.42,3.82-10.69,10.76-14.84,7.63-4.57,17.85-7.07,28.8-7.07s21.18,2.5,28.81,7.07C191,195.07,194.78,200.34,194.78,205.76Z"/><path class="cls-19" d="M194.74,206.71c-.41,5.08-4.18,10-10.71,13.89-7.63,4.57-17.86,7.07-28.81,7.07s-21.17-2.5-28.8-7.07c-6.53-3.91-10.31-8.81-10.72-13.89.41-5.09,4.19-10,10.72-13.9,7.63-4.56,17.85-7.07,28.8-7.07s21.18,2.51,28.81,7.07C190.56,196.73,194.33,201.62,194.74,206.71Z"/><path class="cls-18" d="M173.35,217.84a26.92,26.92,0,0,1-5.24,2.15,31.29,31.29,0,0,1-5.08,1,20,20,0,0,1-4.28.05,7,7,0,0,1-2.8-.77,3,3,0,0,1-.79-.71,2,2,0,0,1-.4-.88,1.5,1.5,0,0,1,.1-.89,1.48,1.48,0,0,1,.67-.69,4.18,4.18,0,0,1,1.91-.38c.83,0,1.82-.05,2.95-.11a31,31,0,0,0,3.74-.45,17.81,17.81,0,0,0,4.27-1.39l-12.05-7.43q-2.47.63-5,1.19a29.5,29.5,0,0,1-5.19.67,22,22,0,0,1-5.18-.4,15.26,15.26,0,0,1-5-2,8.63,8.63,0,0,1-3.22-3,4.52,4.52,0,0,1-.52-3,6,6,0,0,1,1.57-2.87,17.78,17.78,0,0,1,3-2.56l-1.49-.92a.67.67,0,0,1-.38-.74c0-.3.31-.58.79-.84a3.39,3.39,0,0,1,1.48-.38,2.31,2.31,0,0,1,1.35.22l1.4.87A28.41,28.41,0,0,1,143.1,192a30.09,30.09,0,0,1,3.6-1.17,15.54,15.54,0,0,1,3.35-.5,4.49,4.49,0,0,1,2.5.52,4.34,4.34,0,0,1,.74.62,2.41,2.41,0,0,1,.54.84,1.3,1.3,0,0,1,0,.89,1.47,1.47,0,0,1-.76.76,4.08,4.08,0,0,1-1.29.41l-1.88.33c-.71.13-1.52.32-2.42.57a19.14,19.14,0,0,0-2.87,1.08L155,202.8c1.61-.4,3.28-.75,5-1.07a30.37,30.37,0,0,1,5.23-.48,22.53,22.53,0,0,1,5.32.62,18.13,18.13,0,0,1,5.29,2.24q4.71,2.91,4.59,6t-4,5.87l1.74,1.07a.62.62,0,0,1,.3.79,1.48,1.48,0,0,1-.76.83,3.21,3.21,0,0,1-1.51.4,2.24,2.24,0,0,1-1.27-.28Zm-32.49-14.32a7.46,7.46,0,0,0,2.29.93,10.19,10.19,0,0,0,2.48.23,18.43,18.43,0,0,0,2.67-.29c.92-.17,1.87-.37,2.84-.62L141.81,198a5.9,5.9,0,0,0-2.49,2.83C139,201.81,139.53,202.69,140.86,203.52Zm30.08,3.9a9.61,9.61,0,0,0-5.06-1.5,25.27,25.27,0,0,0-5.5.57l10.82,6.66a4.19,4.19,0,0,0,1.89-2.92C173.12,209.26,172.41,208.33,170.94,207.42Z"/><path class="cls-18" d="M200.7,197.76H113.59v5.84c-.12,6.53,4.13,13.08,12.75,18.06,17,9.82,44.59,9.82,61.6,0,8.63-5,12.87-11.53,12.75-18.06C200.7,203.6,200.7,197.76,200.7,197.76Z"/><ellipse class="cls-19" cx="157.14" cy="197.76" rx="43.56" ry="25.15"/><path class="cls-18" d="M196.7,197.76c0,.32,0,.64,0,1-.41,5.09-4.18,10-10.71,13.89-7.64,4.57-17.86,7.08-28.81,7.08s-21.17-2.51-28.8-7.08c-6.53-3.91-10.31-8.8-10.72-13.89,0-.31,0-.63,0-1,0-5.41,3.82-10.68,10.76-14.84,7.63-4.56,17.85-7.07,28.8-7.07s21.17,2.51,28.81,7.07C192.89,187.08,196.7,192.35,196.7,197.76Z"/><path class="cls-19" d="M196.66,198.71c-.41,5.09-4.18,10-10.71,13.89-7.64,4.57-17.86,7.08-28.81,7.08s-21.17-2.51-28.8-7.08c-6.53-3.91-10.31-8.8-10.72-13.89.41-5.09,4.19-10,10.72-13.89,7.63-4.56,17.85-7.08,28.8-7.08s21.17,2.52,28.81,7.08C192.48,188.73,196.25,193.62,196.66,198.71Z"/><path class="cls-18" d="M175.27,209.84A26.15,26.15,0,0,1,170,212a30,30,0,0,1-5.07,1,20.68,20.68,0,0,1-4.28.06,6.93,6.93,0,0,1-2.8-.78,3,3,0,0,1-.79-.71,2,2,0,0,1-.4-.88,1.51,1.51,0,0,1,.1-.89,1.48,1.48,0,0,1,.67-.69,4.31,4.31,0,0,1,1.91-.38c.83,0,1.82-.05,2.95-.11a31,31,0,0,0,3.74-.45,17.38,17.38,0,0,0,4.27-1.39l-12-7.43q-2.47.63-5.05,1.2a29.49,29.49,0,0,1-5.19.66,22,22,0,0,1-5.18-.4,15.23,15.23,0,0,1-5-2,8.57,8.57,0,0,1-3.22-3,4.51,4.51,0,0,1-.52-3,5.89,5.89,0,0,1,1.57-2.86,17.67,17.67,0,0,1,3-2.57l-1.48-.91a.68.68,0,0,1-.38-.74c.05-.31.31-.59.79-.85a3.69,3.69,0,0,1,1.48-.38,2.3,2.3,0,0,1,1.35.23l1.4.86A30.32,30.32,0,0,1,145,184a33.44,33.44,0,0,1,3.6-1.17,15.54,15.54,0,0,1,3.35-.5,4.49,4.49,0,0,1,2.5.53,4.24,4.24,0,0,1,.74.61,2.41,2.41,0,0,1,.54.84,1.3,1.3,0,0,1,0,.89,1.48,1.48,0,0,1-.76.77,4.18,4.18,0,0,1-1.29.4l-1.88.33c-.71.13-1.52.32-2.42.57a19.14,19.14,0,0,0-2.87,1.08l10.41,6.42c1.61-.4,3.28-.76,5-1.07a29.41,29.41,0,0,1,5.23-.49,22.53,22.53,0,0,1,5.32.62,18.16,18.16,0,0,1,5.29,2.25q4.71,2.91,4.59,6t-4,5.86l1.74,1.08a.62.62,0,0,1,.3.79,1.46,1.46,0,0,1-.76.82,3.24,3.24,0,0,1-1.51.4,2.33,2.33,0,0,1-1.27-.27Zm-32.49-14.32a7.51,7.51,0,0,0,2.28.93,9.83,9.83,0,0,0,2.49.23,16.88,16.88,0,0,0,2.66-.29c.93-.16,1.88-.37,2.85-.62L143.73,190a5.92,5.92,0,0,0-2.49,2.84C140.93,193.81,141.45,194.7,142.78,195.52Zm30.08,3.9a9.7,9.7,0,0,0-5.06-1.5,26.57,26.57,0,0,0-5.5.57l10.82,6.67a4.21,4.21,0,0,0,1.89-2.92C175,201.27,174.33,200.33,172.86,199.42Z"/><path class="cls-18" d="M195.87,189.71H108.76v5.84c-.12,6.52,4.13,13.07,12.75,18,17,9.82,44.59,9.82,61.6,0,8.63-5,12.87-11.53,12.75-18C195.87,195.55,195.87,189.71,195.87,189.71Z"/><ellipse class="cls-19" cx="152.31" cy="189.71" rx="43.56" ry="25.15"/><path class="cls-18" d="M191.87,189.71c0,.31,0,.63,0,.95-.41,5.08-4.18,10-10.71,13.89-7.64,4.57-17.86,7.07-28.81,7.07s-21.17-2.5-28.8-7.07c-6.53-3.91-10.31-8.81-10.72-13.89,0-.32,0-.64,0-.95,0-5.42,3.82-10.69,10.76-14.84,7.63-4.57,17.85-7.07,28.8-7.07s21.17,2.5,28.81,7.07C188.06,179,191.87,184.29,191.87,189.71Z"/><path class="cls-19" d="M191.83,190.66c-.41,5.08-4.18,10-10.71,13.89-7.64,4.57-17.86,7.07-28.81,7.07s-21.17-2.5-28.8-7.07c-6.53-3.91-10.31-8.81-10.72-13.89.41-5.09,4.19-10,10.72-13.9,7.63-4.56,17.85-7.07,28.8-7.07s21.17,2.51,28.81,7.07C187.65,180.68,191.42,185.57,191.83,190.66Z"/><path class="cls-18" d="M170.44,201.79a26.75,26.75,0,0,1-5.25,2.15,32.06,32.06,0,0,1-5.07,1,20,20,0,0,1-4.28,0,6.94,6.94,0,0,1-2.8-.77,3,3,0,0,1-.79-.71,2,2,0,0,1-.4-.88,1.5,1.5,0,0,1,.1-.89,1.44,1.44,0,0,1,.67-.69,4.18,4.18,0,0,1,1.91-.38c.83,0,1.82-.05,2.95-.11a31,31,0,0,0,3.74-.45,17.81,17.81,0,0,0,4.27-1.39l-12.05-7.43q-2.48.63-5.05,1.19a29.5,29.5,0,0,1-5.19.67,22,22,0,0,1-5.18-.4,15.26,15.26,0,0,1-5-2,8.63,8.63,0,0,1-3.22-3,4.52,4.52,0,0,1-.52-3,6,6,0,0,1,1.57-2.87,17.63,17.63,0,0,1,3-2.56l-1.48-.92a.67.67,0,0,1-.38-.74c0-.3.31-.58.79-.84a3.39,3.39,0,0,1,1.48-.38,2.31,2.31,0,0,1,1.35.22l1.4.87a28.41,28.41,0,0,1,3.18-1.46,30.09,30.09,0,0,1,3.6-1.17,15.54,15.54,0,0,1,3.35-.5,4.49,4.49,0,0,1,2.5.52,4.34,4.34,0,0,1,.74.62,2.41,2.41,0,0,1,.54.84,1.3,1.3,0,0,1,0,.89,1.47,1.47,0,0,1-.76.76,4.17,4.17,0,0,1-1.29.41l-1.88.33c-.71.13-1.52.32-2.42.57a19.14,19.14,0,0,0-2.87,1.08l10.41,6.41c1.61-.4,3.28-.75,5-1.07a30.37,30.37,0,0,1,5.23-.48,22.53,22.53,0,0,1,5.32.62,18.13,18.13,0,0,1,5.29,2.24q4.71,2.91,4.59,6t-4,5.87l1.74,1.07a.62.62,0,0,1,.3.79,1.48,1.48,0,0,1-.76.83,3.24,3.24,0,0,1-1.51.4,2.24,2.24,0,0,1-1.27-.28ZM138,187.47a7.51,7.51,0,0,0,2.28.93,10.31,10.31,0,0,0,2.49.23,18.15,18.15,0,0,0,2.66-.29c.93-.17,1.88-.37,2.85-.62L138.9,182a5.9,5.9,0,0,0-2.49,2.83C136.1,185.76,136.62,186.64,138,187.47Zm30.08,3.9a9.61,9.61,0,0,0-5.06-1.5,25.27,25.27,0,0,0-5.5.57l10.82,6.66a4.19,4.19,0,0,0,1.89-2.92C170.21,193.21,169.5,192.28,168,191.37Z"/><path class="cls-18" d="M198.83,182.5H111.72v5.83c-.11,6.53,4.13,13.08,12.76,18.06,17,9.82,44.58,9.82,61.59,0,8.63-5,12.87-11.53,12.75-18.06C198.83,188.33,198.83,182.5,198.83,182.5Z"/><ellipse class="cls-19" cx="155.27" cy="182.5" rx="43.56" ry="25.15"/><path class="cls-18" d="M194.83,182.49c0,.32,0,.64,0,.95-.41,5.09-4.18,10-10.71,13.9-7.63,4.56-17.86,7.07-28.81,7.07s-21.17-2.51-28.8-7.07c-6.53-3.92-10.3-8.81-10.72-13.9,0-.31,0-.63,0-.95,0-5.41,3.82-10.68,10.76-14.83,7.63-4.57,17.86-7.08,28.8-7.08s21.18,2.51,28.81,7.08C191,171.81,194.83,177.08,194.83,182.49Z"/><path class="cls-19" d="M194.79,183.44c-.41,5.09-4.18,10-10.71,13.9-7.63,4.56-17.86,7.07-28.81,7.07s-21.17-2.51-28.8-7.07c-6.53-3.92-10.3-8.81-10.72-13.9.42-5.08,4.19-10,10.72-13.89,7.63-4.56,17.86-7.07,28.8-7.07s21.18,2.51,28.81,7.07C190.61,173.46,194.38,178.36,194.79,183.44Z"/><path class="cls-18" d="M173.4,194.57a25.5,25.5,0,0,1-5.24,2.15,31.15,31.15,0,0,1-5.08,1,20,20,0,0,1-4.28.05A7,7,0,0,1,156,197a3,3,0,0,1-.79-.7,2,2,0,0,1-.4-.89,1.56,1.56,0,0,1,.1-.88,1.44,1.44,0,0,1,.68-.7,4.25,4.25,0,0,1,1.9-.37c.83,0,1.82-.06,2.95-.12a31,31,0,0,0,3.74-.45,17.38,17.38,0,0,0,4.27-1.39l-12-7.42c-1.65.42-3.33.81-5.05,1.19a29.5,29.5,0,0,1-5.19.67,21.93,21.93,0,0,1-5.17-.41,15.07,15.07,0,0,1-5-2,8.63,8.63,0,0,1-3.22-3,4.53,4.53,0,0,1-.52-3.05,5.93,5.93,0,0,1,1.57-2.86,17.34,17.34,0,0,1,3-2.56l-1.49-.92a.68.68,0,0,1-.38-.74c.05-.31.31-.59.79-.84a3.54,3.54,0,0,1,1.48-.39,2.3,2.3,0,0,1,1.35.23l1.4.86a29.71,29.71,0,0,1,3.19-1.45,29.39,29.39,0,0,1,3.59-1.17,15,15,0,0,1,3.35-.5,4.49,4.49,0,0,1,2.5.52,3.9,3.9,0,0,1,.74.61,2.41,2.41,0,0,1,.54.84,1.24,1.24,0,0,1,0,.89,1.46,1.46,0,0,1-.75.77,4.53,4.53,0,0,1-1.3.41l-1.88.33c-.71.13-1.52.32-2.42.57a18.37,18.37,0,0,0-2.87,1.07l10.41,6.42c1.61-.4,3.28-.76,5-1.07a28.51,28.51,0,0,1,5.23-.48,22.53,22.53,0,0,1,5.32.62,18,18,0,0,1,5.29,2.24q4.72,2.91,4.59,6t-4,5.87l1.74,1.07a.62.62,0,0,1,.3.79,1.48,1.48,0,0,1-.76.83,3.2,3.2,0,0,1-1.51.39,2.35,2.35,0,0,1-1.27-.27Zm-32.48-14.32a7.08,7.08,0,0,0,2.28.93,9.71,9.71,0,0,0,2.48.23,18.37,18.37,0,0,0,2.67-.28c.93-.17,1.88-.37,2.84-.62l-9.33-5.75a5.9,5.9,0,0,0-2.49,2.83C139.07,178.54,139.58,179.43,140.92,180.25ZM171,184.16a9.71,9.71,0,0,0-5.06-1.51,26.57,26.57,0,0,0-5.5.57l10.82,6.67a4.21,4.21,0,0,0,1.89-2.92C173.18,186,172.46,185.06,171,184.16Z"/><path class="cls-18" d="M195.87,174.5H108.76v5.84c-.12,6.53,4.13,13.07,12.75,18,17,9.82,44.59,9.82,61.6,0,8.63-5,12.87-11.52,12.75-18C195.87,180.34,195.87,174.5,195.87,174.5Z"/><ellipse class="cls-19" cx="152.31" cy="174.5" rx="43.56" ry="25.15"/><path class="cls-18" d="M191.87,174.5c0,.32,0,.64,0,.95-.41,5.08-4.18,10-10.71,13.89-7.64,4.57-17.86,7.07-28.81,7.07s-21.17-2.5-28.8-7.07c-6.53-3.91-10.31-8.81-10.72-13.89,0-.31,0-.63,0-.95,0-5.42,3.82-10.69,10.76-14.84,7.63-4.57,17.85-7.07,28.8-7.07s21.17,2.5,28.81,7.07C188.06,163.81,191.87,169.08,191.87,174.5Z"/><path class="cls-19" d="M191.83,175.45c-.41,5.08-4.18,10-10.71,13.89-7.64,4.57-17.86,7.07-28.81,7.07s-21.17-2.5-28.8-7.07c-6.53-3.91-10.31-8.81-10.72-13.89.41-5.09,4.19-10,10.72-13.9,7.63-4.55,17.85-7.07,28.8-7.07s21.17,2.52,28.81,7.07C187.65,165.47,191.42,170.36,191.83,175.45Z"/><path class="cls-18" d="M170.44,186.58a26.75,26.75,0,0,1-5.25,2.15,30,30,0,0,1-5.07,1,20,20,0,0,1-4.28.05A6.79,6.79,0,0,1,153,189a3,3,0,0,1-.79-.71,2,2,0,0,1-.4-.88,1.51,1.51,0,0,1,.1-.89,1.48,1.48,0,0,1,.67-.69,4.31,4.31,0,0,1,1.91-.38c.83,0,1.82,0,2.95-.11a31,31,0,0,0,3.74-.45,17.81,17.81,0,0,0,4.27-1.39l-12.05-7.43q-2.48.63-5.05,1.19a29.5,29.5,0,0,1-5.19.67,22,22,0,0,1-5.18-.4,15.26,15.26,0,0,1-5-2,8.63,8.63,0,0,1-3.22-3,4.51,4.51,0,0,1-.52-3,6,6,0,0,1,1.57-2.87,18.09,18.09,0,0,1,3-2.56l-1.48-.91a.68.68,0,0,1-.38-.75c0-.3.31-.58.79-.84a3.39,3.39,0,0,1,1.48-.38,2.22,2.22,0,0,1,1.35.23l1.4.86a28.41,28.41,0,0,1,3.18-1.46,30.09,30.09,0,0,1,3.6-1.17,15.54,15.54,0,0,1,3.35-.5,4.49,4.49,0,0,1,2.5.52,4.34,4.34,0,0,1,.74.62,2.41,2.41,0,0,1,.54.84,1.3,1.3,0,0,1,0,.89,1.52,1.52,0,0,1-.76.77,4.47,4.47,0,0,1-1.29.4l-1.88.33c-.71.13-1.52.32-2.42.57a19.14,19.14,0,0,0-2.87,1.08l10.41,6.41c1.61-.4,3.28-.75,5-1.07a30.37,30.37,0,0,1,5.23-.48,22.53,22.53,0,0,1,5.32.62,18.13,18.13,0,0,1,5.29,2.24q4.71,2.91,4.59,6c-.08,2.09-1.41,4-4,5.87l1.74,1.08a.61.61,0,0,1,.3.78,1.48,1.48,0,0,1-.76.83,3.24,3.24,0,0,1-1.51.4,2.33,2.33,0,0,1-1.27-.27ZM138,172.26a7.51,7.51,0,0,0,2.28.93,10.31,10.31,0,0,0,2.49.23,18.15,18.15,0,0,0,2.66-.29c.93-.16,1.88-.37,2.85-.62l-9.33-5.75a6,6,0,0,0-2.49,2.83C136.1,170.55,136.62,171.44,138,172.26Zm30.08,3.9a9.61,9.61,0,0,0-5.06-1.5,25.9,25.9,0,0,0-5.5.57l10.82,6.67a4.22,4.22,0,0,0,1.89-2.93C170.21,178,169.5,177.07,168,176.16Z"/><path class="cls-18" d="M195.87,166.9H108.76v5.83c-.12,6.53,4.13,13.08,12.75,18.06,17,9.82,44.59,9.82,61.6,0,8.63-5,12.87-11.53,12.75-18.06C195.87,172.73,195.87,166.9,195.87,166.9Z"/><ellipse class="cls-19" cx="152.31" cy="166.9" rx="43.56" ry="25.15"/><path class="cls-18" d="M191.87,166.89c0,.32,0,.64,0,1-.41,5.09-4.18,10-10.71,13.9-7.64,4.56-17.86,7.07-28.81,7.07s-21.17-2.51-28.8-7.07c-6.53-3.92-10.31-8.81-10.72-13.9,0-.31,0-.63,0-1,0-5.41,3.82-10.68,10.76-14.83,7.63-4.57,17.85-7.08,28.8-7.08s21.17,2.51,28.81,7.08C188.06,156.21,191.87,161.48,191.87,166.89Z"/><path class="cls-19" d="M191.83,167.84c-.41,5.09-4.18,10-10.71,13.9-7.64,4.56-17.86,7.07-28.81,7.07s-21.17-2.51-28.8-7.07c-6.53-3.92-10.31-8.81-10.72-13.9.41-5.08,4.19-10,10.72-13.89,7.63-4.56,17.85-7.07,28.8-7.07s21.17,2.51,28.81,7.07C187.65,157.86,191.42,162.76,191.83,167.84Z"/><path class="cls-18" d="M170.44,179a25.58,25.58,0,0,1-5.25,2.15,30,30,0,0,1-5.07,1,19.37,19.37,0,0,1-4.28.06,6.93,6.93,0,0,1-2.8-.78,3,3,0,0,1-.79-.7,2,2,0,0,1-.4-.89,1.48,1.48,0,0,1,.1-.88,1.46,1.46,0,0,1,.67-.7,4.33,4.33,0,0,1,1.91-.37c.83,0,1.82-.06,2.95-.12a31,31,0,0,0,3.74-.45,17.38,17.38,0,0,0,4.27-1.39l-12.05-7.42c-1.65.42-3.33.81-5.05,1.19a29.5,29.5,0,0,1-5.19.67A22.05,22.05,0,0,1,138,170a15,15,0,0,1-5-2,8.63,8.63,0,0,1-3.22-3,4.53,4.53,0,0,1-.52-3.05,5.93,5.93,0,0,1,1.57-2.86,17.63,17.63,0,0,1,3-2.56l-1.48-.92a.68.68,0,0,1-.38-.74c0-.31.31-.59.79-.84a3.54,3.54,0,0,1,1.48-.39,2.3,2.3,0,0,1,1.35.23l1.4.86a28.48,28.48,0,0,1,3.18-1.45,30.09,30.09,0,0,1,3.6-1.17,15.59,15.59,0,0,1,3.35-.51,4.49,4.49,0,0,1,2.5.53,4.24,4.24,0,0,1,.74.61,2.41,2.41,0,0,1,.54.84,1.3,1.3,0,0,1,0,.89,1.48,1.48,0,0,1-.76.77,4.45,4.45,0,0,1-1.29.41l-1.88.33c-.71.13-1.52.32-2.42.56a19.14,19.14,0,0,0-2.87,1.08l10.41,6.42c1.61-.4,3.28-.76,5-1.07a28.51,28.51,0,0,1,5.23-.48,22,22,0,0,1,5.32.62,18.13,18.13,0,0,1,5.29,2.24q4.71,2.91,4.59,6t-4,5.87l1.74,1.07a.62.62,0,0,1,.3.79,1.51,1.51,0,0,1-.76.83,3.23,3.23,0,0,1-1.51.39A2.33,2.33,0,0,1,172,180ZM138,164.65a7.26,7.26,0,0,0,2.28.93,9.83,9.83,0,0,0,2.49.23,18.09,18.09,0,0,0,2.66-.28c.93-.17,1.88-.38,2.85-.62l-9.33-5.75a5.86,5.86,0,0,0-2.49,2.83C136.1,162.94,136.62,163.83,138,164.65ZM168,168.56a9.71,9.71,0,0,0-5.06-1.51,26.57,26.57,0,0,0-5.5.57l10.82,6.67a4.21,4.21,0,0,0,1.89-2.92C170.21,170.4,169.5,169.46,168,168.56Z"/><path class="cls-18" d="M196.91,159.42H109.8v5.84c-.11,6.52,4.13,13.07,12.75,18.05,17,9.82,44.59,9.82,61.6,0,8.63-5,12.87-11.53,12.75-18.05C196.91,165.26,196.91,159.42,196.91,159.42Z"/><ellipse class="cls-19" cx="153.35" cy="159.42" rx="43.56" ry="25.15"/><path class="cls-18" d="M192.91,159.42c0,.32,0,.63,0,1-.41,5.08-4.18,10-10.71,13.89-7.63,4.57-17.86,7.07-28.81,7.07s-21.17-2.5-28.8-7.07c-6.53-3.91-10.31-8.81-10.72-13.89,0-.32,0-.63,0-1,0-5.42,3.82-10.69,10.76-14.84,7.63-4.57,17.86-7.07,28.8-7.07s21.18,2.5,28.81,7.07C189.1,148.73,192.91,154,192.91,159.42Z"/><path class="cls-19" d="M192.87,160.37c-.41,5.08-4.18,10-10.71,13.89-7.63,4.57-17.86,7.07-28.81,7.07s-21.17-2.5-28.8-7.07c-6.53-3.91-10.31-8.81-10.72-13.89.41-5.09,4.19-10,10.72-13.9,7.63-4.56,17.86-7.07,28.8-7.07s21.18,2.51,28.81,7.07C188.69,150.39,192.46,155.28,192.87,160.37Z"/><path class="cls-18" d="M171.48,171.5a26.67,26.67,0,0,1-5.24,2.15,30.25,30.25,0,0,1-5.08,1,20,20,0,0,1-4.28.05,6.83,6.83,0,0,1-2.8-.77,3,3,0,0,1-.79-.71,2,2,0,0,1-.4-.88,1.58,1.58,0,0,1,.1-.89,1.46,1.46,0,0,1,.68-.69,4.23,4.23,0,0,1,1.9-.38c.83,0,1.82-.05,3-.11a31,31,0,0,0,3.74-.45,17.81,17.81,0,0,0,4.27-1.39L154.48,161q-2.47.63-5,1.19a29.5,29.5,0,0,1-5.19.67,21.92,21.92,0,0,1-5.17-.4,15.31,15.31,0,0,1-5-2,8.63,8.63,0,0,1-3.22-3,4.51,4.51,0,0,1-.52-3,6,6,0,0,1,1.57-2.87,17.78,17.78,0,0,1,3-2.56l-1.49-.92a.67.67,0,0,1-.38-.74c.05-.3.31-.58.79-.84a3.39,3.39,0,0,1,1.48-.38,2.22,2.22,0,0,1,1.35.23l1.4.86a27.8,27.8,0,0,1,3.19-1.46,29.39,29.39,0,0,1,3.59-1.17,15.54,15.54,0,0,1,3.35-.5,4.49,4.49,0,0,1,2.5.52,4,4,0,0,1,.74.62,2.41,2.41,0,0,1,.54.84,1.24,1.24,0,0,1,0,.89,1.43,1.43,0,0,1-.76.76,4.08,4.08,0,0,1-1.29.41l-1.88.33c-.71.13-1.52.32-2.42.57a19.14,19.14,0,0,0-2.87,1.08l10.41,6.41c1.61-.4,3.28-.75,5-1.07a30.37,30.37,0,0,1,5.23-.48,22.53,22.53,0,0,1,5.32.62,18,18,0,0,1,5.29,2.24q4.71,2.91,4.59,6c-.08,2.09-1.41,4-4,5.87l1.74,1.08a.61.61,0,0,1,.3.78,1.45,1.45,0,0,1-.76.83,3.21,3.21,0,0,1-1.51.4,2.35,2.35,0,0,1-1.27-.27ZM139,157.18a7.46,7.46,0,0,0,2.29.93,10.19,10.19,0,0,0,2.48.23,18.43,18.43,0,0,0,2.67-.29c.93-.16,1.87-.37,2.84-.62l-9.33-5.75a5.9,5.9,0,0,0-2.49,2.83C137.15,155.47,137.66,156.35,139,157.18Zm30.08,3.9a9.61,9.61,0,0,0-5.06-1.5,25.9,25.9,0,0,0-5.5.57l10.82,6.67a4.22,4.22,0,0,0,1.89-2.93C171.26,162.93,170.54,162,169.07,161.08Z"/><path class="cls-18" d="M198.83,151.42H111.72v5.84c-.11,6.53,4.13,13.08,12.75,18.06,17,9.82,44.59,9.82,61.6,0,8.63-5,12.87-11.53,12.75-18.06C198.83,157.26,198.83,151.42,198.83,151.42Z"/><ellipse class="cls-19" cx="155.27" cy="151.42" rx="43.56" ry="25.15"/><path class="cls-18" d="M194.83,151.42c0,.32,0,.64,0,1-.41,5.09-4.18,10-10.71,13.89-7.63,4.57-17.86,7.08-28.81,7.08s-21.17-2.51-28.8-7.08c-6.53-3.91-10.31-8.8-10.72-13.89,0-.31,0-.63,0-1,0-5.41,3.82-10.68,10.76-14.83,7.63-4.57,17.85-7.08,28.8-7.08s21.18,2.51,28.81,7.08C191,140.74,194.83,146,194.83,151.42Z"/><path class="cls-19" d="M194.79,152.37c-.41,5.09-4.18,10-10.71,13.89-7.63,4.57-17.86,7.08-28.81,7.08s-21.17-2.51-28.8-7.08c-6.53-3.91-10.31-8.8-10.72-13.89.41-5.09,4.19-10,10.72-13.89,7.63-4.56,17.85-7.08,28.8-7.08s21.18,2.52,28.81,7.08C190.61,142.39,194.38,147.28,194.79,152.37Z"/><path class="cls-18" d="M173.4,163.5a25.5,25.5,0,0,1-5.24,2.15,30.25,30.25,0,0,1-5.08,1,20,20,0,0,1-4.28.06A7,7,0,0,1,156,166a2.82,2.82,0,0,1-.79-.71,2,2,0,0,1-.4-.88,1.59,1.59,0,0,1,.1-.89,1.46,1.46,0,0,1,.68-.69,4.37,4.37,0,0,1,1.9-.38c.83,0,1.82-.05,2.95-.11a31,31,0,0,0,3.74-.45,17.38,17.38,0,0,0,4.27-1.39l-12-7.42q-2.47.61-5.05,1.19a30.47,30.47,0,0,1-5.19.67,22.47,22.47,0,0,1-5.17-.41,15.19,15.19,0,0,1-5-2,8.57,8.57,0,0,1-3.22-3,4.51,4.51,0,0,1-.52-3,5.93,5.93,0,0,1,1.57-2.86,17.37,17.37,0,0,1,3-2.57l-1.49-.91a.68.68,0,0,1-.38-.74c.05-.31.31-.59.79-.85a3.69,3.69,0,0,1,1.48-.38,2.3,2.3,0,0,1,1.35.23l1.4.86a30.32,30.32,0,0,1,3.18-1.46,34.18,34.18,0,0,1,3.6-1.17,15.54,15.54,0,0,1,3.35-.5,4.49,4.49,0,0,1,2.5.53,4.24,4.24,0,0,1,.74.61,2.41,2.41,0,0,1,.54.84,1.24,1.24,0,0,1,0,.89,1.45,1.45,0,0,1-.76.77,4.09,4.09,0,0,1-1.29.4l-1.88.34c-.71.13-1.52.31-2.42.56a19.14,19.14,0,0,0-2.87,1.08l10.41,6.42c1.61-.4,3.28-.76,5-1.07a29.41,29.41,0,0,1,5.23-.49,23.06,23.06,0,0,1,5.32.62,18,18,0,0,1,5.29,2.25q4.71,2.91,4.59,6c-.08,2.08-1.41,4-4,5.87l1.74,1.07a.62.62,0,0,1,.3.79,1.46,1.46,0,0,1-.76.82,3.21,3.21,0,0,1-1.51.4,2.33,2.33,0,0,1-1.27-.27Zm-32.49-14.32a7.46,7.46,0,0,0,2.29.93,9.71,9.71,0,0,0,2.48.23,18.37,18.37,0,0,0,2.67-.28c.92-.17,1.87-.38,2.84-.62l-9.33-5.76a5.92,5.92,0,0,0-2.49,2.84C139.07,147.47,139.58,148.36,140.91,149.18ZM171,153.09a9.62,9.62,0,0,0-5.06-1.51,26.57,26.57,0,0,0-5.5.57l10.82,6.67a4.21,4.21,0,0,0,1.89-2.92C173.17,154.93,172.46,154,171,153.09Z"/><path class="cls-20" d="M506.38,267l-16.17-35c-3.12-6.76-9.75-11.59-17.51-13.64L458,218l-18.77-1.19-5.18-4.32-.28-7.68L415,201.07l-71.67,9.46a3.94,3.94,0,0,0-.84.19l-5.63-.53-8.31,1c-1.55.31-2.2.89-1.9,1.78-1.12.48-1.39,1.21-1,2.15a1.58,1.58,0,0,0,.26,2.25c-1,.66-8.74,4.14-7.12,5.69.34.33,1.16.79,2.69-.12a58.79,58.79,0,0,1,5.91-3c1.82-.15,6.5.19,6.5.19l-3.9,1.1-2.65,1.11a2.1,2.1,0,0,0-1,1.31,2,2,0,0,0,.3,1.59.82.82,0,0,0,1,.32l2.85-1,7.63-1.34,5.21-1.33,1.36-.83,64.39-1.52c-3,.84-5.78,3.13-5.55,8.66a11.92,11.92,0,0,0,1.62,5.42c4.79,8.35,18.51,12.06,18.51,12.06l-21.19,9L387.65,251l-23.84,7.41,19.67,11.53,3.31,1.94,26.48-10.59,35.52,6.43,6.8,14.7C461,294,476.71,300,490.73,295.77S511.76,278.63,506.38,267Z"/><path class="cls-10" d="M433.65,77.57l.6,6.34-.6,4.86.6,36-2.65,5.14-1.12-12.48s.92-29.1,1.12-29.71,0-7.77,0-7.77Z"/><polygon class="cls-4" points="360.34 111.53 375.75 159.06 408.51 161.95 406.95 156.13 402.87 140.91 402.52 139.54 400.77 133.02 395.58 113.66 360.34 111.53"/><path class="cls-21" d="M403.22,142.29l-.45.45,3,11,.58-.16,8.68-7.29,6.56.72c2.9-.6,3.2-6.48.32-6.18l-5.81-3a76.43,76.43,0,0,0-9.25-2.25l-5,1.19Z"/><path class="cls-21" d="M387.09,150.35l3.09.92,1.73,1.73,1.82,1.22,2.35,1a33.08,33.08,0,0,0,9.64-1.48l-3-11-7.31,5.58-7.52-.5C385.27,147.84,385.29,149.8,387.09,150.35Z"/><path class="cls-5" d="M458.93,285.52s-.7,5.56,10,6S485.06,290,485.06,290s8.15,2,12.76-.55,3.42-4,3.42-4a39.93,39.93,0,0,0-4.5-16.83l-12.34-3.72L482.49,274l-9.33,4.43S460.36,280.43,458.93,285.52Z"/><path class="cls-5" d="M476,218.14,475.63,243a16.56,16.56,0,0,1-1.85,0c-6.13-.19-6.62-3.41-10.85-4-4.63-.59-4,.49-15.05,0s-13-7.13-8.15-10.37,14.69-3.4,14.69-3.4l5.3-2,3.68-1.38,2.89-7,3.4,1.16Z"/><path class="cls-22" d="M485.71,169.33l2,55.89c-7.35,1.11-9.64,1.5-11.81,1.49a16.94,16.94,0,0,1-6.74-1.3,12.69,12.69,0,0,1-1.71-.81,20.21,20.21,0,0,1-4-2.75c-4.72-18.42-4.17-38.2-7.86-65.38a14.34,14.34,0,0,1,.7-6.69l3-8.48,10.52-29.77,13.19,3.63,11.24,3.11,4.66,1.29-12.2,33.9Z"/><path class="cls-6" d="M469.79,130.62s-12.44,41.7-6.46,73.18c0,0,10.91,45.68,15.26,65a10,10,0,0,0,10.64,8,33.43,33.43,0,0,0,6-1,9.4,9.4,0,0,0,6.56-9.14C501.64,254,500.2,223,491.08,199l10.21-50.15c7.74-8.7,11.82-19.84,6.29-37.38Z"/><path class="cls-23" d="M485.94,152.91l-.42.86-12.94,26L469.68,216l-.7,8.87c-.13,0-.71-.11-1.58-.29-1.81-.3-4.77-.78-7.68-1.36l3.68-1.39c-4.72-18.42-4.17-38.2-7.86-65.38a14.34,14.34,0,0,1,.7-6.69l3-8.48,10.52-29.77,13.19,3.63-.13,3.34.48,5.3Z"/><path class="cls-21" d="M351.7,79.76l10,.93,7.07-.78,2.35,5-6.61,2.6-6.34,3.88L353,92.69,345.41,94l-2.83,1a.81.81,0,0,1-.95-.31,2,2,0,0,1,.66-2.88l2.62-1.1,3.88-1.1s-4.65-.33-6.46-.18a57.36,57.36,0,0,0-5.86,3c-1.52.9-2.33.45-2.67.12-1.61-1.53,6.08-5,7.06-5.65a1.56,1.56,0,0,1-.25-2.23c-.43-.93-.16-1.66.95-2.13-.3-.88.35-1.46,1.89-1.77Z"/><path class="cls-12" d="M405.77,70.16l19.94-14.1,15.55,18.48c-7.08,3.3-14.93,5.21-20.72,7.49-2.57,1-4.77,1.47-6.83,2.08,0,0-31,4.76-49.22,3.38,0-2.95-.65-5.4-2.81-6.8C361.68,80.69,393.21,69.91,405.77,70.16Z"/><path class="cls-12" d="M509.24,117.21a22.26,22.26,0,0,1-10.75,6.27c-11.52,3.23-25.61-.28-31.58-2.11-1.85-.55-2.91-1-2.91-1L443,96.91c-18.19-12.2-13.69-47.14-13.69-47.14,27.48-17.68,44.08,3.06,60.83,20.32S509.24,117.21,509.24,117.21Z"/><path class="cls-24" d="M498.47,123.48c-11.5,3.23-25.59-.28-31.56-2.11l-2.91-19,8.16-12.28S481.59,117.89,498.47,123.48Z"/><path class="cls-12" d="M475.47,111.47c-5.74,4.91-15.24,7.33-22.44,4.61l3,16.47-39.93,5.25a10.55,10.55,0,0,1-1.07,8.51s50.3,11,59.69,0C479.11,141.69,476.3,126.27,475.47,111.47Z"/><path class="cls-12" d="M476.22,121.4l-2.13-26.34c-3.17-24-32.06-17.13-25.53,4.93L456,132.55C463.55,135.41,470.2,126.57,476.22,121.4Z"/><path class="cls-3" d="M431.81,52.28s6.77-1.33,9.45,1.87,2.44,14.15,1,17.75S433.45,85,433.45,85l-1.85-5Z"/><path class="cls-21" d="M416.3,73.41c.4.4,15.3,6.56,15.3,6.56s9.14-8,5.43-23.56c-3.55-.93-7.67-5.21-13.42-9.17Z"/><path class="cls-21" d="M430.48,52.44s-3.37-17.15-20.55-17.15c0,0-19.26,3.45-18.2,20.59,0,0,2,10.76,8.1,13.55l.85,3.77a2.41,2.41,0,0,0,1.9,1.84l1.9.36L409,79.28a7.21,7.21,0,0,0,6.38,1.6,14.34,14.34,0,0,0,7.29-4.64C428.26,70,430.48,52.44,430.48,52.44Z"/><path class="cls-5" d="M394,62.78c4.6,3,14.41-3.16,19.81,2.71,0,0,7.54,5.42,13.29-1.36s5.13-10.35,5.13-10.35S428,36.08,416.3,34.32c-10.53-1.6-17.09,3.08-21.69,8.71S386.94,58.2,394,62.78Z"/><path class="cls-21" d="M414.51,61.8a4.16,4.16,0,0,1,2.23.25,6.49,6.49,0,0,1,3.94,4.35,3,3,0,0,1-.46,2.8,2.39,2.39,0,0,1-2,.64,4.84,4.84,0,0,1-2-.76,8.84,8.84,0,0,1-3.53-3.59A2.64,2.64,0,0,1,414.51,61.8Z"/></g></g></svg>