<svg xmlns="http://www.w3.org/2000/svg" viewBox="0 0 577.78 430.57"><defs><style>.cls-1{fill:#ebebeb;}.cls-2{fill:#fafafa;}.cls-3{fill:#f0f0f0;}.cls-4{fill:#e0e0e0;}.cls-5{fill:#f5f5f5;}.cls-22,.cls-6{fill:#407bff;}.cls-10,.cls-13,.cls-16,.cls-19,.cls-23,.cls-26,.cls-27,.cls-28,.cls-30,.cls-33,.cls-34,.cls-7,.cls-9{fill:#fff;}.cls-10,.cls-14,.cls-15,.cls-31,.cls-7{opacity:0.3;}.cls-25,.cls-30,.cls-31,.cls-33,.cls-36,.cls-7,.cls-9{isolation:isolate;}.cls-8{fill:#263238;}.cls-21,.cls-23,.cls-9{opacity:0.5;}.cls-11,.cls-16,.cls-25,.cls-35,.cls-36{opacity:0.2;}.cls-12,.cls-33,.cls-34{opacity:0.1;}.cls-17{fill:#b55b52;}.cls-18{opacity:0;}.cls-19,.cls-22{opacity:0.8;}.cls-20,.cls-26,.cls-30{opacity:0.4;}.cls-24{fill:#a02724;}.cls-27{opacity:0.6;}.cls-28{opacity:0.7;}.cls-29{fill:#e4897b;}.cls-32{fill:#de5753;}</style></defs><title>business</title><g id="Chart_1" data-name="Chart 1"><rect class="cls-1" y="378.38" width="577.78" height="0.29"/><rect class="cls-1" x="481.61" y="396.98" width="38.27" height="0.29"/><rect class="cls-1" x="372.7" y="400.12" width="10.05" height="0.29"/><rect class="cls-1" x="458.27" y="386.25" width="22.18" height="0.29"/><rect class="cls-1" x="60.62" y="388.19" width="49.91" height="0.29"/><rect class="cls-1" x="120.82" y="388.19" width="7.32" height="0.29"/><rect class="cls-1" x="151.92" y="393.07" width="108.25" height="0.29"/><path class="cls-1" d="M235,361.56H11.86a6.61,6.61,0,0,1-6.6-6.6V41.31a6.6,6.6,0,0,1,6.6-6.59H235a6.6,6.6,0,0,1,6.6,6.59V355A6.61,6.61,0,0,1,235,361.56ZM11.86,35a6.32,6.32,0,0,0-6.31,6.31V355a6.32,6.32,0,0,0,6.31,6.31H235A6.32,6.32,0,0,0,241.3,355V41.31A6.32,6.32,0,0,0,235,35Z" transform="translate(38.89 -34.72)"/><path class="cls-1" d="M484.94,361.56H261.8a6.6,6.6,0,0,1-6.59-6.6V41.31a6.59,6.59,0,0,1,6.59-6.59H484.94a6.6,6.6,0,0,1,6.59,6.59V355A6.6,6.6,0,0,1,484.94,361.56ZM261.8,35a6.32,6.32,0,0,0-6.31,6.31V355a6.32,6.32,0,0,0,6.31,6.31H484.94a6.31,6.31,0,0,0,6.3-6.31V41.31a6.31,6.31,0,0,0-6.3-6.31Z" transform="translate(38.89 -34.72)"/><rect class="cls-1" x="284.05" y="75.99" width="195.88" height="219.46"/><rect class="cls-2" x="284.05" y="79.53" width="192.04" height="212.03"/><polygon class="cls-3" points="469 192.07 469 177.17 464.74 177.17 464.74 167.24 459.06 167.24 459.06 152.34 457.65 152.34 457.65 167.24 451.97 167.24 451.97 177.17 447.71 177.17 447.71 192.07 439.91 192.07 439.91 196.33 436.36 196.33 436.36 212.64 435.65 212.64 435.65 189.23 433.53 189.23 433.53 204.13 431.4 204.13 431.4 168.66 429.98 168.66 429.98 183.56 424.3 183.56 424.3 178.59 422.18 178.59 422.18 158.02 417.92 158.02 417.92 137.45 416.5 137.45 416.5 140.28 387.42 140.28 387.42 131.77 382.45 131.77 382.45 99.14 380.32 99.14 380.32 131.77 373.23 131.77 373.23 140.28 370.39 140.28 370.39 182.85 355.49 182.85 355.49 170.08 360.46 170.08 360.46 167.95 355.49 167.95 355.49 164.4 341.3 164.4 341.3 131.77 337.76 131.77 337.76 126.81 320.73 126.81 320.73 131.77 318.6 131.77 318.6 177.17 310.8 177.17 310.8 197.75 306.54 197.75 306.54 181.43 303 181.43 303 177.17 295.19 177.17 295.19 162.28 290.94 162.28 290.94 152.34 285.97 152.34 285.97 137.45 284.05 137.45 284.05 291.56 476.09 291.56 476.09 192.07 469 192.07"/><rect class="cls-2" x="398.28" y="142.51" width="2.01" height="2.01"/><rect class="cls-2" x="398.28" y="145.88" width="2.01" height="2.01"/><rect class="cls-2" x="398.28" y="159.36" width="2.01" height="2.01"/><rect class="cls-2" x="398.28" y="162.73" width="2.01" height="2.01"/><rect class="cls-2" x="398.28" y="166.1" width="2.01" height="2.01"/><rect class="cls-2" x="398.28" y="176.2" width="2.01" height="2.01"/><rect class="cls-2" x="398.28" y="179.57" width="2.01" height="2.01"/><rect class="cls-2" x="395.09" y="155.99" width="2.01" height="2.01"/><rect class="cls-2" x="395.09" y="159.36" width="2.01" height="2.01"/><rect class="cls-2" x="395.09" y="162.73" width="2.01" height="2.01"/><rect class="cls-2" x="395.09" y="166.1" width="2.01" height="2.01"/><rect class="cls-2" x="395.09" y="169.46" width="2.01" height="2.01"/><rect class="cls-2" x="395.09" y="176.2" width="2.01" height="2.01"/><rect class="cls-2" x="395.09" y="179.57" width="2.01" height="2.01"/><rect class="cls-2" x="391.89" y="142.51" width="2.01" height="2.01"/><rect class="cls-2" x="391.89" y="145.88" width="2.01" height="2.01"/><rect class="cls-2" x="391.89" y="149.25" width="2.01" height="2.01"/><rect class="cls-2" x="391.89" y="152.62" width="2.01" height="2.01"/><rect class="cls-2" x="391.89" y="155.99" width="2.01" height="2.01"/><rect class="cls-2" x="391.89" y="159.36" width="2.01" height="2.01"/><rect class="cls-2" x="391.89" y="162.73" width="2.01" height="2.01"/><rect class="cls-2" x="391.89" y="166.1" width="2.01" height="2.01"/><rect class="cls-2" x="391.89" y="169.46" width="2.01" height="2.01"/><rect class="cls-2" x="391.89" y="172.83" width="2.01" height="2.01"/><rect class="cls-2" x="391.89" y="179.57" width="2.01" height="2.01"/><rect class="cls-2" x="388.7" y="142.51" width="2.01" height="2.01"/><rect class="cls-2" x="388.7" y="145.88" width="2.01" height="2.01"/><rect class="cls-2" x="388.7" y="149.25" width="2.01" height="2.01"/><rect class="cls-2" x="388.7" y="152.62" width="2.01" height="2.01"/><rect class="cls-2" x="388.7" y="155.99" width="2.01" height="2.01"/><rect class="cls-2" x="388.7" y="159.36" width="2.01" height="2.01"/><rect class="cls-2" x="388.7" y="162.73" width="2.01" height="2.01"/><rect class="cls-2" x="388.7" y="193.05" width="2.01" height="2.01"/><rect class="cls-2" x="385.51" y="142.51" width="2.01" height="2.01"/><rect class="cls-2" x="385.51" y="145.88" width="2.01" height="2.01"/><rect class="cls-2" x="385.51" y="149.25" width="2.01" height="2.01"/><rect class="cls-2" x="385.51" y="152.62" width="2.01" height="2.01"/><rect class="cls-2" x="385.51" y="155.99" width="2.01" height="2.01"/><rect class="cls-2" x="385.51" y="159.36" width="2.01" height="2.01"/><rect class="cls-2" x="385.51" y="162.73" width="2.01" height="2.01"/><rect class="cls-2" x="385.51" y="166.1" width="2.01" height="2.01"/><rect class="cls-2" x="385.51" y="186.31" width="2.01" height="2.01"/><rect class="cls-2" x="385.51" y="189.68" width="2.01" height="2.01"/><rect class="cls-2" x="385.51" y="193.05" width="2.01" height="2.01"/><rect class="cls-2" x="385.51" y="196.42" width="2.01" height="2.01"/><rect class="cls-2" x="385.51" y="209.9" width="2.01" height="2.01"/><rect class="cls-2" x="382.32" y="142.51" width="2.01" height="2.01"/><rect class="cls-2" x="382.32" y="145.88" width="2.01" height="2.01"/><rect class="cls-2" x="382.32" y="149.25" width="2.01" height="2.01"/><rect class="cls-2" x="382.32" y="152.62" width="2.01" height="2.01"/><rect class="cls-2" x="382.32" y="155.99" width="2.01" height="2.01"/><rect class="cls-2" x="382.32" y="159.36" width="2.01" height="2.01"/><rect class="cls-2" x="382.32" y="162.73" width="2.01" height="2.01"/><rect class="cls-2" x="382.32" y="166.1" width="2.01" height="2.01"/><rect class="cls-2" x="382.32" y="169.46" width="2.01" height="2.01"/><rect class="cls-2" x="382.32" y="172.83" width="2.01" height="2.01"/><rect class="cls-2" x="382.32" y="182.94" width="2.01" height="2.01"/><rect class="cls-2" x="382.32" y="186.31" width="2.01" height="2.01"/><rect class="cls-2" x="382.32" y="189.68" width="2.01" height="2.01"/><rect class="cls-2" x="382.32" y="193.05" width="2.01" height="2.01"/><rect class="cls-2" x="382.32" y="196.42" width="2.01" height="2.01"/><rect class="cls-2" x="382.32" y="209.9" width="2.01" height="2.01"/><rect class="cls-2" x="379.12" y="142.51" width="2.01" height="2.01"/><rect class="cls-2" x="379.12" y="145.88" width="2.01" height="2.01"/><rect class="cls-2" x="379.12" y="149.25" width="2.01" height="2.01"/><rect class="cls-2" x="379.12" y="152.62" width="2.01" height="2.01"/><rect class="cls-2" x="379.12" y="155.99" width="2.01" height="2.01"/><rect class="cls-2" x="379.12" y="159.36" width="2.01" height="2.01"/><rect class="cls-2" x="379.12" y="162.73" width="2.01" height="2.01"/><rect class="cls-2" x="379.12" y="166.1" width="2.01" height="2.01"/><rect class="cls-2" x="379.12" y="169.46" width="2.01" height="2.01"/><rect class="cls-2" x="379.12" y="172.83" width="2.01" height="2.01"/><rect class="cls-2" x="379.12" y="176.2" width="2.01" height="2.01"/><rect class="cls-2" x="379.12" y="179.57" width="2.01" height="2.01"/><rect class="cls-2" x="379.12" y="182.94" width="2.01" height="2.01"/><rect class="cls-2" x="379.12" y="186.31" width="2.01" height="2.01"/><rect class="cls-2" x="379.12" y="189.68" width="2.01" height="2.01"/><rect class="cls-2" x="379.12" y="193.05" width="2.01" height="2.01"/><rect class="cls-2" x="379.12" y="196.42" width="2.01" height="2.01"/><rect class="cls-2" x="379.12" y="199.79" width="2.01" height="2.01"/><rect class="cls-2" x="375.93" y="142.51" width="2.01" height="2.01"/><rect class="cls-2" x="375.93" y="145.88" width="2.01" height="2.01"/><rect class="cls-2" x="375.93" y="149.25" width="2.01" height="2.01"/><rect class="cls-2" x="375.93" y="152.62" width="2.01" height="2.01"/><rect class="cls-2" x="375.93" y="155.99" width="2.01" height="2.01"/><rect class="cls-2" x="375.93" y="159.36" width="2.01" height="2.01"/><rect class="cls-2" x="375.93" y="162.73" width="2.01" height="2.01"/><rect class="cls-2" x="375.93" y="166.1" width="2.01" height="2.01"/><rect class="cls-2" x="375.93" y="169.46" width="2.01" height="2.01"/><rect class="cls-2" x="375.93" y="172.83" width="2.01" height="2.01"/><rect class="cls-2" x="375.93" y="182.94" width="2.01" height="2.01"/><rect class="cls-2" x="375.93" y="186.31" width="2.01" height="2.01"/><rect class="cls-2" x="375.93" y="189.68" width="2.01" height="2.01"/><rect class="cls-2" x="375.93" y="193.05" width="2.01" height="2.01"/><rect class="cls-2" x="372.74" y="142.51" width="2.01" height="2.01"/><rect class="cls-2" x="372.74" y="145.88" width="2.01" height="2.01"/><rect class="cls-2" x="372.74" y="149.25" width="2.01" height="2.01"/><rect class="cls-2" x="372.74" y="152.62" width="2.01" height="2.01"/><rect class="cls-2" x="372.74" y="155.99" width="2.01" height="2.01"/><rect class="cls-2" x="372.74" y="159.36" width="2.01" height="2.01"/><rect class="cls-2" x="372.74" y="162.73" width="2.01" height="2.01"/><rect class="cls-2" x="372.74" y="166.1" width="2.01" height="2.01"/><rect class="cls-2" x="372.74" y="169.46" width="2.01" height="2.01"/><rect class="cls-2" x="372.74" y="172.83" width="2.01" height="2.01"/><rect class="cls-2" x="372.74" y="182.94" width="2.01" height="2.01"/><rect class="cls-2" x="372.74" y="186.31" width="2.01" height="2.01"/><rect class="cls-2" x="372.74" y="189.68" width="2.01" height="2.01"/><rect class="cls-2" x="336.8" y="133.76" width="2.01" height="2.01"/><rect class="cls-2" x="336.8" y="137.13" width="2.01" height="2.01"/><rect class="cls-2" x="336.8" y="140.5" width="2.01" height="2.01"/><rect class="cls-2" x="336.8" y="143.87" width="2.01" height="2.01"/><rect class="cls-2" x="336.8" y="147.24" width="2.01" height="2.01"/><rect class="cls-2" x="336.8" y="150.61" width="2.01" height="2.01"/><rect class="cls-2" x="336.8" y="153.98" width="2.01" height="2.01"/><rect class="cls-2" x="336.8" y="157.35" width="2.01" height="2.01"/><rect class="cls-2" x="336.8" y="167.45" width="2.01" height="2.01"/><rect class="cls-2" x="336.8" y="170.82" width="2.01" height="2.01"/><rect class="cls-2" x="333.6" y="133.76" width="2.01" height="2.01"/><rect class="cls-2" x="333.6" y="137.13" width="2.01" height="2.01"/><rect class="cls-2" x="333.6" y="140.5" width="2.01" height="2.01"/><rect class="cls-2" x="333.6" y="143.87" width="2.01" height="2.01"/><rect class="cls-2" x="333.6" y="147.24" width="2.01" height="2.01"/><rect class="cls-2" x="333.6" y="150.61" width="2.01" height="2.01"/><rect class="cls-2" x="333.6" y="153.98" width="2.01" height="2.01"/><rect class="cls-2" x="333.6" y="157.35" width="2.01" height="2.01"/><rect class="cls-2" x="333.6" y="170.82" width="2.01" height="2.01"/><rect class="cls-2" x="330.41" y="133.76" width="2.01" height="2.01"/><rect class="cls-2" x="330.41" y="137.13" width="2.01" height="2.01"/><rect class="cls-2" x="330.41" y="140.5" width="2.01" height="2.01"/><rect class="cls-2" x="330.41" y="143.87" width="2.01" height="2.01"/><rect class="cls-2" x="330.41" y="147.24" width="2.01" height="2.01"/><rect class="cls-2" x="330.41" y="150.61" width="2.01" height="2.01"/><rect class="cls-2" x="330.41" y="153.98" width="2.01" height="2.01"/><rect class="cls-2" x="330.41" y="157.35" width="2.01" height="2.01"/><rect class="cls-2" x="327.22" y="133.76" width="2.01" height="2.01"/><rect class="cls-2" x="327.22" y="137.13" width="2.01" height="2.01"/><rect class="cls-2" x="327.22" y="140.5" width="2.01" height="2.01"/><rect class="cls-2" x="327.22" y="143.87" width="2.01" height="2.01"/><rect class="cls-2" x="327.22" y="147.24" width="2.01" height="2.01"/><rect class="cls-2" x="327.22" y="150.61" width="2.01" height="2.01"/><rect class="cls-2" x="327.22" y="157.35" width="2.01" height="2.01"/><rect class="cls-2" x="327.22" y="160.72" width="2.01" height="2.01"/><rect class="cls-2" x="327.22" y="170.82" width="2.01" height="2.01"/><rect class="cls-2" x="327.22" y="174.19" width="2.01" height="2.01"/><rect class="cls-2" x="327.22" y="177.56" width="2.01" height="2.01"/><rect class="cls-2" x="327.22" y="180.93" width="2.01" height="2.01"/><rect class="cls-2" x="327.22" y="184.3" width="2.01" height="2.01"/><rect class="cls-2" x="327.22" y="187.67" width="2.01" height="2.01"/><rect class="cls-2" x="327.22" y="191.04" width="2.01" height="2.01"/><rect class="cls-2" x="324.03" y="133.76" width="2.01" height="2.01"/><rect class="cls-2" x="324.03" y="137.13" width="2.01" height="2.01"/><rect class="cls-2" x="324.03" y="140.5" width="2.01" height="2.01"/><rect class="cls-2" x="324.03" y="143.87" width="2.01" height="2.01"/><rect class="cls-2" x="324.03" y="147.24" width="2.01" height="2.01"/><rect class="cls-2" x="324.03" y="150.61" width="2.01" height="2.01"/><rect class="cls-2" x="324.03" y="160.72" width="2.01" height="2.01"/><rect class="cls-2" x="324.03" y="164.09" width="2.01" height="2.01"/><rect class="cls-2" x="324.03" y="167.45" width="2.01" height="2.01"/><rect class="cls-2" x="324.03" y="170.82" width="2.01" height="2.01"/><rect class="cls-2" x="324.03" y="174.19" width="2.01" height="2.01"/><rect class="cls-2" x="324.03" y="177.56" width="2.01" height="2.01"/><rect class="cls-2" x="324.03" y="180.93" width="2.01" height="2.01"/><rect class="cls-2" x="324.03" y="184.3" width="2.01" height="2.01"/><rect class="cls-2" x="324.03" y="187.67" width="2.01" height="2.01"/><rect class="cls-2" x="324.03" y="191.04" width="2.01" height="2.01"/><rect class="cls-2" x="324.03" y="194.41" width="2.01" height="2.01"/><rect class="cls-2" x="324.03" y="201.15" width="2.01" height="2.01"/><rect class="cls-2" x="320.83" y="133.76" width="2.01" height="2.01"/><rect class="cls-2" x="320.83" y="137.13" width="2.01" height="2.01"/><rect class="cls-2" x="320.83" y="140.5" width="2.01" height="2.01"/><rect class="cls-2" x="320.83" y="143.87" width="2.01" height="2.01"/><rect class="cls-2" x="320.83" y="147.24" width="2.01" height="2.01"/><rect class="cls-2" x="320.83" y="150.61" width="2.01" height="2.01"/><rect class="cls-2" x="320.83" y="160.72" width="2.01" height="2.01"/><rect class="cls-2" x="320.83" y="164.09" width="2.01" height="2.01"/><rect class="cls-2" x="320.83" y="167.45" width="2.01" height="2.01"/><rect class="cls-2" x="320.83" y="170.82" width="2.01" height="2.01"/><rect class="cls-2" x="320.83" y="180.93" width="2.01" height="2.01"/><rect class="cls-2" x="320.83" y="184.3" width="2.01" height="2.01"/><rect class="cls-2" x="320.83" y="187.67" width="2.01" height="2.01"/><rect class="cls-2" x="320.83" y="191.04" width="2.01" height="2.01"/><rect class="cls-2" x="320.83" y="194.41" width="2.01" height="2.01"/><rect class="cls-2" x="320.83" y="201.15" width="2.01" height="2.01"/><rect class="cls-2" x="320.83" y="204.52" width="2.01" height="2.01"/><rect class="cls-2" x="291.87" y="165.09" width="2.01" height="2.01"/><rect class="cls-2" x="291.87" y="168.46" width="2.01" height="2.01"/><rect class="cls-2" x="291.87" y="171.83" width="2.01" height="2.01"/><rect class="cls-2" x="291.87" y="175.2" width="2.01" height="2.01"/><rect class="cls-2" x="291.87" y="178.57" width="2.01" height="2.01"/><rect class="cls-2" x="291.87" y="181.94" width="2.01" height="2.01"/><rect class="cls-2" x="291.87" y="185.31" width="2.01" height="2.01"/><rect class="cls-2" x="291.87" y="195.42" width="2.01" height="2.01"/><rect class="cls-2" x="291.87" y="198.79" width="2.01" height="2.01"/><rect class="cls-2" x="291.87" y="202.16" width="2.01" height="2.01"/><rect class="cls-2" x="288.68" y="165.09" width="2.01" height="2.01"/><rect class="cls-2" x="288.68" y="168.46" width="2.01" height="2.01"/><rect class="cls-2" x="288.68" y="171.83" width="2.01" height="2.01"/><rect class="cls-2" x="288.68" y="175.2" width="2.01" height="2.01"/><rect class="cls-2" x="288.68" y="178.57" width="2.01" height="2.01"/><rect class="cls-2" x="288.68" y="181.94" width="2.01" height="2.01"/><rect class="cls-2" x="288.68" y="185.31" width="2.01" height="2.01"/><rect class="cls-2" x="284.61" y="165.09" width="2.89" height="2.01"/><rect class="cls-2" x="284.61" y="168.46" width="2.89" height="2.01"/><rect class="cls-2" x="284.61" y="171.83" width="2.89" height="2.01"/><rect class="cls-2" x="284.61" y="175.2" width="2.89" height="2.01"/><rect class="cls-2" x="284.61" y="178.57" width="2.89" height="2.01"/><rect class="cls-2" x="284.61" y="181.94" width="2.89" height="2.01"/><rect class="cls-2" x="284.61" y="185.31" width="2.89" height="2.01"/><rect class="cls-2" x="461.06" y="169.46" width="2.01" height="2.01"/><rect class="cls-2" x="461.06" y="172.83" width="2.01" height="2.01"/><rect class="cls-2" x="461.06" y="176.2" width="2.01" height="2.01"/><rect class="cls-2" x="461.06" y="179.57" width="2.01" height="2.01"/><rect class="cls-2" x="461.06" y="182.94" width="2.01" height="2.01"/><rect class="cls-2" x="461.06" y="186.31" width="2.01" height="2.01"/><rect class="cls-2" x="461.06" y="189.68" width="2.01" height="2.01"/><rect class="cls-2" x="461.06" y="193.05" width="2.01" height="2.01"/><rect class="cls-2" x="461.06" y="196.42" width="2.01" height="2.01"/><rect class="cls-2" x="461.06" y="199.79" width="2.01" height="2.01"/><rect class="cls-2" x="461.06" y="203.16" width="2.01" height="2.01"/><rect class="cls-2" x="461.06" y="206.53" width="2.01" height="2.01"/><rect class="cls-2" x="461.06" y="209.9" width="2.01" height="2.01"/><rect class="cls-2" x="461.06" y="213.27" width="2.01" height="2.01"/><rect class="cls-2" x="461.06" y="216.64" width="2.01" height="2.01"/><rect class="cls-2" x="461.06" y="220.01" width="2.01" height="2.01"/><rect class="cls-2" x="461.06" y="223.38" width="2.01" height="2.01"/><rect class="cls-2" x="461.06" y="226.75" width="2.01" height="2.01"/><rect class="cls-2" x="461.06" y="230.12" width="2.01" height="2.01"/><rect class="cls-2" x="461.06" y="233.49" width="2.01" height="2.01"/><rect class="cls-2" x="457.87" y="169.46" width="2.01" height="2.01"/><rect class="cls-2" x="457.87" y="172.83" width="2.01" height="2.01"/><rect class="cls-2" x="457.87" y="176.2" width="2.01" height="2.01"/><rect class="cls-2" x="457.87" y="179.57" width="2.01" height="2.01"/><rect class="cls-2" x="457.87" y="182.94" width="2.01" height="2.01"/><rect class="cls-2" x="457.87" y="186.31" width="2.01" height="2.01"/><rect class="cls-2" x="457.87" y="189.68" width="2.01" height="2.01"/><rect class="cls-2" x="457.87" y="193.05" width="2.01" height="2.01"/><rect class="cls-2" x="457.87" y="196.42" width="2.01" height="2.01"/><rect class="cls-2" x="457.87" y="199.79" width="2.01" height="2.01"/><rect class="cls-2" x="457.87" y="203.16" width="2.01" height="2.01"/><rect class="cls-2" x="457.87" y="206.53" width="2.01" height="2.01"/><rect class="cls-2" x="457.87" y="209.9" width="2.01" height="2.01"/><rect class="cls-2" x="457.87" y="213.27" width="2.01" height="2.01"/><rect class="cls-2" x="457.87" y="216.64" width="2.01" height="2.01"/><rect class="cls-2" x="457.87" y="220.01" width="2.01" height="2.01"/><rect class="cls-2" x="457.87" y="223.38" width="2.01" height="2.01"/><rect class="cls-2" x="457.87" y="226.75" width="2.01" height="2.01"/><rect class="cls-2" x="454.67" y="169.46" width="2.01" height="2.01"/><rect class="cls-2" x="454.67" y="172.83" width="2.01" height="2.01"/><rect class="cls-2" x="454.67" y="176.2" width="2.01" height="2.01"/><rect class="cls-2" x="454.67" y="179.57" width="2.01" height="2.01"/><rect class="cls-2" x="454.67" y="182.94" width="2.01" height="2.01"/><rect class="cls-2" x="454.67" y="186.31" width="2.01" height="2.01"/><rect class="cls-2" x="454.67" y="189.68" width="2.01" height="2.01"/><rect class="cls-2" x="454.67" y="193.05" width="2.01" height="2.01"/><rect class="cls-2" x="454.67" y="196.42" width="2.01" height="2.01"/><rect class="cls-2" x="454.67" y="199.79" width="2.01" height="2.01"/><rect class="cls-2" x="454.67" y="203.16" width="2.01" height="2.01"/><rect class="cls-2" x="454.67" y="206.53" width="2.01" height="2.01"/><rect class="cls-2" x="454.67" y="209.9" width="2.01" height="2.01"/><rect class="cls-2" x="454.67" y="213.27" width="2.01" height="2.01"/><rect class="cls-2" x="454.67" y="216.64" width="2.01" height="2.01"/><rect class="cls-2" x="454.67" y="220.01" width="2.01" height="2.01"/><rect class="cls-2" x="454.67" y="223.38" width="2.01" height="2.01"/><rect class="cls-2" x="454.67" y="226.75" width="2.01" height="2.01"/><rect class="cls-2" x="473" y="194.06" width="2.01" height="2.01"/><rect class="cls-2" x="473" y="197.43" width="2.01" height="2.01"/><rect class="cls-2" x="473" y="200.8" width="2.01" height="2.01"/><rect class="cls-2" x="473" y="204.17" width="2.01" height="2.01"/><rect class="cls-2" x="473" y="207.54" width="2.01" height="2.01"/><rect class="cls-2" x="473" y="210.91" width="2.01" height="2.01"/><rect class="cls-2" x="473" y="214.28" width="2.01" height="2.01"/><rect class="cls-2" x="473" y="217.64" width="2.01" height="2.01"/><rect class="cls-2" x="473" y="221.01" width="2.01" height="2.01"/><rect class="cls-2" x="473" y="224.38" width="2.01" height="2.01"/><rect class="cls-2" x="473" y="227.75" width="2.01" height="2.01"/><rect class="cls-2" x="473" y="231.12" width="2.01" height="2.01"/><rect class="cls-2" x="473" y="234.49" width="2.01" height="2.01"/><rect class="cls-2" x="469.81" y="194.06" width="2.01" height="2.01"/><rect class="cls-2" x="469.81" y="197.43" width="2.01" height="2.01"/><rect class="cls-2" x="469.81" y="200.8" width="2.01" height="2.01"/><rect class="cls-2" x="469.81" y="204.17" width="2.01" height="2.01"/><rect class="cls-2" x="469.81" y="207.54" width="2.01" height="2.01"/><rect class="cls-2" x="469.81" y="210.91" width="2.01" height="2.01"/><rect class="cls-2" x="469.81" y="214.28" width="2.01" height="2.01"/><rect class="cls-2" x="469.81" y="217.64" width="2.01" height="2.01"/><rect class="cls-2" x="469.81" y="221.01" width="2.01" height="2.01"/><rect class="cls-2" x="469.81" y="224.38" width="2.01" height="2.01"/><rect class="cls-2" x="469.81" y="227.75" width="2.01" height="2.01"/><rect class="cls-2" x="469.81" y="231.12" width="2.01" height="2.01"/><rect class="cls-2" x="469.81" y="234.49" width="2.01" height="2.01"/><rect class="cls-2" x="466.62" y="194.06" width="2.01" height="2.01"/><rect class="cls-2" x="466.62" y="197.43" width="2.01" height="2.01"/><rect class="cls-2" x="466.62" y="200.8" width="2.01" height="2.01"/><rect class="cls-2" x="466.62" y="204.17" width="2.01" height="2.01"/><rect class="cls-2" x="466.62" y="207.54" width="2.01" height="2.01"/><rect class="cls-2" x="466.62" y="210.91" width="2.01" height="2.01"/><rect class="cls-2" x="466.62" y="214.28" width="2.01" height="2.01"/><rect class="cls-2" x="466.62" y="217.64" width="2.01" height="2.01"/><rect class="cls-2" x="466.62" y="221.01" width="2.01" height="2.01"/><rect class="cls-2" x="466.62" y="224.38" width="2.01" height="2.01"/><rect class="cls-2" x="466.62" y="227.75" width="2.01" height="2.01"/><rect class="cls-2" x="466.62" y="231.12" width="2.01" height="2.01"/><rect class="cls-2" x="466.62" y="234.49" width="2.01" height="2.01"/><rect class="cls-2" x="466.62" y="237.86" width="2.01" height="2.01"/><rect class="cls-2" x="448.88" y="195.06" width="2.01" height="2.01"/><rect class="cls-2" x="448.88" y="198.43" width="2.01" height="2.01"/><rect class="cls-2" x="448.88" y="201.8" width="2.01" height="2.01"/><rect class="cls-2" x="448.88" y="205.17" width="2.01" height="2.01"/><rect class="cls-2" x="448.88" y="208.54" width="2.01" height="2.01"/><rect class="cls-2" x="448.88" y="211.91" width="2.01" height="2.01"/><rect class="cls-2" x="448.88" y="215.28" width="2.01" height="2.01"/><rect class="cls-2" x="448.88" y="218.65" width="2.01" height="2.01"/><rect class="cls-2" x="448.88" y="222.02" width="2.01" height="2.01"/><rect class="cls-2" x="448.88" y="225.39" width="2.01" height="2.01"/><rect class="cls-2" x="448.88" y="235.5" width="2.01" height="2.01"/><rect class="cls-2" x="445.69" y="195.06" width="2.01" height="2.01"/><rect class="cls-2" x="445.69" y="198.43" width="2.01" height="2.01"/><rect class="cls-2" x="445.69" y="201.8" width="2.01" height="2.01"/><rect class="cls-2" x="445.69" y="205.17" width="2.01" height="2.01"/><rect class="cls-2" x="445.69" y="208.54" width="2.01" height="2.01"/><rect class="cls-2" x="445.69" y="211.91" width="2.01" height="2.01"/><rect class="cls-2" x="445.69" y="215.28" width="2.01" height="2.01"/><rect class="cls-2" x="445.69" y="218.65" width="2.01" height="2.01"/><rect class="cls-2" x="445.69" y="222.02" width="2.01" height="2.01"/><rect class="cls-2" x="445.69" y="232.13" width="2.01" height="2.01"/><rect class="cls-2" x="445.69" y="235.5" width="2.01" height="2.01"/><rect class="cls-2" x="442.5" y="195.06" width="2.01" height="2.01"/><rect class="cls-2" x="442.5" y="198.43" width="2.01" height="2.01"/><rect class="cls-2" x="442.5" y="201.8" width="2.01" height="2.01"/><rect class="cls-2" x="442.5" y="205.17" width="2.01" height="2.01"/><rect class="cls-2" x="442.5" y="208.54" width="2.01" height="2.01"/><rect class="cls-2" x="442.5" y="211.91" width="2.01" height="2.01"/><rect class="cls-2" x="442.5" y="215.28" width="2.01" height="2.01"/><rect class="cls-2" x="442.5" y="218.65" width="2.01" height="2.01"/><rect class="cls-2" x="442.5" y="228.76" width="2.01" height="2.01"/><rect class="cls-2" x="442.5" y="232.13" width="2.01" height="2.01"/><rect class="cls-2" x="442.5" y="235.5" width="2.01" height="2.01"/><rect class="cls-2" x="412.82" y="143.87" width="2.01" height="2.01"/><rect class="cls-2" x="412.82" y="147.24" width="2.01" height="2.01"/><rect class="cls-2" x="412.82" y="150.61" width="2.01" height="2.01"/><rect class="cls-2" x="412.82" y="153.98" width="2.01" height="2.01"/><rect class="cls-2" x="412.82" y="157.35" width="2.01" height="2.01"/><rect class="cls-2" x="412.82" y="160.72" width="2.01" height="2.01"/><rect class="cls-2" x="412.82" y="164.09" width="2.01" height="2.01"/><rect class="cls-2" x="412.82" y="167.45" width="2.01" height="2.01"/><rect class="cls-2" x="412.82" y="170.82" width="2.01" height="2.01"/><rect class="cls-2" x="412.82" y="174.19" width="2.01" height="2.01"/><rect class="cls-2" x="412.82" y="177.56" width="2.01" height="2.01"/><rect class="cls-2" x="412.82" y="180.93" width="2.01" height="2.01"/><rect class="cls-2" x="412.82" y="184.3" width="2.01" height="2.01"/><rect class="cls-2" x="412.82" y="187.67" width="2.01" height="2.01"/><rect class="cls-2" x="412.82" y="191.04" width="2.01" height="2.01"/><rect class="cls-2" x="412.82" y="194.41" width="2.01" height="2.01"/><rect class="cls-2" x="412.82" y="197.78" width="2.01" height="2.01"/><rect class="cls-2" x="412.82" y="204.52" width="2.01" height="2.01"/><rect class="cls-2" x="412.82" y="207.89" width="2.01" height="2.01"/><rect class="cls-2" x="412.82" y="211.26" width="2.01" height="2.01"/><rect class="cls-2" x="412.82" y="214.63" width="2.01" height="2.01"/><rect class="cls-2" x="412.82" y="218" width="2.01" height="2.01"/><rect class="cls-2" x="409.63" y="143.87" width="2.01" height="2.01"/><rect class="cls-2" x="409.63" y="147.24" width="2.01" height="2.01"/><rect class="cls-2" x="409.63" y="150.61" width="2.01" height="2.01"/><rect class="cls-2" x="409.63" y="153.98" width="2.01" height="2.01"/><rect class="cls-2" x="409.63" y="157.35" width="2.01" height="2.01"/><rect class="cls-2" x="409.63" y="160.72" width="2.01" height="2.01"/><rect class="cls-2" x="409.63" y="164.09" width="2.01" height="2.01"/><rect class="cls-2" x="409.63" y="167.45" width="2.01" height="2.01"/><rect class="cls-2" x="409.63" y="170.82" width="2.01" height="2.01"/><rect class="cls-2" x="409.63" y="174.19" width="2.01" height="2.01"/><rect class="cls-2" x="409.63" y="177.56" width="2.01" height="2.01"/><rect class="cls-2" x="409.63" y="180.93" width="2.01" height="2.01"/><rect class="cls-2" x="409.63" y="184.3" width="2.01" height="2.01"/><rect class="cls-2" x="409.63" y="187.67" width="2.01" height="2.01"/><rect class="cls-2" x="409.63" y="191.04" width="2.01" height="2.01"/><rect class="cls-2" x="409.63" y="194.41" width="2.01" height="2.01"/><rect class="cls-2" x="409.63" y="214.63" width="2.01" height="2.01"/><rect class="cls-2" x="409.63" y="218" width="2.01" height="2.01"/><rect class="cls-2" x="406.44" y="143.87" width="2.01" height="2.01"/><rect class="cls-2" x="406.44" y="147.24" width="2.01" height="2.01"/><rect class="cls-2" x="406.44" y="150.61" width="2.01" height="2.01"/><rect class="cls-2" x="406.44" y="153.98" width="2.01" height="2.01"/><rect class="cls-2" x="406.44" y="157.35" width="2.01" height="2.01"/><rect class="cls-2" x="406.44" y="160.72" width="2.01" height="2.01"/><rect class="cls-2" x="406.44" y="164.09" width="2.01" height="2.01"/><rect class="cls-2" x="406.44" y="167.45" width="2.01" height="2.01"/><rect class="cls-2" x="406.44" y="170.82" width="2.01" height="2.01"/><rect class="cls-2" x="406.44" y="174.19" width="2.01" height="2.01"/><rect class="cls-2" x="406.44" y="177.56" width="2.01" height="2.01"/><rect class="cls-2" x="406.44" y="180.93" width="2.01" height="2.01"/><rect class="cls-2" x="406.44" y="184.3" width="2.01" height="2.01"/><rect class="cls-2" x="406.44" y="187.67" width="2.01" height="2.01"/><rect class="cls-2" x="406.44" y="191.04" width="2.01" height="2.01"/><rect class="cls-2" x="406.44" y="194.41" width="2.01" height="2.01"/><rect class="cls-2" x="406.44" y="201.15" width="2.01" height="2.01"/><rect class="cls-2" x="406.44" y="204.52" width="2.01" height="2.01"/><rect class="cls-2" x="406.44" y="207.89" width="2.01" height="2.01"/><rect class="cls-2" x="406.44" y="211.26" width="2.01" height="2.01"/><rect class="cls-2" x="406.44" y="218" width="2.01" height="2.01"/><rect class="cls-2" x="424.41" y="186.31" width="2.01" height="2.01"/><rect class="cls-2" x="424.41" y="189.68" width="2.01" height="2.01"/><rect class="cls-2" x="424.41" y="193.05" width="2.01" height="2.01"/><rect class="cls-2" x="424.41" y="196.42" width="2.01" height="2.01"/><rect class="cls-2" x="424.41" y="199.79" width="2.01" height="2.01"/><rect class="cls-2" x="424.41" y="203.16" width="2.01" height="2.01"/><rect class="cls-2" x="424.41" y="206.53" width="2.01" height="2.01"/><rect class="cls-2" x="424.41" y="213.27" width="2.01" height="2.01"/><rect class="cls-2" x="424.41" y="216.64" width="2.01" height="2.01"/><rect class="cls-2" x="424.41" y="220.01" width="2.01" height="2.01"/><rect class="cls-2" x="424.41" y="223.38" width="2.01" height="2.01"/><rect class="cls-2" x="424.41" y="226.75" width="2.01" height="2.01"/><rect class="cls-2" x="424.41" y="230.12" width="2.01" height="2.01"/><rect class="cls-2" x="424.41" y="233.49" width="2.01" height="2.01"/><rect class="cls-2" x="424.41" y="236.86" width="2.01" height="2.01"/><rect class="cls-2" x="421.21" y="186.31" width="2.01" height="2.01"/><rect class="cls-2" x="421.21" y="189.68" width="2.01" height="2.01"/><rect class="cls-2" x="421.21" y="193.05" width="2.01" height="2.01"/><rect class="cls-2" x="421.21" y="196.42" width="2.01" height="2.01"/><rect class="cls-2" x="421.21" y="199.79" width="2.01" height="2.01"/><rect class="cls-2" x="421.21" y="203.16" width="2.01" height="2.01"/><rect class="cls-2" x="421.21" y="213.27" width="2.01" height="2.01"/><rect class="cls-2" x="421.21" y="216.64" width="2.01" height="2.01"/><rect class="cls-2" x="421.21" y="220.01" width="2.01" height="2.01"/><rect class="cls-2" x="421.21" y="223.38" width="2.01" height="2.01"/><rect class="cls-2" x="421.21" y="226.75" width="2.01" height="2.01"/><rect class="cls-2" x="421.21" y="230.12" width="2.01" height="2.01"/><rect class="cls-2" x="421.21" y="233.49" width="2.01" height="2.01"/><rect class="cls-2" x="421.21" y="236.86" width="2.01" height="2.01"/><rect class="cls-2" x="418.02" y="186.31" width="2.01" height="2.01"/><rect class="cls-2" x="418.02" y="189.68" width="2.01" height="2.01"/><rect class="cls-2" x="418.02" y="193.05" width="2.01" height="2.01"/><rect class="cls-2" x="418.02" y="196.42" width="2.01" height="2.01"/><rect class="cls-2" x="418.02" y="199.79" width="2.01" height="2.01"/><rect class="cls-2" x="418.02" y="203.16" width="2.01" height="2.01"/><rect class="cls-2" x="418.02" y="209.9" width="2.01" height="2.01"/><rect class="cls-2" x="418.02" y="213.27" width="2.01" height="2.01"/><rect class="cls-2" x="418.02" y="216.64" width="2.01" height="2.01"/><rect class="cls-2" x="418.02" y="220.01" width="2.01" height="2.01"/><rect class="cls-2" x="418.02" y="223.38" width="2.01" height="2.01"/><rect class="cls-2" x="418.02" y="226.75" width="2.01" height="2.01"/><rect class="cls-2" x="418.02" y="230.12" width="2.01" height="2.01"/><rect class="cls-2" x="418.02" y="233.49" width="2.01" height="2.01"/><rect class="cls-2" x="418.02" y="236.86" width="2.01" height="2.01"/><rect class="cls-2" x="350.75" y="167.45" width="2.01" height="2.01"/><rect class="cls-2" x="350.75" y="170.82" width="2.01" height="2.01"/><rect class="cls-2" x="350.75" y="174.19" width="2.01" height="2.01"/><rect class="cls-2" x="350.75" y="177.56" width="2.01" height="2.01"/><rect class="cls-2" x="350.75" y="180.93" width="2.01" height="2.01"/><rect class="cls-2" x="350.75" y="184.3" width="2.01" height="2.01"/><rect class="cls-2" x="350.75" y="187.67" width="2.01" height="2.01"/><rect class="cls-2" x="350.75" y="191.04" width="2.01" height="2.01"/><rect class="cls-2" x="350.75" y="194.41" width="2.01" height="2.01"/><rect class="cls-2" x="350.75" y="197.78" width="2.01" height="2.01"/><rect class="cls-2" x="350.75" y="201.15" width="2.01" height="2.01"/><rect class="cls-2" x="350.75" y="204.52" width="2.01" height="2.01"/><rect class="cls-2" x="350.75" y="207.89" width="2.01" height="2.01"/><rect class="cls-2" x="350.75" y="214.63" width="2.01" height="2.01"/><rect class="cls-2" x="350.75" y="218" width="2.01" height="2.01"/><rect class="cls-2" x="350.75" y="221.37" width="2.01" height="2.01"/><rect class="cls-2" x="350.75" y="224.74" width="2.01" height="2.01"/><rect class="cls-2" x="350.75" y="231.48" width="2.01" height="2.01"/><rect class="cls-2" x="350.75" y="234.85" width="2.01" height="2.01"/><rect class="cls-2" x="350.75" y="238.22" width="2.01" height="2.01"/><rect class="cls-2" x="347.56" y="167.45" width="2.01" height="2.01"/><rect class="cls-2" x="347.56" y="170.82" width="2.01" height="2.01"/><rect class="cls-2" x="347.56" y="174.19" width="2.01" height="2.01"/><rect class="cls-2" x="347.56" y="177.56" width="2.01" height="2.01"/><rect class="cls-2" x="347.56" y="180.93" width="2.01" height="2.01"/><rect class="cls-2" x="347.56" y="184.3" width="2.01" height="2.01"/><rect class="cls-2" x="347.56" y="187.67" width="2.01" height="2.01"/><rect class="cls-2" x="347.56" y="191.04" width="2.01" height="2.01"/><rect class="cls-2" x="347.56" y="194.41" width="2.01" height="2.01"/><rect class="cls-2" x="347.56" y="197.78" width="2.01" height="2.01"/><rect class="cls-2" x="347.56" y="201.15" width="2.01" height="2.01"/><rect class="cls-2" x="347.56" y="204.52" width="2.01" height="2.01"/><rect class="cls-2" x="347.56" y="207.89" width="2.01" height="2.01"/><rect class="cls-2" x="347.56" y="218" width="2.01" height="2.01"/><rect class="cls-2" x="347.56" y="221.37" width="2.01" height="2.01"/><rect class="cls-2" x="347.56" y="228.11" width="2.01" height="2.01"/><rect class="cls-2" x="347.56" y="231.48" width="2.01" height="2.01"/><rect class="cls-2" x="347.56" y="234.85" width="2.01" height="2.01"/><rect class="cls-2" x="347.56" y="238.22" width="2.01" height="2.01"/><rect class="cls-2" x="344.36" y="167.45" width="2.01" height="2.01"/><rect class="cls-2" x="344.36" y="170.82" width="2.01" height="2.01"/><rect class="cls-2" x="344.36" y="174.19" width="2.01" height="2.01"/><rect class="cls-2" x="344.36" y="177.56" width="2.01" height="2.01"/><rect class="cls-2" x="344.36" y="180.93" width="2.01" height="2.01"/><rect class="cls-2" x="344.36" y="184.3" width="2.01" height="2.01"/><rect class="cls-2" x="344.36" y="187.67" width="2.01" height="2.01"/><rect class="cls-2" x="344.36" y="191.04" width="2.01" height="2.01"/><rect class="cls-2" x="344.36" y="194.41" width="2.01" height="2.01"/><rect class="cls-2" x="344.36" y="197.78" width="2.01" height="2.01"/><rect class="cls-2" x="344.36" y="201.15" width="2.01" height="2.01"/><rect class="cls-2" x="344.36" y="204.52" width="2.01" height="2.01"/><rect class="cls-2" x="344.36" y="207.89" width="2.01" height="2.01"/><rect class="cls-2" x="344.36" y="211.26" width="2.01" height="2.01"/><rect class="cls-2" x="344.36" y="218" width="2.01" height="2.01"/><rect class="cls-2" x="344.36" y="224.74" width="2.01" height="2.01"/><rect class="cls-2" x="344.36" y="228.11" width="2.01" height="2.01"/><rect class="cls-2" x="344.36" y="231.48" width="2.01" height="2.01"/><rect class="cls-2" x="344.36" y="234.85" width="2.01" height="2.01"/><rect class="cls-2" x="344.36" y="238.22" width="2.01" height="2.01"/><rect class="cls-2" x="363.75" y="186.67" width="2.01" height="2.01"/><rect class="cls-2" x="363.75" y="190.04" width="2.01" height="2.01"/><rect class="cls-2" x="363.75" y="193.41" width="2.01" height="2.01"/><rect class="cls-2" x="363.75" y="196.78" width="2.01" height="2.01"/><rect class="cls-2" x="363.75" y="200.15" width="2.01" height="2.01"/><rect class="cls-2" x="363.75" y="203.52" width="2.01" height="2.01"/><rect class="cls-2" x="363.75" y="213.63" width="2.01" height="2.01"/><rect class="cls-2" x="363.75" y="216.99" width="2.01" height="2.01"/><rect class="cls-2" x="363.75" y="220.36" width="2.01" height="2.01"/><rect class="cls-2" x="363.75" y="223.73" width="2.01" height="2.01"/><rect class="cls-2" x="363.75" y="227.1" width="2.01" height="2.01"/><rect class="cls-2" x="363.75" y="230.47" width="2.01" height="2.01"/><rect class="cls-2" x="363.75" y="233.84" width="2.01" height="2.01"/><rect class="cls-2" x="360.56" y="186.67" width="2.01" height="2.01"/><rect class="cls-2" x="360.56" y="190.04" width="2.01" height="2.01"/><rect class="cls-2" x="360.56" y="193.41" width="2.01" height="2.01"/><rect class="cls-2" x="360.56" y="196.78" width="2.01" height="2.01"/><rect class="cls-2" x="360.56" y="200.15" width="2.01" height="2.01"/><rect class="cls-2" x="360.56" y="203.52" width="2.01" height="2.01"/><rect class="cls-2" x="360.56" y="213.63" width="2.01" height="2.01"/><rect class="cls-2" x="360.56" y="216.99" width="2.01" height="2.01"/><rect class="cls-2" x="360.56" y="220.36" width="2.01" height="2.01"/><rect class="cls-2" x="360.56" y="223.73" width="2.01" height="2.01"/><rect class="cls-2" x="360.56" y="227.1" width="2.01" height="2.01"/><rect class="cls-2" x="360.56" y="230.47" width="2.01" height="2.01"/><rect class="cls-2" x="360.56" y="237.21" width="2.01" height="2.01"/><rect class="cls-1" x="284.05" y="76.48" width="3.99" height="218.96"/><rect class="cls-1" x="348.13" y="76.49" width="3.38" height="218.96"/><rect class="cls-1" x="411.59" y="76.49" width="3.38" height="218.96"/><circle class="cls-4" cx="163.76" cy="44.01" r="16.37"/><circle class="cls-3" cx="163.76" cy="44.01" r="13.92"/><polyline class="cls-3" points="164.42 34.47 164.42 44.2 170.87 40.55"/><path class="cls-4" d="M125.53,80.07a1.1,1.1,0,0,1-.58-.16,1.17,1.17,0,0,1-.57-1V69.18a1.16,1.16,0,0,1,2.31,0v7.75l4.72-2.67a1.16,1.16,0,1,1,1.14,2l-6.45,3.65A1.13,1.13,0,0,1,125.53,80.07Z" transform="translate(38.89 -34.72)"/><rect class="cls-4" x="90.7" y="160.49" width="26" height="218.38"/><rect class="cls-1" x="113.86" y="160.49" width="72.98" height="218.38"/><rect class="cls-2" x="121.29" y="167.92" width="58.11" height="58.11"/><path class="cls-4" d="M127.18,236.83H95.74a1.6,1.6,0,0,1-1.6-1.6h0a1.6,1.6,0,0,1,1.6-1.59h31.44a1.59,1.59,0,0,1,1.6,1.59h0A1.6,1.6,0,0,1,127.18,236.83Z" transform="translate(38.89 -34.72)"/><path class="cls-4" d="M127.18,243.22H95.74a1.6,1.6,0,0,1-1.6-1.6h0a1.6,1.6,0,0,1,1.6-1.6h31.44a1.6,1.6,0,0,1,1.6,1.6h0A1.6,1.6,0,0,1,127.18,243.22Z" transform="translate(38.89 -34.72)"/><path class="cls-4" d="M127.18,249.6H95.74a1.6,1.6,0,0,1-1.6-1.59h0a1.6,1.6,0,0,1,1.6-1.6h31.44a1.59,1.59,0,0,1,1.6,1.6h0A1.59,1.59,0,0,1,127.18,249.6Z" transform="translate(38.89 -34.72)"/><polygon class="cls-1" points="156.54 190.32 144.16 190.32 140.89 187.05 140.89 180.08 144.16 176.81 156.54 176.81 159.81 180.08 159.81 187.05 156.54 190.32"/><rect class="cls-2" x="121.29" y="231.6" width="58.11" height="58.11"/><path class="cls-4" d="M127.18,300.51H95.74a1.6,1.6,0,0,1-1.6-1.6h0a1.6,1.6,0,0,1,1.6-1.6h31.44a1.6,1.6,0,0,1,1.6,1.6h0A1.6,1.6,0,0,1,127.18,300.51Z" transform="translate(38.89 -34.72)"/><path class="cls-4" d="M127.18,306.89H95.74a1.6,1.6,0,0,1-1.6-1.59h0a1.6,1.6,0,0,1,1.6-1.6h31.44a1.59,1.59,0,0,1,1.6,1.6h0A1.59,1.59,0,0,1,127.18,306.89Z" transform="translate(38.89 -34.72)"/><path class="cls-4" d="M127.18,313.28H95.74a1.6,1.6,0,0,1-1.6-1.6h0a1.6,1.6,0,0,1,1.6-1.59h31.44a1.59,1.59,0,0,1,1.6,1.59h0A1.59,1.59,0,0,1,127.18,313.28Z" transform="translate(38.89 -34.72)"/><polygon class="cls-1" points="156.54 254 144.16 254 140.89 250.73 140.89 243.76 144.16 240.49 156.54 240.49 159.81 243.76 159.81 250.73 156.54 254"/><rect class="cls-2" x="121.29" y="295.28" width="58.11" height="58.11"/><path class="cls-4" d="M127.18,364.18H95.74a1.6,1.6,0,0,1-1.6-1.59h0a1.6,1.6,0,0,1,1.6-1.6h31.44a1.59,1.59,0,0,1,1.6,1.6h0A1.59,1.59,0,0,1,127.18,364.18Z" transform="translate(38.89 -34.72)"/><path class="cls-4" d="M127.18,370.57H95.74a1.6,1.6,0,0,1-1.6-1.6h0a1.6,1.6,0,0,1,1.6-1.59h31.44a1.59,1.59,0,0,1,1.6,1.59h0A1.59,1.59,0,0,1,127.18,370.57Z" transform="translate(38.89 -34.72)"/><path class="cls-4" d="M127.18,377H95.74a1.6,1.6,0,0,1-1.6-1.6h0a1.6,1.6,0,0,1,1.6-1.6h31.44a1.6,1.6,0,0,1,1.6,1.6h0A1.6,1.6,0,0,1,127.18,377Z" transform="translate(38.89 -34.72)"/><polygon class="cls-1" points="156.54 317.68 144.16 317.68 140.89 314.41 140.89 307.43 144.16 304.17 156.54 304.17 159.81 307.43 159.81 314.41 156.54 317.68"/><ellipse id="_Path_" data-name="&lt;Path&gt;" class="cls-5" cx="288.89" cy="417.48" rx="224.05" ry="13.08"/><path class="cls-6" d="M406.09,346.11c.24,1.7-4.37,2.81-8.12,3.44.3,3.09,2.36,6.2,5.19,9.11,3.56-2,8.65-4.66,9.59-4s-4.19,4.08-7.44,6.06a66.87,66.87,0,0,0,7.38,5.59c1.6-1.49,3.47-2.8,4.58-2.09s.85,3,.27,5.1c3.88,2.26,6.79,3.64,6.79,3.64a78.28,78.28,0,0,0,2.59-11c-.2-.39-.39-.78-.57-1.19-.62-1.45,0-2.06,1-2.27a39,39,0,0,0,.06-7.93c-4.39-.92-9.73-2.62-7.73-5.26,1.21-1.58,3.41-1.76,5.71-1.37a9.27,9.27,0,0,0-1.08-1.47c-8-8.81-13.57,0-13.57,0-4.64-3.87-11.16-2.83-12.57,3.22C400.8,345,405.79,344,406.09,346.11Z" transform="translate(38.89 -34.72)"/><path class="cls-7" d="M406.09,346.11c.24,1.7-4.37,2.81-8.12,3.44.3,3.09,2.36,6.2,5.19,9.11,3.56-2,8.65-4.66,9.59-4s-4.19,4.08-7.44,6.06a66.87,66.87,0,0,0,7.38,5.59c1.6-1.49,3.47-2.8,4.58-2.09s.85,3,.27,5.1c3.88,2.26,6.79,3.64,6.79,3.64a78.28,78.28,0,0,0,2.59-11c-.2-.39-.39-.78-.57-1.19-.62-1.45,0-2.06,1-2.27a39,39,0,0,0,.06-7.93c-4.39-.92-9.73-2.62-7.73-5.26,1.21-1.58,3.41-1.76,5.71-1.37a9.27,9.27,0,0,0-1.08-1.47c-8-8.81-13.57,0-13.57,0-4.64-3.87-11.16-2.83-12.57,3.22C400.8,345,405.79,344,406.09,346.11Z" transform="translate(38.89 -34.72)"/><path class="cls-6" d="M416.06,410.8l-1.16-.09c.05-.6,4.73-59.54-8.49-65.1a4.48,4.48,0,0,0-4,.1c-4.78,2.49-7.07,12.81-7.1,12.91l-1.13-.24c.1-.45,2.43-11,7.69-13.69a5.6,5.6,0,0,1,5-.14C420.85,350.42,416.26,408.34,416.06,410.8Z" transform="translate(38.89 -34.72)"/><path class="cls-6" d="M417.72,409.52c-.23-2.65-5.63-65,4.47-71.64,2.42-1.58,4.57-1.92,6.41-1,4.77,2.4,5.4,12.6,5.42,13l-1.15.06c0-.1-.61-10-4.79-12.07-1.44-.73-3.21-.42-5.26.93-9.52,6.25-4,69.93-3.95,70.57Z" transform="translate(38.89 -34.72)"/><path class="cls-6" d="M419.24,414.57c-.07-2-1.74-49.77,7.46-53.95a6.46,6.46,0,0,1,5.47-.05c6.3,2.78,10.2,14.54,10.36,15l-1.1.35c0-.11-3.89-11.76-9.73-14.33a5.23,5.23,0,0,0-4.52,0c-7.05,3.2-7.29,39.24-6.78,52.85Z" transform="translate(38.89 -34.72)"/><path class="cls-6" d="M416.9,412.38l-1.15-.13c1.62-14.21,4.72-52.07-.34-56.58a2,2,0,0,0-2.07-.64c-3.39,1.3-5.46,13.61-6,18.25l-1.14-.13c.19-1.78,2-17.42,6.7-19.2a3,3,0,0,1,3.25.85C422.72,360.64,417.14,410.27,416.9,412.38Z" transform="translate(38.89 -34.72)"/><polygon class="cls-8" points="436.51 350.73 478.02 350.73 474.56 397.23 439.97 397.23 436.51 350.73"/><path class="cls-6" d="M403.27,368.38c-.43,1.13-3.65.24-6.19-.66-.86,2-.67,4.63.08,7.4,2.89,0,6.94.09,7.3.81s-4,1.08-6.67,1.19a46.31,46.31,0,0,0,2.63,6c1.5-.38,3.1-.54,3.55.28s-.53,2.17-1.59,3.24c1.62,2.73,2.94,4.57,2.94,4.57a55.33,55.33,0,0,0,5.37-5.9q0-.46.06-.93c.11-1.11.7-1.28,1.4-1.05a27.21,27.21,0,0,0,2.76-4.87c-2.39-2.07-5.1-4.95-3-5.89,1.29-.57,2.71.08,4,1.11a7.59,7.59,0,0,0-.16-1.28c-1.91-8.17-8.37-4.65-8.37-4.65-1.53-4-5.92-5.57-8.86-2.33C400.39,365.89,403.81,367,403.27,368.38Z" transform="translate(38.89 -34.72)"/><path class="cls-7" d="M403.27,368.38c-.43,1.13-3.65.24-6.19-.66-.86,2-.67,4.63.08,7.4,2.89,0,6.94.09,7.3.81s-4,1.08-6.67,1.19a46.31,46.31,0,0,0,2.63,6c1.5-.38,3.1-.54,3.55.28s-.53,2.17-1.59,3.24c1.62,2.73,2.94,4.57,2.94,4.57a55.33,55.33,0,0,0,5.37-5.9q0-.46.06-.93c.11-1.11.7-1.28,1.4-1.05a27.21,27.21,0,0,0,2.76-4.87c-2.39-2.07-5.1-4.95-3-5.89,1.29-.57,2.71.08,4,1.11a7.59,7.59,0,0,0-.16-1.28c-1.91-8.17-8.37-4.65-8.37-4.65-1.53-4-5.92-5.57-8.86-2.33C400.39,365.89,403.81,367,403.27,368.38Z" transform="translate(38.89 -34.72)"/><path class="cls-6" d="M434.1,373.9a16.27,16.27,0,0,0-3.8.8,8.79,8.79,0,0,1-.55-2.75c-.27-8.37,5.73-4.84,8.89-7.3a6.84,6.84,0,0,1,5.3-1.66,11.19,11.19,0,0,0-.71,1.43,1.31,1.31,0,0,0,1,1.79,3.8,3.8,0,0,0,2.35-.27,5.33,5.33,0,0,0,.6-.42,10.84,10.84,0,0,1,1.15,2.8,16,16,0,0,1,.55,3.58,11.16,11.16,0,0,0-1.4.39,1.31,1.31,0,0,0-.53,2,5.91,5.91,0,0,0,1.73,1.22,19.82,19.82,0,0,1-1.05,3.92l-.43.07a8.45,8.45,0,0,0-.9.22,3.82,3.82,0,0,0-.51.18,1.31,1.31,0,0,0-.29,2.23,5,5,0,0,0,.63.38,9.33,9.33,0,0,1-3.32,3.35,34.68,34.68,0,0,1-3.53-1.87c.25-.33.5-.67.74-1a2,2,0,0,0,.35-1.32,1.78,1.78,0,0,0-.68-1.18,1.77,1.77,0,0,0-2.49.32c-.28.42-.59.81-.89,1.2a21.56,21.56,0,0,1-4.25-4.13l.13,0a12.52,12.52,0,0,1,2.36-.4,1.78,1.78,0,0,0-.46-3.53Z" transform="translate(38.89 -34.72)"/><path class="cls-9" d="M434.1,373.9a16.27,16.27,0,0,0-3.8.8,8.79,8.79,0,0,1-.55-2.75c-.27-8.37,5.73-4.84,8.89-7.3a6.84,6.84,0,0,1,5.3-1.66,11.19,11.19,0,0,0-.71,1.43,1.31,1.31,0,0,0,1,1.79,3.8,3.8,0,0,0,2.35-.27,5.33,5.33,0,0,0,.6-.42,10.84,10.84,0,0,1,1.15,2.8,16,16,0,0,1,.55,3.58,11.16,11.16,0,0,0-1.4.39,1.31,1.31,0,0,0-.53,2,5.91,5.91,0,0,0,1.73,1.22,19.82,19.82,0,0,1-1.05,3.92l-.43.07a8.45,8.45,0,0,0-.9.22,3.82,3.82,0,0,0-.51.18,1.31,1.31,0,0,0-.29,2.23,5,5,0,0,0,.63.38,9.33,9.33,0,0,1-3.32,3.35,34.68,34.68,0,0,1-3.53-1.87c.25-.33.5-.67.74-1a2,2,0,0,0,.35-1.32,1.78,1.78,0,0,0-.68-1.18,1.77,1.77,0,0,0-2.49.32c-.28.42-.59.81-.89,1.2a21.56,21.56,0,0,1-4.25-4.13l.13,0a12.52,12.52,0,0,1,2.36-.4,1.78,1.78,0,0,0-.46-3.53Z" transform="translate(38.89 -34.72)"/><path class="cls-6" d="M436.49,345a11.24,11.24,0,0,1,2.35-1.24,6.29,6.29,0,0,0-.91-1.69c-3.54-4.51-5.14,0-7.88.07a4.7,4.7,0,0,0-3.52,1.45,9.07,9.07,0,0,1,1,.44.9.9,0,0,1,.25,1.39,2.56,2.56,0,0,1-1.35.88,2.94,2.94,0,0,1-.51.05,8.21,8.21,0,0,0,.63,2,10.45,10.45,0,0,0,1.29,2.12,6.77,6.77,0,0,1,.91-.4.88.88,0,0,1,1.14.81,4.21,4.21,0,0,1-.37,1.4,13.11,13.11,0,0,0,2.27,1.59l.26-.15c.18-.1.38-.19.57-.28a2.3,2.3,0,0,1,.34-.12.9.9,0,0,1,.86.19.88.88,0,0,1,.27.85,3,3,0,0,1-.16.48,6.44,6.44,0,0,0,3.21.3,24,24,0,0,0,1-2.53c-.28-.07-.56-.13-.83-.21a1.37,1.37,0,0,1-.77-.54,1.28,1.28,0,0,1-.16-.92,1.3,1.3,0,0,1,.54-.76,1.19,1.19,0,0,1,.92-.16c.32.09.66.17,1,.24a15.5,15.5,0,0,0,.42-4l-.08,0a8.78,8.78,0,0,0-1.42.83,1.24,1.24,0,0,1-1.68-.37A1.26,1.26,0,0,1,436.49,345Z" transform="translate(38.89 -34.72)"/><path class="cls-7" d="M436.49,345a11.24,11.24,0,0,1,2.35-1.24,6.29,6.29,0,0,0-.91-1.69c-3.54-4.51-5.14,0-7.88.07a4.7,4.7,0,0,0-3.52,1.45,9.07,9.07,0,0,1,1,.44.9.9,0,0,1,.25,1.39,2.56,2.56,0,0,1-1.35.88,2.94,2.94,0,0,1-.51.05,8.21,8.21,0,0,0,.63,2,10.45,10.45,0,0,0,1.29,2.12,6.77,6.77,0,0,1,.91-.4.88.88,0,0,1,1.14.81,4.21,4.21,0,0,1-.37,1.4,13.11,13.11,0,0,0,2.27,1.59l.26-.15c.18-.1.38-.19.57-.28a2.3,2.3,0,0,1,.34-.12.9.9,0,0,1,.86.19.88.88,0,0,1,.27.85,3,3,0,0,1-.16.48,6.44,6.44,0,0,0,3.21.3,24,24,0,0,0,1-2.53c-.28-.07-.56-.13-.83-.21a1.37,1.37,0,0,1-.77-.54,1.28,1.28,0,0,1-.16-.92,1.3,1.3,0,0,1,.54-.76,1.19,1.19,0,0,1,.92-.16c.32.09.66.17,1,.24a15.5,15.5,0,0,0,.42-4l-.08,0a8.78,8.78,0,0,0-1.42.83,1.24,1.24,0,0,1-1.68-.37A1.26,1.26,0,0,1,436.49,345Z" transform="translate(38.89 -34.72)"/><path class="cls-6" d="M402.67,353.42c-.24,1.69,4.36,2.81,8.12,3.44-.31,3.08-2.36,6.2-5.19,9.11-3.57-2-8.66-4.66-9.6-4s4.19,4.07,7.45,6.06a66.87,66.87,0,0,1-7.38,5.59c-1.6-1.49-3.47-2.81-4.59-2.1s-.84,3.05-.27,5.11c-3.88,2.26-6.78,3.64-6.78,3.64a78.28,78.28,0,0,1-2.59-11c.19-.39.39-.78.57-1.19.62-1.45,0-2.06-1-2.27a38.28,38.28,0,0,1-.06-7.93c4.39-.92,9.72-2.63,7.72-5.26-1.2-1.59-3.41-1.77-5.71-1.37a10.09,10.09,0,0,1,1.09-1.48c8-8.8,13.56,0,13.56,0,4.64-3.86,11.17-2.82,12.58,3.23C408,352.31,403,351.32,402.67,353.42Z" transform="translate(38.89 -34.72)"/><path class="cls-9" d="M402.67,353.42c-.24,1.69,4.36,2.81,8.12,3.44-.31,3.08-2.36,6.2-5.19,9.11-3.57-2-8.66-4.66-9.6-4s4.19,4.07,7.45,6.06a66.87,66.87,0,0,1-7.38,5.59c-1.6-1.49-3.47-2.81-4.59-2.1s-.84,3.05-.27,5.11c-3.88,2.26-6.78,3.64-6.78,3.64a78.28,78.28,0,0,1-2.59-11c.19-.39.39-.78.57-1.19.62-1.45,0-2.06-1-2.27a38.28,38.28,0,0,1-.06-7.93c4.39-.92,9.72-2.63,7.72-5.26-1.2-1.59-3.41-1.77-5.71-1.37a10.09,10.09,0,0,1,1.09-1.48c8-8.8,13.56,0,13.56,0,4.64-3.86,11.17-2.82,12.58,3.23C408,352.31,403,351.32,402.67,353.42Z" transform="translate(38.89 -34.72)"/><path class="cls-8" d="M180.76,448.53,151.63,437.8l-29.44,10.74a1.57,1.57,0,0,1-2.1-1.47h0a1.56,1.56,0,0,1,.91-1.41l30.63-14.21L182,445.66a1.55,1.55,0,0,1,.89,1.41h0A1.56,1.56,0,0,1,180.76,448.53Z" transform="translate(38.89 -34.72)"/><path class="cls-10" d="M180.76,448.53,151.63,437.8l-29.44,10.74a1.57,1.57,0,0,1-2.1-1.47h0a1.56,1.56,0,0,1,.91-1.41l30.63-14.21L182,445.66a1.55,1.55,0,0,1,.89,1.41h0A1.56,1.56,0,0,1,180.76,448.53Z" transform="translate(38.89 -34.72)"/><polygon class="cls-11" points="183.65 405.59 190.52 403.09 197.07 405.5 197.07 399.8 190.52 396.73 183.65 399.91 183.65 405.59"/><path class="cls-8" d="M151.47,448.78h0a2.58,2.58,0,0,1-2.57-2.34l-.82-8.64V366.14h6.79V437.8l-.82,8.64A2.59,2.59,0,0,1,151.47,448.78Z" transform="translate(38.89 -34.72)"/><path class="cls-10" d="M151.47,448.78h0a2.58,2.58,0,0,1-2.57-2.34l-.82-8.64V366.14h6.79V437.8l-.82,8.64A2.59,2.59,0,0,1,151.47,448.78Z" transform="translate(38.89 -34.72)"/><rect class="cls-11" x="186.96" y="331.42" width="6.79" height="8.35"/><path class="cls-6" d="M136.24,292.31a2.87,2.87,0,0,1,2.59,1.49,100.32,100.32,0,0,1,12.57,69.3,2.54,2.54,0,0,1-2.41,2.26c-1.89.12-35.42,0-36.63,0a3.38,3.38,0,0,1-3.41-3.93A93.67,93.67,0,0,0,97,297c-1.43-2.39.68-4.62,2.82-4.66C100.8,292.29,134.1,292.35,136.24,292.31Z" transform="translate(38.89 -34.72)"/><path class="cls-11" d="M136.24,292.31a2.87,2.87,0,0,1,2.59,1.49,100.32,100.32,0,0,1,12.57,69.3,2.54,2.54,0,0,1-2.41,2.26c-1.89.12-35.42,0-36.63,0a3.38,3.38,0,0,1-3.41-3.93A93.67,93.67,0,0,0,97,297c-1.43-2.39.68-4.62,2.82-4.66C100.8,292.29,134.1,292.35,136.24,292.31Z" transform="translate(38.89 -34.72)"/><path class="cls-6" d="M109,361.43A93.67,93.67,0,0,0,97,297c-2.08-3.47,3.34-6.63,5.42-3.17A100.43,100.43,0,0,1,115,363.1c-.72,4-6.77,2.28-6-1.67Z" transform="translate(38.89 -34.72)"/><g class="cls-12"><path class="cls-13" d="M109,361.43A93.67,93.67,0,0,0,97,297c-2.08-3.47,3.34-6.63,5.42-3.17A100.43,100.43,0,0,1,115,363.1c-.72,4-6.77,2.28-6-1.67Z" transform="translate(38.89 -34.72)"/></g><path class="cls-6" d="M213.51,359.62A106.11,106.11,0,0,0,190,356.38c-8.16-.21-38.71,0-46,0a105.49,105.49,0,0,0-26.23,3.27c-5.39,1.37-3.73,9.14,1.14,9.23.42,0,92.78,0,93.12,0C217.16,369.08,219,361,213.51,359.62Z" transform="translate(38.89 -34.72)"/><path class="cls-14" d="M213.51,359.62A106.11,106.11,0,0,0,190,356.38c-8.16-.21-38.71,0-46,0a105.49,105.49,0,0,0-26.23,3.27c-5.39,1.37-3.73,9.14,1.14,9.23.42,0,92.78,0,93.12,0C217.16,369.08,219,361,213.51,359.62Z" transform="translate(38.89 -34.72)"/><path class="cls-6" d="M120.31,368.69a96.29,96.29,0,0,1,47.46,0c5.86,1.49,8.37-7.58,2.5-9.07a106.6,106.6,0,0,0-52.46,0c-5.87,1.49-3.38,10.56,2.5,9.07Z" transform="translate(38.89 -34.72)"/><g class="cls-15"><path class="cls-13" d="M120.31,368.69a96.29,96.29,0,0,1,47.46,0c5.86,1.49,8.37-7.58,2.5-9.07a106.6,106.6,0,0,0-52.46,0c-5.87,1.49-3.38,10.56,2.5,9.07Z" transform="translate(38.89 -34.72)"/></g><rect class="cls-8" x="175.02" y="288.41" width="41.36" height="16.58"/><rect class="cls-16" x="175.02" y="288.41" width="41.36" height="16.58"/><polygon class="cls-17" points="238.66 376.46 233.22 400.17 239.97 402.78 249.7 378.94 238.66 376.46"/><path class="cls-8" d="M200.69,436l-6.14-3.29a.64.64,0,0,0-.79.15l-4.39,5.07a1.09,1.09,0,0,0,.1,1.52.8.8,0,0,0,.19.13c2.58,1.33,4.92,2.41,8.1,4.13,3.75,2,2.55,2,6.93,4.39,2.64,1.47,4.75-1.29,3.7-2-4.8-3.43-5.44-5.8-6.44-8.72A2.54,2.54,0,0,0,200.69,436Z" transform="translate(38.89 -34.72)"/><path class="cls-8" d="M145,337.66l33.19-1.82s55.13,8.62,54.34,24-23.25,64-23.25,64l-13.16-3.66s10-48.86,16.56-57c0,0-41.18-4.83-51.48-7.58C155.53,354.18,141.87,356.74,145,337.66Z" transform="translate(38.89 -34.72)"/><path class="cls-16" d="M145,337.66l33.19-1.82s55.13,8.62,54.34,24-23.25,64-23.25,64l-13.16-3.66s10-48.86,16.56-57c0,0-41.18-4.83-51.48-7.58C155.53,354.18,141.87,356.74,145,337.66Z" transform="translate(38.89 -34.72)"/><path class="cls-11" d="M207.11,362.6a29.63,29.63,0,0,0-2.53-13.31c-3.07-6.92-28.31-11.07-40.38-12.68L145,337.66c-3.13,19.08,10.53,16.52,16.2,18C169.15,357.82,195.5,361.18,207.11,362.6Z" transform="translate(38.89 -34.72)"/><polygon class="cls-17" points="216.12 382.99 215.24 407.29 222.56 407.64 227.43 383.34 216.12 382.99"/><path class="cls-8" d="M183.15,440.15l-7.09.15a.64.64,0,0,0-.63.52l-1.36,6.69a1.09,1.09,0,0,0,.84,1.3.65.65,0,0,0,.24,0c2.95-.1,5.57-.31,9.24-.37,4.34-.08,3.25.46,8.35.44,3.07,0,3.57-3.52,2.26-3.67-6-.64-7.72-2.43-10.06-4.52A2.64,2.64,0,0,0,183.15,440.15Z" transform="translate(38.89 -34.72)"/><polygon class="cls-8" points="233.97 382.64 250.52 387.26 247.49 393.62 232.4 389.87 233.97 382.64"/><polygon class="cls-18" points="233.97 382.64 250.52 387.26 247.49 393.62 232.4 389.87 233.97 382.64"/><path class="cls-8" d="M153.88,337.67s44.42,1.56,47,15.15-12.28,74.47-12.28,74.47H175.31s1.57-54.61,6-66.11c0,0-36.58,5.75-46.25-2.55-6.91-5.94,1.31-21,1.31-21Z" transform="translate(38.89 -34.72)"/><path class="cls-16" d="M153.88,337.67s44.42,1.56,47,15.15-12.28,74.47-12.28,74.47H175.31s1.57-54.61,6-66.11c0,0-36.58,5.75-46.25-2.55-6.91-5.94,1.31-21,1.31-21Z" transform="translate(38.89 -34.72)"/><polygon class="cls-8" points="212.89 389.18 229.62 389.96 228.05 396.62 212.89 395.84 212.89 389.18"/><polygon class="cls-18" points="212.89 389.18 229.62 389.96 228.05 396.62 212.89 395.84 212.89 389.18"/><path class="cls-17" d="M212.89,286.14l7.13-2.66L214,277.63s-6.21,2.75-4.66,5.89Z" transform="translate(38.89 -34.72)"/><polygon class="cls-17" points="263.56 242.85 256.63 239.58 252.84 242.91 258.9 248.77 263.56 242.85"/><polygon class="cls-6" points="242.74 251.74 246.93 247.17 252.54 251.95 247.99 257.31 242.74 251.74"/><polygon class="cls-19" points="242.74 251.74 246.93 247.17 252.54 251.95 247.99 257.31 242.74 251.74"/><path class="cls-8" d="M175.43,258.34s4.38,5,10.7,21.26,13.32,11.52,21,2.75l6.32,5.75s-11.81,14.72-19.25,14.72c-8.28,0-16.31-12.83-17.93-21.79S175.43,258.34,175.43,258.34Z" transform="translate(38.89 -34.72)"/><path class="cls-20" d="M177,267.76l-2.35-2-1.1,6.26c.15,1.82.37,3.59.66,5.21.92,5.11,4.38,11.81,8.1,17.39A207.61,207.61,0,0,0,177,267.76Z" transform="translate(38.89 -34.72)"/><path class="cls-8" d="M132,306.8l.66,33.9,25,.84c3.26,0,4-2.16,4.7-4.63l1.23-4.43,1.08,4c.67,2.44,4.08,2.84,6.56,2.34l10.87-2.69-2.5-33.39s1.68-25.14-2.25-41.24c-.75-3.07-3.54-5.2-6.61-5.94a65.94,65.94,0,0,0-39,3,3.74,3.74,0,0,0-2.35,3.93Z" transform="translate(38.89 -34.72)"/><path class="cls-21" d="M163,292.44a1,1,0,1,1-1-1A1,1,0,0,1,163,292.44Z" transform="translate(38.89 -34.72)"/><path class="cls-21" d="M164,306.8a1,1,0,1,1-1-1A1,1,0,0,1,164,306.8Z" transform="translate(38.89 -34.72)"/><path class="cls-21" d="M164.44,321a1,1,0,1,1-1-1A1,1,0,0,1,164.44,321Z" transform="translate(38.89 -34.72)"/><path class="cls-8" d="M146.31,253.47a22,22,0,0,1,12.42-.87l2.55,1.46.89,2.84-3.23,2.53-7.62.77-6.3-2.6.35-2.8Z" transform="translate(38.89 -34.72)"/><path class="cls-17" d="M160.26,254.93c-2.53-.67-4.32-5.07-2.24-7.91L147,238.47c1.61,15.43.83,12.62-1.47,17.06,0,0,1.59,5.14,10.49,3.54C161.78,258,160.26,254.93,160.26,254.93Z" transform="translate(38.89 -34.72)"/><path class="cls-11" d="M158,247l-11.12-8.24c.28,2.17.31,2.19.47,3.76,1.17,2.39,3.55,8.47,9.82,8.65C156.92,250.1,157.23,247.72,158,247Z" transform="translate(38.89 -34.72)"/><polygon class="cls-6" points="184.55 228.36 187.58 238.24 194.63 248.43 200.41 254.45 202.58 245.63 201.88 227.22 201.78 223.25 200.15 220.97 197.58 223.23 195.39 224.07 192.18 224.1 183.76 221.54 184.55 228.36"/><polygon class="cls-22" points="184.55 228.36 187.58 238.24 194.63 248.43 200.41 254.45 202.58 245.63 201.88 227.22 201.78 223.25 200.15 220.97 197.58 223.23 195.39 224.07 192.18 224.1 183.76 221.54 184.55 228.36"/><polygon class="cls-23" points="184.55 228.36 187.58 238.24 194.63 248.43 200.41 254.45 202.58 245.63 201.88 227.22 201.78 223.25 200.15 220.97 197.58 223.23 195.39 224.07 192.18 224.1 183.76 221.54 184.55 228.36"/><path class="cls-6" d="M152.46,261.93a13.43,13.43,0,0,0,3.28,4.2s-1.41,10.07.76,17.12l5,5.92,1.47-7.32s-2.25-11.7-5.27-16.13a18.32,18.32,0,0,0,1.67-4.81l-1.8-1.48s-2.5,1.78-4,.54Z" transform="translate(38.89 -34.72)"/><path class="cls-6" d="M145.46,254.38s4.65,4,9.32,4,5.19-4.87,5.19-4.87l2,2.13a14.06,14.06,0,0,1-1.61,7.1l-4.87-3.29-3.3,4.76s-5.17-2.49-7.7-6.95Z" transform="translate(38.89 -34.72)"/><path class="cls-19" d="M145.46,254.38s4.65,4,9.32,4,5.19-4.87,5.19-4.87l2,2.13a14.06,14.06,0,0,1-1.61,7.1l-4.87-3.29-3.3,4.76s-5.17-2.49-7.7-6.95Z" transform="translate(38.89 -34.72)"/><path class="cls-8" d="M146.31,253.47s-3.82,11.75,15,34.17c0,0,3.37-27.46-2.54-35l4.1,1.63,4.28,6.46-3.13,2,3.87,1.73s-.55,8.9-6,26c0,0-12.35-9.54-20.41-22.42l3.75-3-5-.79,2.23-8.92Z" transform="translate(38.89 -34.72)"/><path class="cls-14" d="M146.31,253.47s-3.82,11.75,15,34.17c0,0,3.37-27.46-2.54-35l4.1,1.63,4.28,6.46-3.13,2,3.87,1.73s-.55,8.9-6,26c0,0-12.35-9.54-20.41-22.42l3.75-3-5-.79,2.23-8.92Z" transform="translate(38.89 -34.72)"/><path class="cls-20" d="M129.87,265.73,134.76,293l.58-.71c2.67-14-1.06-27.34-1.06-27.34l-1.49.8Z" transform="translate(38.89 -34.72)"/><path class="cls-8" d="M161,217.55s5.32,9.84,1.23,15.82-11-13.39-11-13.39Z" transform="translate(38.89 -34.72)"/><path class="cls-17" d="M165.69,238.94a9.43,9.43,0,0,1-.14,1.19,11,11,0,0,1-1.43,3.89,11.07,11.07,0,0,1-2.82,3.15,10.26,10.26,0,0,1-7.11,2.13,10,10,0,0,1-5-1.9c-4.67-3.29-5.39-7.93-7.24-15.66a10.88,10.88,0,0,1,12.87-13.32C163,220.18,166.13,231.61,165.69,238.94Z" transform="translate(38.89 -34.72)"/><path class="cls-8" d="M154.18,231.83c.06.64.53,1.09,1,1s.65-.65.55-1.29-.55-1.09-1-1S154.07,231.18,154.18,231.83Z" transform="translate(38.89 -34.72)"/><path class="cls-8" d="M161.38,230.55c.07.64.54,1.09,1,1s.66-.66.55-1.29-.55-1.09-1-1S161.27,230,161.38,230.55Z" transform="translate(38.89 -34.72)"/><path class="cls-24" d="M159.15,231.27a22.81,22.81,0,0,0,4,4.91,3.75,3.75,0,0,1-3,1.12Z" transform="translate(38.89 -34.72)"/><path class="cls-8" d="M163.5,227a.37.37,0,0,1-.39.06,3,3,0,0,0-2.74.17.38.38,0,0,1-.43-.62h0a3.76,3.76,0,0,1,3.45-.25.36.36,0,0,1,.22.48h0A.42.42,0,0,1,163.5,227Z" transform="translate(38.89 -34.72)"/><path class="cls-8" d="M152.24,229.2a.35.35,0,0,1-.22,0,.38.38,0,0,1-.06-.53h0a3.75,3.75,0,0,1,3.16-1.44.39.39,0,0,1,.33.42h0a.38.38,0,0,1-.42.33h0a3.09,3.09,0,0,0-2.49,1.18A.38.38,0,0,1,152.24,229.2Z" transform="translate(38.89 -34.72)"/><path class="cls-8" d="M145.93,221l1.19,3.33a2.6,2.6,0,0,0-.56,3.49c1.76,2.63,1.14,7.45-.66,9.73,0,0-.35-1.23-1.34-.7s.78,6.95,3.53,9.58c0,0-3.74-2.09-7-8.5-3-5.93-4.43-11.13-3.69-13.86Z" transform="translate(38.89 -34.72)"/><path class="cls-17" d="M139.63,238.76a7.56,7.56,0,0,0,4.93,3c2.63.39,3.61-2,2.61-4.34-.9-2-3.36-4.78-5.86-4.09S138.2,236.76,139.63,238.76Z" transform="translate(38.89 -34.72)"/><path class="cls-8" d="M137.18,225.72s-1.82-4.31,4.49-9.35,14.93-2.71,19-6.75,6.92,8.34-2.87,11.92A81.58,81.58,0,0,1,137.18,225.72Z" transform="translate(38.89 -34.72)"/><path class="cls-8" d="M160.05,239.62a23.77,23.77,0,0,0-1.94,2.83l-.57-.22c-2.55-1-3.4-2.31-3.57-3.46a3.63,3.63,0,0,1,.19-1.66,3.32,3.32,0,0,1,.43-.86c1,1.34,3.34,2.46,4.59,3C159.71,239.5,160.05,239.62,160.05,239.62Z" transform="translate(38.89 -34.72)"/><path class="cls-13" d="M159.18,239.26l-.59.82c-2.4-1-4-2-4.43-3a3.32,3.32,0,0,1,.43-.86C155.62,237.59,157.93,238.71,159.18,239.26Z" transform="translate(38.89 -34.72)"/><path class="cls-24" d="M157.54,242.23c-2.55-1-3.4-2.31-3.57-3.46a8.85,8.85,0,0,1,2.61,1.68A3.28,3.28,0,0,1,157.54,242.23Z" transform="translate(38.89 -34.72)"/><path class="cls-8" d="M115,295.9c1.21,2.59,3.28,2.84,5.42,1.78a13.66,13.66,0,0,0,4.78-4.45c1-1.4,2.28-3.5,3.62-5.71,2.86-4.8,5.84-10.13,5.84-10.13a11,11,0,0,0,2-9.61c-1.73-5.14-3.86-8.09-6-8.35C124.93,262.18,112.87,291.26,115,295.9Z" transform="translate(38.89 -34.72)"/><path class="cls-25" d="M120.45,297.68a13.66,13.66,0,0,0,4.78-4.45c1-1.4,2.28-3.5,3.62-5.71a54.5,54.5,0,0,0-3.39-5.4l-2.91,8.17s-5.1,1.17-5.91,3.83C116.33,295.13,118.07,296.56,120.45,297.68Z" transform="translate(38.89 -34.72)"/><path class="cls-8" d="M120.62,274.32,130.26,311a1.89,1.89,0,0,0,2,1.35l25.56-3.4a1.4,1.4,0,0,0,1.2-1.78l-9.64-36.73a1.88,1.88,0,0,0-2-1.34l-25.56,3.4A1.41,1.41,0,0,0,120.62,274.32Z" transform="translate(38.89 -34.72)"/><path class="cls-26" d="M120.62,274.32,130.26,311a1.89,1.89,0,0,0,2,1.35l24.4-3.25a1.39,1.39,0,0,0,1.19-1.78l-9.63-36.72a1.89,1.89,0,0,0-2-1.35l-24.4,3.25A1.41,1.41,0,0,0,120.62,274.32Z" transform="translate(38.89 -34.72)"/><path class="cls-10" d="M138.37,288.32a2.7,2.7,0,0,1,2.89,1.94,2,2,0,0,1-1.72,2.54,2.69,2.69,0,0,1-2.88-1.93A2,2,0,0,0,138.37,288.32Z" transform="translate(38.89 -34.72)"/><path class="cls-8" d="M118.55,304.56c1.72.91,5.61-.47,6.79-.94l.36-.14s2.13-6.92-3.4-10.66a.27.27,0,0,0-.13-.07c-1.76-.95-7.21.27-7.37,2.11C114.14,302.25,116.5,303.48,118.55,304.56Z" transform="translate(38.89 -34.72)"/><path class="cls-25" d="M121.92,298.65a8.8,8.8,0,0,0,3.42,5l.36-.14s2.13-6.92-3.4-10.66a.27.27,0,0,0-.13-.07C121.69,293.37,120.94,295,121.92,298.65Z" transform="translate(38.89 -34.72)"/><path class="cls-17" d="M129.88,289.87s-3.54-.15-5.17,0-1.13,5.4-1.13,5.4l-1.4.75s-1.14,3.09,1.3,4.64l1.25-.43a3.61,3.61,0,0,0,1.36,1.86c1,.62,5.95-.78,5.95-.78Z" transform="translate(38.89 -34.72)"/><path class="cls-6" d="M222,312.4a1.19,1.19,0,1,0,0-2.37H189.74a1.19,1.19,0,0,0,0,2.37Z" transform="translate(38.89 -34.72)"/><path class="cls-23" d="M222,312.4a1.19,1.19,0,1,0,0-2.37H189.74a1.19,1.19,0,0,0,0,2.37Z" transform="translate(38.89 -34.72)"/><path class="cls-6" d="M219.23,310.35l4.29-30.52a2.41,2.41,0,0,1,2.32-2H230v34.59h-9A1.72,1.72,0,0,1,219.23,310.35Z" transform="translate(38.89 -34.72)"/><path class="cls-27" d="M219.23,310.35l4.29-30.52a2.41,2.41,0,0,1,2.32-2H230v34.59h-9A1.72,1.72,0,0,1,219.23,310.35Z" transform="translate(38.89 -34.72)"/><path class="cls-6" d="M222.75,312.38h36.43a2.41,2.41,0,0,0,2.32-2l4.29-30.52a1.72,1.72,0,0,0-1.74-2H227.61a2.42,2.42,0,0,0-2.32,2L221,310.35A1.73,1.73,0,0,0,222.75,312.38Z" transform="translate(38.89 -34.72)"/><path class="cls-23" d="M222.75,312.38h36.43a2.41,2.41,0,0,0,2.32-2l4.29-30.52a1.72,1.72,0,0,0-1.74-2H227.61a2.42,2.42,0,0,0-2.32,2L221,310.35A1.73,1.73,0,0,0,222.75,312.38Z" transform="translate(38.89 -34.72)"/><path class="cls-28" d="M240.37,296.66a2.66,2.66,0,0,0,2.7,3.14,3.72,3.72,0,0,0,3.57-3.14,2.65,2.65,0,0,0-2.69-3.13A3.73,3.73,0,0,0,240.37,296.66Z" transform="translate(38.89 -34.72)"/><polygon class="cls-8" points="149.54 414.84 152.56 414.84 156.45 285.22 152.46 285.22 149.54 414.84"/><polygon class="cls-27" points="149.54 414.84 152.56 414.84 156.45 285.22 152.46 285.22 149.54 414.84"/><polygon class="cls-8" points="198.25 285.22 198.25 414.84 195.06 414.84 191.3 291.14 152.72 291.14 149.9 414.84 146.73 414.84 146.73 285.22 198.25 285.22"/><polygon class="cls-26" points="198.25 285.22 198.25 414.84 195.06 414.84 191.3 291.14 152.72 291.14 149.9 414.84 146.73 414.84 146.73 285.22 198.25 285.22"/><polygon class="cls-8" points="198.25 414.84 201.27 414.84 202.25 285.22 198.25 285.22 198.25 414.84"/><polygon class="cls-27" points="198.25 414.84 201.27 414.84 202.25 285.22 198.25 285.22 198.25 414.84"/><polygon class="cls-8" points="313.51 414.84 316.53 414.84 320.42 285.22 316.43 285.22 313.51 414.84"/><polygon class="cls-27" points="313.51 414.84 316.53 414.84 320.42 285.22 316.43 285.22 313.51 414.84"/><polygon class="cls-8" points="362.22 285.22 362.22 414.84 359.03 414.84 355.27 291.14 316.69 291.14 313.87 414.84 310.7 414.84 310.7 285.22 362.22 285.22"/><polygon class="cls-26" points="362.22 285.22 362.22 414.84 359.03 414.84 355.27 291.14 316.69 291.14 313.87 414.84 310.7 414.84 310.7 285.22 362.22 285.22"/><polygon class="cls-8" points="362.22 414.84 365.24 414.84 366.22 285.22 362.22 285.22 362.22 414.84"/><polygon class="cls-27" points="362.22 414.84 365.24 414.84 366.22 285.22 362.22 285.22 362.22 414.84"/><rect class="cls-8" x="161.86" y="312.48" width="170.76" height="7.45" transform="translate(533.36 597.7) rotate(180)"/><rect class="cls-23" x="161.86" y="312.48" width="170.76" height="7.45" transform="translate(533.36 597.7) rotate(180)"/><rect class="cls-8" x="102.56" y="312.48" width="63.94" height="7.45" transform="translate(307.94 597.7) rotate(180)"/><rect class="cls-10" x="102.56" y="312.48" width="63.94" height="7.45" transform="translate(307.94 597.7) rotate(180)"/><path class="cls-29" d="M299.71,269.65l2.94-5.35,4,5.5s-2.91,4.62-5.23,3Z" transform="translate(38.89 -34.72)"/><polygon class="cls-29" points="346.78 226.58 348.57 232.46 345.49 235.09 341.54 229.59 346.78 226.58"/><path class="cls-11" d="M304.09,263.48a16.48,16.48,0,0,0,2.51,6.32l.64-.54-2-6.43Z" transform="translate(38.89 -34.72)"/><polygon class="cls-29" points="337.86 245.32 338.6 234.94 342.51 235.68 342.51 246.13 337.86 245.32"/><polygon class="cls-29" points="287.62 371.02 293.58 373.36 297.88 365.27 301.78 357.91 295.16 353.95 291.17 362.98 287.62 371.02"/><polygon class="cls-25" points="291.17 362.98 297.88 365.27 301.78 357.91 295.16 353.95 291.17 362.98"/><path class="cls-8" d="M253.52,393.28l8.12,4.36s30.67-53.93,35.39-53.48,49.46,29,63.11,18.43.37-42.24.37-42.24-28.23-8.07-31.29-1.86a45.19,45.19,0,0,0-2,5.67c-.6,1.94-1.05,3.58-1.05,3.58h0c-.86-.35-28.74-11.78-41.19-5.66C272.29,328.31,253.52,393.28,253.52,393.28Z" transform="translate(38.89 -34.72)"/><path class="cls-7" d="M253.52,393.28l8.12,4.36s30.67-53.93,35.39-53.48,49.46,29,63.11,18.43.37-42.24.37-42.24-28.23-8.07-31.29-1.86a45.19,45.19,0,0,0-2,5.67c-.6,1.94-1.05,3.58-1.05,3.58h0c-.86-.35-28.74-11.78-41.19-5.66C272.29,328.31,253.52,393.28,253.52,393.28Z" transform="translate(38.89 -34.72)"/><polygon class="cls-29" points="336.51 402.55 342.87 401.82 342.9 392.84 342.91 384.6 335.22 384.23 335.9 393.93 336.51 402.55"/><polygon class="cls-25" points="335.92 394.13 342.92 393.01 342.92 384.68 335.22 384.28 335.92 394.13"/><polygon class="cls-8" points="304.5 360.25 292.62 354.3 291.38 359.33 300.37 363.97 304.5 360.25"/><path class="cls-8" d="M339.06,362.68s-2-.23-32-5.79c0,0-.67,38.38-2.1,67l-9.24.3s-13.26-63.5-11.7-73.08,13-10.89,13-10.89S316.82,355.6,339.06,362.68Z" transform="translate(38.89 -34.72)"/><path class="cls-30" d="M339.06,362.68s-2-.23-32-5.79c0,0-.67,38.38-2.1,67l-9.24.3s-13.26-63.5-11.7-73.08,13-10.89,13-10.89S316.82,355.6,339.06,362.68Z" transform="translate(38.89 -34.72)"/><path class="cls-31" d="M339.06,362.68s-2-.23-32-5.79c0,0-.67,38.38-2.1,67l-9.24.3s-13.26-63.5-11.7-73.08,13-10.89,13-10.89S316.82,355.6,339.06,362.68Z" transform="translate(38.89 -34.72)"/><polygon class="cls-8" points="345.58 386.6 332.97 386.31 334.7 391.5 344.92 391.6 345.58 386.6"/><path class="cls-8" d="M236.87,416.32A8.45,8.45,0,0,1,240,416s3.85-1.61,8.51-9.27l4,.52c1.94.26,4.56,2.5,4.13,4.33-.9,3.84-4,7.12-5.65,10.69l-.65-.27,2-5.75c.69-2-1.7-.31-3,1.59s-3,3.73-7.29,2.12C237.1,418,235.14,417,236.87,416.32Z" transform="translate(38.89 -34.72)"/><path class="cls-29" d="M249.47,404.66s-6.39,9.7-9.52,11.31c0,0,3.52,2.81,8.2-1.72,6.06-5.87,7.08-5.59,7.08-5.59a5.38,5.38,0,0,0-.17-1.7C254.57,404.73,249.47,404.66,249.47,404.66Z" transform="translate(38.89 -34.72)"/><path class="cls-8" d="M288.09,448.55a8.7,8.7,0,0,1,2.92-1.07s3.36-2.47,6.06-11l4-.44c3.28-.35,5.23,1.6,5.06,4-.05,3-3,11-3,11l-.69-.1.61-6.08c.2-2.06-1.72.11-2.5,2.25s-2.07,4.35-6.58,3.8C288.73,450.16,286.58,449.64,288.09,448.55Z" transform="translate(38.89 -34.72)"/><path class="cls-29" d="M297.57,434.24s-3.9,10.93-6.56,13.24c0,0,4.08,1.9,7.55-3.62,4.5-7.13,6.29-6.89,6.29-6.89a7.26,7.26,0,0,1-1.31-1.82C302.55,433.1,297.57,434.24,297.57,434.24Z" transform="translate(38.89 -34.72)"/><path class="cls-8" d="M308.1,253.51a.31.31,0,0,1-.25-.13,3.75,3.75,0,0,0-3-1.39h0a.29.29,0,0,1,0-.57,4.25,4.25,0,0,1,3.48,1.64.29.29,0,0,1-.09.4A.27.27,0,0,1,308.1,253.51Z" transform="translate(38.89 -34.72)"/><path class="cls-32" d="M305.83,256.94a16.66,16.66,0,0,1-2.58,3A2.14,2.14,0,0,0,305.2,261Z" transform="translate(38.89 -34.72)"/><path class="cls-8" d="M304.71,254.68c-.08.63.2,1.19.62,1.24s.83-.41.91-1-.2-1.19-.62-1.24S304.79,254.05,304.71,254.68Z" transform="translate(38.89 -34.72)"/><path class="cls-8" d="M305.79,253.68l-1.3-.71S305,254.21,305.79,253.68Z" transform="translate(38.89 -34.72)"/><path class="cls-29" d="M321.14,269.84a1.45,1.45,0,0,1-.26.17,11.65,11.65,0,0,1-4.15,1.79c-4.34.78-7.24.05-9.06-2h0c-2.53-3-3-8.23-2.27-14.43a23.63,23.63,0,0,1,1.72-7.2s0-.09,0-.11.08-.18.12-.25a8.5,8.5,0,0,1,6.49-4.88,17.12,17.12,0,0,1,3.7-.23C329.57,243.17,330.77,263.36,321.14,269.84Z" transform="translate(38.89 -34.72)"/><path class="cls-25" d="M320.88,270a11.35,11.35,0,0,1-4.14,1.62c-4.34.78-7.23-.1-9.05-2.16a12.12,12.12,0,0,0,7.72-.25A6.33,6.33,0,0,1,320.88,270Z" transform="translate(38.89 -34.72)"/><path class="cls-8" d="M307.1,248.1s-1.08,8.48,6.8,12.52c0,0,3,9,8.12,9.38,6.94.51,13.54-9.08,11.63-19.26C331.16,237.53,311.44,235.51,307.1,248.1Z" transform="translate(38.89 -34.72)"/><path class="cls-29" d="M309.94,258c.07-1.33,1.24-3.5,3.29-3.1s3,5.74-2.26,6.66C310.21,261.67,309.8,260.75,309.94,258Z" transform="translate(38.89 -34.72)"/><path class="cls-8" d="M322.36,239.79s-8-2.45-12.66.59c-5.42,3.56-7.6,7.4-1.7,13.82,0,0,13.84-3.75,18.32-2.59a48.8,48.8,0,0,1,7.66,2.63C335.37,245.29,327,238.17,322.36,239.79Z" transform="translate(38.89 -34.72)"/><path class="cls-29" d="M314.73,271s6,2.91,4.22,9.29L334.12,274s-8.28-.52-7.86-6.35C326.26,267.6,317.59,264.27,314.73,271Z" transform="translate(38.89 -34.72)"/><path class="cls-8" d="M331.07,250.85s3-8.63,9.8-7.14,6.27,8.79,1.41,11S330.6,256.16,331.07,250.85Z" transform="translate(38.89 -34.72)"/><path class="cls-8" d="M339.1,255s6,0,5.28,5.13a4.35,4.35,0,0,0-1.87-2.36s1.82,1.39,0,3.81c0,0,.73-1.57-1.76-2.67s-9.31-1-8-4.37S339.1,255,339.1,255Z" transform="translate(38.89 -34.72)"/><path class="cls-6" d="M333.08,273.52l-3.7-2.66s-12.18,1.65-12.3,9.4S333.08,273.52,333.08,273.52Z" transform="translate(38.89 -34.72)"/><path class="cls-25" d="M326.14,327.74l11.6,5.82s-3.84-6.42-10.55-9.4C326.59,326.1,326.14,327.74,326.14,327.74Z" transform="translate(38.89 -34.72)"/><path class="cls-8" d="M335.31,273.52s-9.13-1.75-21.84,6.74c0,0-4.25,18.61,13.72,43.9L361.28,322S352.05,284.76,335.31,273.52Z" transform="translate(38.89 -34.72)"/><path class="cls-33" d="M314.5,297.41a65.35,65.35,0,0,0,2.4,7.77,83.62,83.62,0,0,0,10.29,19L361.28,322s-9.23-37.25-26-48.5c0,0-9.12-1.75-21.83,6.74C313.47,280.26,312,286.82,314.5,297.41Z" transform="translate(38.89 -34.72)"/><path class="cls-25" d="M314.5,297.41a65.35,65.35,0,0,0,2.4,7.77,94.64,94.64,0,0,1,1.73-10C317.75,295.29,315.18,297.08,314.5,297.41Z" transform="translate(38.89 -34.72)"/><path class="cls-8" d="M323.1,286.89c-6,10.88-12.41,21.56-18.93,32.15a5.23,5.23,0,0,1-9.65-3.07c.43-7,1-14,1.57-20.92s1.32-13.94,2.23-20.89a2.88,2.88,0,0,1,5.72.19c.84,14,1,28,1,42l-9.83-2.78c4.29-8.2,8.73-16.3,13.24-24.37,1.54-2.67,3-5.36,4.62-8,4-6.32,13.41-1,10,5.72Z" transform="translate(38.89 -34.72)"/><path class="cls-34" d="M323.1,286.89c-6,10.88-12.41,21.56-18.93,32.15a5.23,5.23,0,0,1-9.65-3.07c.43-7,1-14,1.57-20.92s1.32-13.94,2.23-20.89a2.88,2.88,0,0,1,5.72.19c.84,14,1,28,1,42l-9.83-2.78c4.29-8.2,8.73-16.3,13.24-24.37,1.54-2.67,3-5.36,4.62-8,4-6.32,13.41-1,10,5.72Z" transform="translate(38.89 -34.72)"/><polygon class="cls-11" points="343.89 260.21 340.96 265.47 343.61 253.65 343.89 260.21"/><path class="cls-8" d="M385.44,450.08l-29.13-10.72-29.44,10.73a1.55,1.55,0,0,1-2.09-1.46h0a1.57,1.57,0,0,1,.9-1.42L356.31,433l30.33,14.21a1.56,1.56,0,0,1,.9,1.41h0A1.56,1.56,0,0,1,385.44,450.08Z" transform="translate(38.89 -34.72)"/><path class="cls-10" d="M385.44,450.08l-29.13-10.72-29.44,10.73a1.55,1.55,0,0,1-2.09-1.46h0a1.57,1.57,0,0,1,.9-1.42L356.31,433l30.33,14.21a1.56,1.56,0,0,1,.9,1.41h0A1.56,1.56,0,0,1,385.44,450.08Z" transform="translate(38.89 -34.72)"/><polygon class="cls-11" points="388.34 407.14 395.2 404.64 401.75 407.05 401.75 401.35 395.2 398.28 388.34 401.47 388.34 407.14"/><path class="cls-8" d="M356.16,450.33h0a2.59,2.59,0,0,1-2.58-2.34l-.82-8.64V367.69h6.79v71.66l-.82,8.64A2.58,2.58,0,0,1,356.16,450.33Z" transform="translate(38.89 -34.72)"/><path class="cls-10" d="M356.16,450.33h0a2.59,2.59,0,0,1-2.58-2.34l-.82-8.64V367.69h6.79v71.66l-.82,8.64A2.58,2.58,0,0,1,356.16,450.33Z" transform="translate(38.89 -34.72)"/><rect class="cls-11" x="391.65" y="332.97" width="6.79" height="8.35"/><path class="cls-6" d="M403.41,361.17a106,106,0,0,0-23.5-3.24c-8.17-.2-38.72,0-46,0a105.55,105.55,0,0,0-26.23,3.27c-5.39,1.37-3.73,9.14,1.14,9.23.43,0,92.78,0,93.12,0C407.06,370.63,408.91,362.57,403.41,361.17Z" transform="translate(38.89 -34.72)"/><path class="cls-14" d="M403.41,361.17a106,106,0,0,0-23.5-3.24c-8.17-.2-38.72,0-46,0a105.55,105.55,0,0,0-26.23,3.27c-5.39,1.37-3.73,9.14,1.14,9.23.43,0,92.78,0,93.12,0C407.06,370.63,408.91,362.57,403.41,361.17Z" transform="translate(38.89 -34.72)"/><path class="cls-6" d="M310.21,370.24a96.29,96.29,0,0,1,47.46,0c5.87,1.49,8.37-7.57,2.5-9.07a106.6,106.6,0,0,0-52.46,0c-5.86,1.49-3.38,10.57,2.5,9.07Z" transform="translate(38.89 -34.72)"/><g class="cls-15"><path class="cls-13" d="M310.21,370.24a96.29,96.29,0,0,1,47.46,0c5.87,1.49,8.37-7.57,2.5-9.07a106.6,106.6,0,0,0-52.46,0c-5.86,1.49-3.38,10.57,2.5,9.07Z" transform="translate(38.89 -34.72)"/></g><path class="cls-6" d="M378.71,293.86a2.88,2.88,0,0,0-2.6,1.5,100.4,100.4,0,0,0-12.57,69.29,2.55,2.55,0,0,0,2.42,2.26c1.88.13,35.41,0,36.63,0A3.38,3.38,0,0,0,406,363a93.72,93.72,0,0,1,11.93-64.46c1.44-2.38-.68-4.62-2.81-4.66C414.15,293.84,380.85,293.9,378.71,293.86Z" transform="translate(38.89 -34.72)"/><path class="cls-11" d="M378.71,293.86a2.88,2.88,0,0,0-2.6,1.5,100.4,100.4,0,0,0-12.57,69.29,2.55,2.55,0,0,0,2.42,2.26c1.88.13,35.41,0,36.63,0A3.38,3.38,0,0,0,406,363a93.72,93.72,0,0,1,11.93-64.46c1.44-2.38-.68-4.62-2.81-4.66C414.15,293.84,380.85,293.9,378.71,293.86Z" transform="translate(38.89 -34.72)"/><path class="cls-6" d="M369.59,363a93.67,93.67,0,0,1,11.94-64.46c2.08-3.47-3.34-6.62-5.42-3.16a100.4,100.4,0,0,0-12.57,69.29c.72,4,6.76,2.29,6-1.67Z" transform="translate(38.89 -34.72)"/><g class="cls-35"><path class="cls-13" d="M369.59,363a93.67,93.67,0,0,1,11.94-64.46c2.08-3.47-3.34-6.62-5.42-3.16a100.4,100.4,0,0,0-12.57,69.29c.72,4,6.76,2.29,6-1.67Z" transform="translate(38.89 -34.72)"/></g><circle class="cls-8" cx="348.28" cy="198.57" r="21.8" transform="translate(6.69 37.49) rotate(-11.32)"/><path class="cls-6" d="M348.28,198.57l15.2,15.63a21.8,21.8,0,1,1-14.55-37.42Z" transform="translate(38.89 -34.72)"/><path class="cls-23" d="M348.28,198.57l15.2,15.63a21.8,21.8,0,0,1-17.71,6Z" transform="translate(38.89 -34.72)"/><path class="cls-26" d="M348.28,198.57l18.88,10.9A21.78,21.78,0,0,1,332.87,214a22.62,22.62,0,0,1-2.21-2.58Z" transform="translate(38.89 -34.72)"/><path class="cls-13" d="M340.09,206.76a11.58,11.58,0,1,1,16.38,0A11.59,11.59,0,0,1,340.09,206.76Z" transform="translate(38.89 -34.72)"/><path class="cls-8" d="M417.53,180.61H389.75a.39.39,0,0,1,0-.78h27.78a.39.39,0,1,1,0,.78Z" transform="translate(38.89 -34.72)"/><path class="cls-8" d="M412.82,189.79H389.75a.4.4,0,0,1,0-.79h23.07a.4.4,0,0,1,0,.79Z" transform="translate(38.89 -34.72)"/><path class="cls-8" d="M422.25,199h-32.5a.39.39,0,0,1,0-.78h32.5a.39.39,0,1,1,0,.78Z" transform="translate(38.89 -34.72)"/><path class="cls-8" d="M417.53,208.14H389.75a.39.39,0,0,1,0-.78h27.78a.39.39,0,1,1,0,.78Z" transform="translate(38.89 -34.72)"/><path class="cls-8" d="M419.11,217.32H389.75a.4.4,0,0,1,0-.79h29.36a.4.4,0,0,1,0,.79Z" transform="translate(38.89 -34.72)"/><rect class="cls-8" x="416.41" y="142.78" width="5.6" height="5.44"/><rect class="cls-8" x="416.41" y="151.96" width="5.6" height="5.44"/><rect class="cls-6" x="416.41" y="161.14" width="5.6" height="5.44"/><rect class="cls-6" x="416.41" y="170.31" width="5.6" height="5.44"/><rect class="cls-6" x="416.41" y="179.49" width="5.6" height="5.44"/><rect class="cls-26" x="416.41" y="151.96" width="5.6" height="5.44"/><rect class="cls-26" x="416.41" y="170.31" width="5.6" height="5.44"/><rect class="cls-27" x="416.41" y="179.49" width="5.6" height="5.44"/><path class="cls-6" d="M424.68,229H325a9.75,9.75,0,0,1-9.74-9.74V174.92a9.75,9.75,0,0,1,9.74-9.74h99.73a9.75,9.75,0,0,1,9.75,9.74V219.3A9.75,9.75,0,0,1,424.68,229ZM325,166.33a8.6,8.6,0,0,0-8.58,8.59V219.3a8.6,8.6,0,0,0,8.58,8.59h99.73a8.6,8.6,0,0,0,8.59-8.59V174.92a8.6,8.6,0,0,0-8.59-8.59Z" transform="translate(38.89 -34.72)"/><rect class="cls-6" x="258.45" y="156.59" width="3.14" height="57.53"/><rect class="cls-25" x="258.45" y="156.59" width="3.14" height="57.53"/><rect class="cls-8" x="263.67" y="169.37" width="3.14" height="44.75"/><rect class="cls-26" x="263.67" y="169.37" width="3.14" height="44.75"/><rect class="cls-6" x="248" y="190.66" width="3.14" height="23.46"/><rect class="cls-6" x="253.22" y="182.14" width="3.14" height="31.98"/><rect class="cls-8" x="268.89" y="165.11" width="3.14" height="49.01"/><rect class="cls-26" x="263.67" y="175.14" width="3.14" height="38.99"/><rect class="cls-26" x="268.89" y="172.74" width="3.14" height="41.38"/><rect class="cls-6" x="258.45" y="161.67" width="3.14" height="52.46"/><rect class="cls-26" x="253.22" y="193.49" width="3.14" height="20.63"/><rect class="cls-16" x="248" y="190.66" width="3.14" height="23.46"/><rect class="cls-26" x="248" y="196" width="3.14" height="18.12"/><path class="cls-8" d="M234.81,249H207.45a.2.2,0,1,1,0-.39h27.36a.2.2,0,1,1,0,.39Z" transform="translate(38.89 -34.72)"/><rect class="cls-6" x="302.2" y="169.37" width="3.14" height="44.75"/><rect class="cls-25" x="302.2" y="169.37" width="3.14" height="44.75"/><rect class="cls-8" x="307.42" y="170.6" width="3.14" height="43.52"/><rect class="cls-26" x="307.42" y="170.6" width="3.14" height="43.52"/><rect class="cls-6" x="291.75" y="178.02" width="3.14" height="36.1"/><rect class="cls-6" x="296.97" y="176.98" width="3.14" height="37.14"/><rect class="cls-8" x="312.64" y="181.61" width="3.14" height="32.51"/><rect class="cls-26" x="307.42" y="176.21" width="3.14" height="37.91"/><rect class="cls-26" x="312.64" y="186.67" width="3.14" height="27.45"/><rect class="cls-6" x="302.2" y="173.31" width="3.14" height="40.81"/><rect class="cls-26" x="296.97" y="183.44" width="3.14" height="30.68"/><rect class="cls-16" x="291.75" y="178.02" width="3.14" height="36.1"/><rect class="cls-26" x="291.75" y="186.23" width="3.14" height="27.89"/><path class="cls-8" d="M278.56,249H251.2a.2.2,0,1,1,0-.39h27.36a.2.2,0,1,1,0,.39Z" transform="translate(38.89 -34.72)"/><path class="cls-6" d="M282.71,261.41H204.08a9.75,9.75,0,0,1-9.74-9.74V191.1a9.75,9.75,0,0,1,9.74-9.75h78.63a9.75,9.75,0,0,1,9.74,9.75v60.57A9.75,9.75,0,0,1,282.71,261.41Zm-78.63-78.9a8.59,8.59,0,0,0-8.58,8.59v60.57a8.59,8.59,0,0,0,8.58,8.59h78.63a8.6,8.6,0,0,0,8.59-8.59V191.1a8.6,8.6,0,0,0-8.59-8.59Z" transform="translate(38.89 -34.72)"/><g class="cls-36"><polygon points="402.44 107.57 322.6 107.57 322.6 62.8 323.24 62.8 323.24 106.92 402.44 106.92 402.44 107.57"/></g><rect class="cls-25" x="326.77" y="100.14" width="3.45" height="6.47"/><rect class="cls-6" x="326.77" y="100.14" width="3.45" height="1.88"/><rect class="cls-25" x="333.82" y="89.79" width="3.45" height="16.81"/><rect class="cls-6" x="333.82" y="89.79" width="3.45" height="4.89"/><rect class="cls-25" x="340.86" y="93.67" width="3.45" height="12.93"/><rect class="cls-6" x="340.86" y="93.67" width="3.45" height="3.77"/><rect class="cls-25" x="347.91" y="87.73" width="3.45" height="18.88"/><rect class="cls-6" x="347.91" y="87.73" width="3.45" height="5.5"/><rect class="cls-25" x="354.95" y="82.24" width="3.45" height="24.36"/><rect class="cls-6" x="354.95" y="82.24" width="3.45" height="7.09"/><rect class="cls-25" x="362" y="78.09" width="3.45" height="28.51"/><rect class="cls-6" x="362" y="78.09" width="3.45" height="8.3"/><rect class="cls-25" x="369.05" y="82.89" width="3.45" height="23.71"/><rect class="cls-6" x="369.05" y="82.89" width="3.45" height="6.9"/><rect class="cls-25" x="376.09" y="81.85" width="3.45" height="24.75"/><rect class="cls-6" x="376.09" y="81.85" width="3.45" height="7.21"/><rect class="cls-25" x="383.14" y="75.54" width="3.45" height="31.06"/><rect class="cls-6" x="383.14" y="75.54" width="3.45" height="9.04"/><rect class="cls-25" x="390.18" y="69.17" width="3.45" height="37.43"/><rect class="cls-6" x="390.18" y="69.17" width="3.45" height="10.9"/><rect class="cls-25" x="397.23" y="63.61" width="3.45" height="42.99"/><rect class="cls-6" x="397.23" y="63.61" width="3.45" height="12.52"/><rect class="cls-25" x="340.86" y="56.05" width="42.72" height="1.78"/><path class="cls-6" d="M365.89,153.71H280.78A9.75,9.75,0,0,1,271,144V84.52a9.75,9.75,0,0,1,9.74-9.74h85.11a9.75,9.75,0,0,1,9.75,9.74V144A9.75,9.75,0,0,1,365.89,153.71ZM280.78,75.93a8.6,8.6,0,0,0-8.59,8.59V144a8.6,8.6,0,0,0,8.59,8.59h85.11a8.6,8.6,0,0,0,8.59-8.59V84.52a8.6,8.6,0,0,0-8.59-8.59Z" transform="translate(38.89 -34.72)"/><path class="cls-6" d="M131.13,154.6s15-24.4,19.71-24.83,10.18,13.77,14.08,12.41,26.69-41.71,31.9-40.62,13.45,22.83,15.4,22.48,4.56-4.35,10.2,6.76a242.19,242.19,0,0,1,10.2,23.8Z" transform="translate(38.89 -34.72)"/><path class="cls-26" d="M131.13,154.6s15-24.4,19.71-24.83,10.18,13.77,14.08,12.41,26.69-41.71,31.9-40.62,13.45,22.83,15.4,22.48,4.56-4.35,10.2,6.76a242.19,242.19,0,0,1,10.2,23.8Z" transform="translate(38.89 -34.72)"/><path class="cls-6" d="M222.42,154.6s-19.08-41.88-25.16-43.77-14.33,16.67-18.45,20S168,118.7,165.3,118.48s-15.13,24.09-19.25,23.87-4.78-3.38-9.12-5.16-15.4,17.41-15.4,17.41Z" transform="translate(38.89 -34.72)"/><path class="cls-8" d="M225.89,154.6s-9.35-15.72-13-19.41-8.9,9.21-12.59,9.71S182.91,119.13,179,117.18s-11.93,21.26-15.73,21.7-11.61-14-15.73-14.84-23,30.56-23,30.56Z" transform="translate(38.89 -34.72)"/><path class="cls-26" d="M225.89,154.6s-9.35-15.72-13-19.41-8.9,9.21-12.59,9.71S182.91,119.13,179,117.18s-11.93,21.26-15.73,21.7-11.61-14-15.73-14.84-23,30.56-23,30.56Z" transform="translate(38.89 -34.72)"/><rect class="cls-8" x="157.8" y="119.51" width="115.02" height="0.76"/><path class="cls-8" d="M223.29,154.6s-4.58-11.53-8.48-11.35-5.43,8.65-9.12,8.21-8-13.88-13.56-13.23-6.62,8.68-10.09,10.19-10.28-8.8-14.65-10.22-9.65,12.39-14.42,13.26-6.73-5.66-9.55-5.11-10.79,8.25-10.79,8.25Z" transform="translate(38.89 -34.72)"/><path class="cls-6" d="M233.81,166.91H118.9a9.75,9.75,0,0,1-9.74-9.74V99a9.75,9.75,0,0,1,9.74-9.74H233.81A9.75,9.75,0,0,1,243.55,99v58.21A9.75,9.75,0,0,1,233.81,166.91ZM118.9,90.37A8.59,8.59,0,0,0,110.32,99v58.21a8.6,8.6,0,0,0,8.58,8.59H233.81a8.61,8.61,0,0,0,8.59-8.59V99a8.6,8.6,0,0,0-8.59-8.59Z" transform="translate(38.89 -34.72)"/></g></svg>