<svg xmlns="http://www.w3.org/2000/svg" viewBox="0 0 500 500"><defs><style>.cls-1{fill:#ebebeb;}.cls-2{fill:#f0f0f0;}.cls-3{fill:#e6e6e6;}.cls-4{fill:#f5f5f5;}.cls-5{fill:#407bff;}.cls-14,.cls-20,.cls-23,.cls-6,.cls-7,.cls-8{fill:#fff;}.cls-6{opacity:0.7;}.cls-7{opacity:0.8;}.cls-8{opacity:0.5;}.cls-9{fill:#ffb573;}.cls-10{opacity:0.1;}.cls-11{fill:#263238;}.cls-12{opacity:0.3;}.cls-13,.cls-18,.cls-23{opacity:0.2;}.cls-15,.cls-16{fill:none;stroke:#fff;stroke-width:0.59px;}.cls-15{stroke-miterlimit:10;}.cls-16{stroke-linecap:round;stroke-linejoin:round;}.cls-17{fill:#ebb376;}.cls-19{fill:#ed893e;}.cls-20{opacity:0.6;}.cls-21{fill:#de5753;}.cls-22{fill:#e4897b;}</style></defs><title>mission</title><g id="Background_Complete" data-name="Background Complete"><rect class="cls-1" y="380.84" width="498.48" height="0.25"/><rect class="cls-1" x="415.51" y="396.86" width="33.02" height="0.25"/><rect class="cls-1" x="321.55" y="399.56" width="8.67" height="0.25"/><rect class="cls-1" x="395.38" y="387.62" width="19.13" height="0.25"/><rect class="cls-1" x="52.3" y="389.29" width="43.06" height="0.25"/><rect class="cls-1" x="104.24" y="389.29" width="6.31" height="0.25"/><rect class="cls-1" x="131.07" y="393.49" width="93.39" height="0.25"/><path class="cls-1" d="M236.29,336.46H43.78a5.69,5.69,0,0,1-5.69-5.69V60.63A5.69,5.69,0,0,1,43.78,55H236.29A5.69,5.69,0,0,1,242,60.63V330.77A5.69,5.69,0,0,1,236.29,336.46ZM43.78,55.2a5.44,5.44,0,0,0-5.44,5.43V330.77a5.45,5.45,0,0,0,5.44,5.44H236.29a5.45,5.45,0,0,0,5.44-5.44V60.63a5.44,5.44,0,0,0-5.44-5.43Z"/><path class="cls-1" d="M451.94,336.46H259.42a5.7,5.7,0,0,1-5.69-5.69V60.63A5.7,5.7,0,0,1,259.42,55H451.94a5.7,5.7,0,0,1,5.69,5.68V330.77A5.7,5.7,0,0,1,451.94,336.46ZM259.42,55.2A5.44,5.44,0,0,0,254,60.63V330.77a5.45,5.45,0,0,0,5.44,5.44H451.94a5.45,5.45,0,0,0,5.44-5.44V60.63a5.44,5.44,0,0,0-5.44-5.43Z"/><path class="cls-2" d="M382.93,194.17a5.25,5.25,0,0,1,5.24-5.24,5.41,5.41,0,0,1,1.51.22,10.57,10.57,0,0,1-.12-1.6,11.1,11.1,0,0,1,11.1-11.09,10.71,10.71,0,0,1,2,.2,9.7,9.7,0,0,1,18,4.89h.16a8.93,8.93,0,1,1,0,17.86H388A5.23,5.23,0,0,1,382.93,194.17Z"/><path class="cls-2" d="M89.18,170.53a5.24,5.24,0,0,1,5.24-5.23,5.06,5.06,0,0,1,1.51.22,10.71,10.71,0,0,1-.12-1.61,11.09,11.09,0,0,1,11.1-11.08,10.71,10.71,0,0,1,2,.19,9.7,9.7,0,0,1,18,4.89h.16a8.93,8.93,0,1,1,0,17.85H94.27A5.24,5.24,0,0,1,89.18,170.53Z"/><path class="cls-2" d="M224,94.79H204.89a13,13,0,0,0,.08-1.4,12.57,12.57,0,0,0-12.58-12.56c-.16,0-.31,0-.46,0a11.13,11.13,0,0,0-21.56,3.87v0a10.6,10.6,0,0,0-10.11,10h-.5a5.59,5.59,0,1,0,0,11.17H224a5.59,5.59,0,1,0,0-11.17Z"/><path class="cls-2" d="M365.6,102.76a16.87,16.87,0,0,0-28.76.24,8.93,8.93,0,0,0-2.44-.34,9,9,0,0,0-9,9h-4.77a4.52,4.52,0,1,0,0,9H337a16.89,16.89,0,0,0,26.32,2.76c.28,0,.57,0,.86,0a10.43,10.43,0,0,0,1.38-20.77Z"/><path class="cls-2" d="M265,166.57a16.87,16.87,0,0,0-28.77.24,8.94,8.94,0,0,0-2.44-.35,9,9,0,0,0-9.05,9H220a4.51,4.51,0,1,0,0,9h16.47a16.88,16.88,0,0,0,26.31,2.76,8.27,8.27,0,0,0,.86.05A10.43,10.43,0,0,0,265,166.57Z"/><polygon class="cls-3" points="56.27 380.69 56.27 333.13 60.34 333.13 60.34 310.46 66.3 310.46 66.3 231.66 74.91 231.66 74.91 221.49 93.29 212.93 93.29 202.67 95.84 202.67 95.84 231.66 99.4 231.66 99.4 310.46 102.97 310.46 102.97 269.02 112.64 269.02 112.64 247.67 115.34 247.67 115.34 310.46 122.69 310.46 122.69 286.56 127.53 286.56 127.53 280.46 138.74 280.46 138.74 259.62 144.87 259.62 144.87 244.87 152.41 244.87 152.41 223.39 155.11 223.39 155.11 244.87 162.65 244.87 162.65 259.62 168.78 259.62 168.78 280.46 179.99 280.46 179.99 286.56 184.83 286.56 184.83 310.46 190.57 310.46 190.57 280.46 201.77 280.46 201.77 215.89 205.34 215.89 205.34 208.78 229.27 208.78 229.27 215.89 234.37 215.89 234.37 262.67 254.74 262.67 254.74 267.24 262.38 267.24 262.38 270.8 254.74 270.8 254.74 289.11 276.13 289.11 276.13 228.1 280.71 228.1 280.71 215.13 290.64 215.13 290.64 169.12 293.44 169.12 293.44 215.13 300.57 215.13 300.57 228.1 342.38 228.1 342.38 223.83 344.92 223.83 344.92 252.81 348.49 252.81 348.49 253.32 350.63 253.32 350.63 282.3 354.19 282.3 354.19 290.18 361.73 290.18 361.73 268.82 364.43 268.82 364.43 319.67 367.44 319.67 367.44 298.31 370.14 298.31 370.14 331.61 371.78 331.61 371.78 307.72 376.62 307.72 376.62 301.62 387.82 301.62 387.82 280.77 393.96 280.77 393.96 266.03 401.5 266.03 401.5 244.55 404.19 244.55 404.19 266.03 411.74 266.03 411.74 280.77 417.87 280.77 417.87 301.62 429.08 301.62 429.08 307.72 433.92 307.72 433.92 331.11 434.78 331.11 434.78 331.61 437.18 331.61 437.18 380.69 56.27 380.69"/><rect class="cls-2" x="316.17" y="230.95" width="2.89" height="2.88"/><rect class="cls-2" x="316.17" y="235.78" width="2.89" height="2.88"/><rect class="cls-2" x="316.17" y="255.1" width="2.89" height="2.88"/><rect class="cls-2" x="316.17" y="259.93" width="2.89" height="2.88"/><rect class="cls-2" x="316.17" y="264.76" width="2.89" height="2.88"/><rect class="cls-2" x="316.17" y="279.25" width="2.89" height="2.88"/><rect class="cls-2" x="316.17" y="284.08" width="2.89" height="2.88"/><rect class="cls-2" x="311.58" y="250.27" width="2.89" height="2.88"/><rect class="cls-2" x="311.58" y="255.1" width="2.89" height="2.88"/><rect class="cls-2" x="311.58" y="259.93" width="2.89" height="2.88"/><rect class="cls-2" x="311.58" y="264.76" width="2.89" height="2.88"/><rect class="cls-2" x="311.58" y="269.59" width="2.89" height="2.88"/><rect class="cls-2" x="311.58" y="279.25" width="2.89" height="2.88"/><rect class="cls-2" x="311.58" y="284.08" width="2.89" height="2.88"/><rect class="cls-2" x="307" y="230.95" width="2.89" height="2.88"/><rect class="cls-2" x="307" y="235.78" width="2.89" height="2.88"/><rect class="cls-2" x="307" y="240.61" width="2.89" height="2.88"/><rect class="cls-2" x="307" y="245.44" width="2.89" height="2.88"/><rect class="cls-2" x="307" y="250.27" width="2.89" height="2.88"/><rect class="cls-2" x="307" y="255.1" width="2.89" height="2.88"/><rect class="cls-2" x="307" y="259.93" width="2.89" height="2.88"/><rect class="cls-2" x="307" y="264.76" width="2.89" height="2.88"/><rect class="cls-2" x="307" y="269.59" width="2.89" height="2.88"/><rect class="cls-2" x="307" y="274.42" width="2.89" height="2.88"/><rect class="cls-2" x="307" y="284.08" width="2.89" height="2.88"/><rect class="cls-2" x="302.42" y="230.95" width="2.89" height="2.88"/><rect class="cls-2" x="302.42" y="235.78" width="2.89" height="2.88"/><rect class="cls-2" x="302.42" y="240.61" width="2.89" height="2.88"/><rect class="cls-2" x="302.42" y="245.44" width="2.89" height="2.88"/><rect class="cls-2" x="302.42" y="250.27" width="2.89" height="2.88"/><rect class="cls-2" x="302.42" y="255.1" width="2.89" height="2.88"/><rect class="cls-2" x="302.42" y="259.93" width="2.89" height="2.88"/><rect class="cls-2" x="302.42" y="303.4" width="2.89" height="2.88"/><rect class="cls-2" x="297.83" y="230.95" width="2.89" height="2.88"/><rect class="cls-2" x="297.83" y="235.78" width="2.89" height="2.88"/><rect class="cls-2" x="297.83" y="240.61" width="2.89" height="2.88"/><rect class="cls-2" x="297.83" y="245.44" width="2.89" height="2.88"/><rect class="cls-2" x="297.83" y="250.27" width="2.89" height="2.88"/><rect class="cls-2" x="297.83" y="255.1" width="2.89" height="2.88"/><rect class="cls-2" x="297.83" y="259.93" width="2.89" height="2.88"/><rect class="cls-2" x="297.83" y="264.76" width="2.89" height="2.88"/><rect class="cls-2" x="297.83" y="293.74" width="2.89" height="2.88"/><rect class="cls-2" x="297.83" y="298.57" width="2.89" height="2.88"/><rect class="cls-2" x="297.83" y="303.4" width="2.89" height="2.88"/><rect class="cls-2" x="297.83" y="308.23" width="2.89" height="2.88"/><rect class="cls-2" x="297.83" y="327.55" width="2.89" height="2.88"/><rect class="cls-2" x="293.25" y="230.95" width="2.89" height="2.88"/><rect class="cls-2" x="293.25" y="235.78" width="2.89" height="2.88"/><rect class="cls-2" x="293.25" y="240.61" width="2.89" height="2.88"/><rect class="cls-2" x="293.25" y="245.44" width="2.89" height="2.88"/><rect class="cls-2" x="293.25" y="250.27" width="2.89" height="2.88"/><rect class="cls-2" x="293.25" y="255.1" width="2.89" height="2.88"/><rect class="cls-2" x="293.25" y="259.93" width="2.89" height="2.88"/><rect class="cls-2" x="293.25" y="264.76" width="2.89" height="2.88"/><rect class="cls-2" x="293.25" y="269.59" width="2.89" height="2.88"/><rect class="cls-2" x="293.25" y="274.42" width="2.89" height="2.88"/><rect class="cls-2" x="293.25" y="288.91" width="2.89" height="2.88"/><rect class="cls-2" x="293.25" y="293.74" width="2.89" height="2.88"/><rect class="cls-2" x="293.25" y="298.57" width="2.89" height="2.88"/><rect class="cls-2" x="293.25" y="303.4" width="2.89" height="2.88"/><rect class="cls-2" x="293.25" y="308.23" width="2.89" height="2.88"/><rect class="cls-2" x="293.25" y="327.55" width="2.89" height="2.88"/><rect class="cls-2" x="288.66" y="230.95" width="2.89" height="2.88"/><rect class="cls-2" x="288.66" y="235.78" width="2.89" height="2.88"/><rect class="cls-2" x="288.66" y="240.61" width="2.89" height="2.88"/><rect class="cls-2" x="288.66" y="245.44" width="2.89" height="2.88"/><rect class="cls-2" x="288.66" y="250.27" width="2.89" height="2.88"/><rect class="cls-2" x="288.66" y="255.1" width="2.89" height="2.88"/><rect class="cls-2" x="288.66" y="259.93" width="2.89" height="2.88"/><rect class="cls-2" x="288.66" y="264.76" width="2.89" height="2.88"/><rect class="cls-2" x="288.66" y="269.59" width="2.89" height="2.88"/><rect class="cls-2" x="288.66" y="274.42" width="2.89" height="2.88"/><rect class="cls-2" x="288.66" y="279.25" width="2.89" height="2.88"/><rect class="cls-2" x="288.66" y="284.08" width="2.89" height="2.88"/><rect class="cls-2" x="288.66" y="288.91" width="2.89" height="2.88"/><rect class="cls-2" x="288.66" y="293.74" width="2.89" height="2.88"/><rect class="cls-2" x="288.66" y="298.57" width="2.89" height="2.88"/><rect class="cls-2" x="288.66" y="303.4" width="2.89" height="2.88"/><rect class="cls-2" x="288.66" y="308.23" width="2.89" height="2.88"/><rect class="cls-2" x="288.66" y="313.06" width="2.89" height="2.88"/><rect class="cls-2" x="284.08" y="230.95" width="2.89" height="2.88"/><rect class="cls-2" x="284.08" y="235.78" width="2.89" height="2.88"/><rect class="cls-2" x="284.08" y="240.61" width="2.89" height="2.88"/><rect class="cls-2" x="284.08" y="245.44" width="2.89" height="2.88"/><rect class="cls-2" x="284.08" y="250.27" width="2.89" height="2.88"/><rect class="cls-2" x="284.08" y="255.1" width="2.89" height="2.88"/><rect class="cls-2" x="284.08" y="259.93" width="2.89" height="2.88"/><rect class="cls-2" x="284.08" y="264.76" width="2.89" height="2.88"/><rect class="cls-2" x="284.08" y="269.59" width="2.89" height="2.88"/><rect class="cls-2" x="284.08" y="274.42" width="2.89" height="2.88"/><rect class="cls-2" x="284.08" y="288.91" width="2.89" height="2.88"/><rect class="cls-2" x="284.08" y="293.74" width="2.89" height="2.88"/><rect class="cls-2" x="284.08" y="298.57" width="2.89" height="2.88"/><rect class="cls-2" x="284.08" y="303.4" width="2.89" height="2.88"/><rect class="cls-2" x="279.5" y="230.95" width="2.89" height="2.88"/><rect class="cls-2" x="279.5" y="235.78" width="2.89" height="2.88"/><rect class="cls-2" x="279.5" y="240.61" width="2.89" height="2.88"/><rect class="cls-2" x="279.5" y="245.44" width="2.89" height="2.88"/><rect class="cls-2" x="279.5" y="250.27" width="2.89" height="2.88"/><rect class="cls-2" x="279.5" y="255.1" width="2.89" height="2.88"/><rect class="cls-2" x="279.5" y="259.93" width="2.89" height="2.88"/><rect class="cls-2" x="279.5" y="264.76" width="2.89" height="2.88"/><rect class="cls-2" x="279.5" y="269.59" width="2.89" height="2.88"/><rect class="cls-2" x="279.5" y="274.42" width="2.89" height="2.88"/><rect class="cls-2" x="279.5" y="288.91" width="2.89" height="2.88"/><rect class="cls-2" x="279.5" y="293.74" width="2.89" height="2.88"/><rect class="cls-2" x="279.5" y="298.57" width="2.89" height="2.88"/><rect class="cls-2" x="227.89" y="218.41" width="2.89" height="2.88"/><rect class="cls-2" x="227.89" y="223.24" width="2.89" height="2.88"/><rect class="cls-2" x="227.89" y="228.07" width="2.89" height="2.88"/><rect class="cls-2" x="227.89" y="232.9" width="2.89" height="2.88"/><rect class="cls-2" x="227.89" y="237.73" width="2.89" height="2.88"/><rect class="cls-2" x="227.89" y="242.56" width="2.89" height="2.88"/><rect class="cls-2" x="227.89" y="247.39" width="2.89" height="2.88"/><rect class="cls-2" x="227.89" y="252.22" width="2.89" height="2.88"/><rect class="cls-2" x="227.89" y="266.71" width="2.89" height="2.88"/><rect class="cls-2" x="227.89" y="271.54" width="2.89" height="2.88"/><rect class="cls-2" x="223.3" y="218.41" width="2.89" height="2.88"/><rect class="cls-2" x="223.3" y="223.24" width="2.89" height="2.88"/><rect class="cls-2" x="223.3" y="228.07" width="2.89" height="2.88"/><rect class="cls-2" x="223.3" y="232.9" width="2.89" height="2.88"/><rect class="cls-2" x="223.3" y="237.73" width="2.89" height="2.88"/><rect class="cls-2" x="223.3" y="242.56" width="2.89" height="2.88"/><rect class="cls-2" x="223.3" y="247.39" width="2.89" height="2.88"/><rect class="cls-2" x="223.3" y="252.22" width="2.89" height="2.88"/><rect class="cls-2" x="223.3" y="271.54" width="2.89" height="2.88"/><rect class="cls-2" x="218.72" y="218.41" width="2.89" height="2.88"/><rect class="cls-2" x="218.72" y="223.24" width="2.89" height="2.88"/><rect class="cls-2" x="218.72" y="228.07" width="2.89" height="2.88"/><rect class="cls-2" x="218.72" y="232.9" width="2.89" height="2.88"/><rect class="cls-2" x="218.72" y="237.73" width="2.89" height="2.88"/><rect class="cls-2" x="218.72" y="242.56" width="2.89" height="2.88"/><rect class="cls-2" x="218.72" y="247.39" width="2.89" height="2.88"/><rect class="cls-2" x="218.72" y="252.22" width="2.89" height="2.88"/><rect class="cls-2" x="214.14" y="218.41" width="2.89" height="2.88"/><rect class="cls-2" x="214.14" y="223.24" width="2.89" height="2.88"/><rect class="cls-2" x="214.14" y="228.07" width="2.89" height="2.88"/><rect class="cls-2" x="214.14" y="232.9" width="2.89" height="2.88"/><rect class="cls-2" x="214.14" y="237.73" width="2.89" height="2.88"/><rect class="cls-2" x="214.14" y="242.56" width="2.89" height="2.88"/><rect class="cls-2" x="214.14" y="252.22" width="2.89" height="2.88"/><rect class="cls-2" x="214.14" y="257.05" width="2.89" height="2.88"/><rect class="cls-2" x="214.14" y="271.54" width="2.89" height="2.88"/><rect class="cls-2" x="214.14" y="276.37" width="2.89" height="2.88"/><rect class="cls-2" x="214.14" y="281.2" width="2.89" height="2.88"/><rect class="cls-2" x="214.14" y="286.03" width="2.89" height="2.88"/><rect class="cls-2" x="214.14" y="290.86" width="2.89" height="2.88"/><rect class="cls-2" x="214.14" y="295.69" width="2.89" height="2.88"/><rect class="cls-2" x="214.14" y="300.52" width="2.89" height="2.88"/><rect class="cls-2" x="209.55" y="218.41" width="2.89" height="2.88"/><rect class="cls-2" x="209.55" y="223.24" width="2.89" height="2.88"/><rect class="cls-2" x="209.55" y="228.07" width="2.89" height="2.88"/><rect class="cls-2" x="209.55" y="232.9" width="2.89" height="2.88"/><rect class="cls-2" x="209.55" y="237.73" width="2.89" height="2.88"/><rect class="cls-2" x="209.55" y="242.56" width="2.89" height="2.88"/><rect class="cls-2" x="209.55" y="257.05" width="2.89" height="2.88"/><rect class="cls-2" x="209.55" y="261.88" width="2.89" height="2.88"/><rect class="cls-2" x="209.55" y="266.71" width="2.89" height="2.88"/><rect class="cls-2" x="209.55" y="271.54" width="2.89" height="2.88"/><rect class="cls-2" x="209.55" y="276.37" width="2.89" height="2.88"/><rect class="cls-2" x="209.55" y="281.2" width="2.89" height="2.88"/><rect class="cls-2" x="209.55" y="286.03" width="2.89" height="2.88"/><rect class="cls-2" x="209.55" y="290.86" width="2.89" height="2.88"/><rect class="cls-2" x="209.55" y="295.69" width="2.89" height="2.88"/><rect class="cls-2" x="209.55" y="300.52" width="2.89" height="2.88"/><rect class="cls-2" x="209.55" y="305.35" width="2.89" height="2.88"/><rect class="cls-2" x="209.55" y="315.01" width="2.89" height="2.88"/><rect class="cls-2" x="204.97" y="218.41" width="2.89" height="2.88"/><rect class="cls-2" x="204.97" y="223.24" width="2.89" height="2.88"/><rect class="cls-2" x="204.97" y="228.07" width="2.89" height="2.88"/><rect class="cls-2" x="204.97" y="232.9" width="2.89" height="2.88"/><rect class="cls-2" x="204.97" y="237.73" width="2.89" height="2.88"/><rect class="cls-2" x="204.97" y="242.56" width="2.89" height="2.88"/><rect class="cls-2" x="204.97" y="257.05" width="2.89" height="2.88"/><rect class="cls-2" x="204.97" y="261.88" width="2.89" height="2.88"/><rect class="cls-2" x="204.97" y="266.71" width="2.89" height="2.88"/><rect class="cls-2" x="204.97" y="271.54" width="2.89" height="2.88"/><rect class="cls-2" x="204.97" y="286.03" width="2.89" height="2.88"/><rect class="cls-2" x="204.97" y="290.86" width="2.89" height="2.88"/><rect class="cls-2" x="204.97" y="295.69" width="2.89" height="2.88"/><rect class="cls-2" x="204.97" y="300.52" width="2.89" height="2.88"/><rect class="cls-2" x="204.97" y="305.35" width="2.89" height="2.88"/><rect class="cls-2" x="204.97" y="315.01" width="2.89" height="2.88"/><rect class="cls-2" x="204.97" y="319.84" width="2.89" height="2.88"/><rect class="cls-2" x="163.38" y="263.32" width="2.89" height="2.88"/><rect class="cls-2" x="163.38" y="268.15" width="2.89" height="2.88"/><rect class="cls-2" x="163.38" y="272.98" width="2.89" height="2.88"/><rect class="cls-2" x="163.38" y="277.81" width="2.89" height="2.88"/><rect class="cls-2" x="163.38" y="282.64" width="2.89" height="2.88"/><rect class="cls-2" x="163.38" y="287.47" width="2.89" height="2.88"/><rect class="cls-2" x="163.38" y="292.3" width="2.89" height="2.88"/><rect class="cls-2" x="163.38" y="306.79" width="2.89" height="2.88"/><rect class="cls-2" x="163.38" y="311.62" width="2.89" height="2.88"/><rect class="cls-2" x="163.38" y="316.45" width="2.89" height="2.88"/><rect class="cls-2" x="158.79" y="263.32" width="2.89" height="2.88"/><rect class="cls-2" x="158.79" y="268.15" width="2.89" height="2.88"/><rect class="cls-2" x="158.79" y="272.98" width="2.89" height="2.88"/><rect class="cls-2" x="158.79" y="277.81" width="2.89" height="2.88"/><rect class="cls-2" x="158.79" y="282.64" width="2.89" height="2.88"/><rect class="cls-2" x="158.79" y="287.47" width="2.89" height="2.88"/><rect class="cls-2" x="158.79" y="292.3" width="2.89" height="2.88"/><rect class="cls-2" x="154.21" y="263.32" width="2.89" height="2.88"/><rect class="cls-2" x="154.21" y="268.15" width="2.89" height="2.88"/><rect class="cls-2" x="154.21" y="272.98" width="2.89" height="2.88"/><rect class="cls-2" x="154.21" y="277.81" width="2.89" height="2.88"/><rect class="cls-2" x="154.21" y="282.64" width="2.89" height="2.88"/><rect class="cls-2" x="154.21" y="287.47" width="2.89" height="2.88"/><rect class="cls-2" x="154.21" y="292.3" width="2.89" height="2.88"/><rect class="cls-2" x="149.63" y="263.32" width="2.89" height="2.88"/><rect class="cls-2" x="149.63" y="268.15" width="2.89" height="2.88"/><rect class="cls-2" x="149.63" y="272.98" width="2.89" height="2.88"/><rect class="cls-2" x="149.63" y="277.81" width="2.89" height="2.88"/><rect class="cls-2" x="149.63" y="282.64" width="2.89" height="2.88"/><rect class="cls-2" x="149.63" y="287.47" width="2.89" height="2.88"/><rect class="cls-2" x="149.63" y="292.3" width="2.89" height="2.88"/><rect class="cls-2" x="149.63" y="297.13" width="2.89" height="2.88"/><rect class="cls-2" x="149.63" y="301.96" width="2.89" height="2.88"/><rect class="cls-2" x="149.63" y="306.79" width="2.89" height="2.88"/><rect class="cls-2" x="149.63" y="311.62" width="2.89" height="2.88"/><rect class="cls-2" x="145.04" y="263.32" width="2.89" height="2.88"/><rect class="cls-2" x="145.04" y="268.15" width="2.89" height="2.88"/><rect class="cls-2" x="145.04" y="272.98" width="2.89" height="2.88"/><rect class="cls-2" x="145.04" y="277.81" width="2.89" height="2.88"/><rect class="cls-2" x="145.04" y="282.64" width="2.89" height="2.88"/><rect class="cls-2" x="145.04" y="287.47" width="2.89" height="2.88"/><rect class="cls-2" x="145.04" y="292.3" width="2.89" height="2.88"/><rect class="cls-2" x="145.04" y="297.13" width="2.89" height="2.88"/><rect class="cls-2" x="145.04" y="301.96" width="2.89" height="2.88"/><rect class="cls-2" x="145.04" y="306.79" width="2.89" height="2.88"/><rect class="cls-2" x="145.04" y="311.62" width="2.89" height="2.88"/><rect class="cls-2" x="145.04" y="316.45" width="2.89" height="2.88"/><rect class="cls-2" x="145.04" y="330.94" width="2.89" height="2.88"/><rect class="cls-2" x="145.04" y="335.77" width="2.89" height="2.88"/><rect class="cls-2" x="140.46" y="263.32" width="2.89" height="2.88"/><rect class="cls-2" x="140.46" y="268.15" width="2.89" height="2.88"/><rect class="cls-2" x="140.46" y="272.98" width="2.89" height="2.88"/><rect class="cls-2" x="140.46" y="287.47" width="2.89" height="2.88"/><rect class="cls-2" x="140.46" y="292.3" width="2.89" height="2.88"/><rect class="cls-2" x="140.46" y="297.13" width="2.89" height="2.88"/><rect class="cls-2" x="140.46" y="301.96" width="2.89" height="2.88"/><rect class="cls-2" x="140.46" y="306.79" width="2.89" height="2.88"/><rect class="cls-2" x="140.46" y="311.62" width="2.89" height="2.88"/><rect class="cls-2" x="140.46" y="316.45" width="2.89" height="2.88"/><rect class="cls-2" x="140.46" y="330.94" width="2.89" height="2.88"/><rect class="cls-2" x="140.46" y="335.77" width="2.89" height="2.88"/><rect class="cls-2" x="140.46" y="340.6" width="2.89" height="2.88"/><rect class="cls-2" x="92.41" y="234.34" width="2.89" height="2.88"/><rect class="cls-2" x="92.41" y="239.17" width="2.89" height="2.88"/><rect class="cls-2" x="92.41" y="244" width="2.89" height="2.88"/><rect class="cls-2" x="92.41" y="248.83" width="2.89" height="2.88"/><rect class="cls-2" x="92.41" y="253.66" width="2.89" height="2.88"/><rect class="cls-2" x="92.41" y="258.49" width="2.89" height="2.88"/><rect class="cls-2" x="92.41" y="263.32" width="2.89" height="2.88"/><rect class="cls-2" x="92.41" y="268.15" width="2.89" height="2.88"/><rect class="cls-2" x="92.41" y="272.98" width="2.89" height="2.88"/><rect class="cls-2" x="92.41" y="277.81" width="2.89" height="2.88"/><rect class="cls-2" x="92.41" y="282.64" width="2.89" height="2.88"/><rect class="cls-2" x="92.41" y="287.47" width="2.89" height="2.88"/><rect class="cls-2" x="92.41" y="292.3" width="2.89" height="2.88"/><rect class="cls-2" x="92.41" y="297.13" width="2.89" height="2.88"/><rect class="cls-2" x="92.41" y="301.96" width="2.89" height="2.88"/><rect class="cls-2" x="92.41" y="306.79" width="2.89" height="2.88"/><rect class="cls-2" x="92.41" y="311.62" width="2.89" height="2.88"/><rect class="cls-2" x="92.41" y="316.45" width="2.89" height="2.88"/><rect class="cls-2" x="92.41" y="321.28" width="2.89" height="2.88"/><rect class="cls-2" x="92.41" y="326.11" width="2.89" height="2.88"/><rect class="cls-2" x="92.41" y="330.94" width="2.89" height="2.88"/><rect class="cls-2" x="92.41" y="335.77" width="2.89" height="2.88"/><rect class="cls-2" x="92.41" y="340.6" width="2.89" height="2.88"/><rect class="cls-2" x="87.83" y="234.34" width="2.89" height="2.88"/><rect class="cls-2" x="87.83" y="239.17" width="2.89" height="2.88"/><rect class="cls-2" x="87.83" y="244" width="2.89" height="2.88"/><rect class="cls-2" x="87.83" y="248.83" width="2.89" height="2.88"/><rect class="cls-2" x="87.83" y="253.66" width="2.89" height="2.88"/><rect class="cls-2" x="87.83" y="258.49" width="2.89" height="2.88"/><rect class="cls-2" x="87.83" y="263.32" width="2.89" height="2.88"/><rect class="cls-2" x="87.83" y="268.15" width="2.89" height="2.88"/><rect class="cls-2" x="87.83" y="272.98" width="2.89" height="2.88"/><rect class="cls-2" x="87.83" y="277.81" width="2.89" height="2.88"/><rect class="cls-2" x="87.83" y="282.64" width="2.89" height="2.88"/><rect class="cls-2" x="87.83" y="287.47" width="2.89" height="2.88"/><rect class="cls-2" x="87.83" y="292.3" width="2.89" height="2.88"/><rect class="cls-2" x="87.83" y="297.13" width="2.89" height="2.88"/><rect class="cls-2" x="87.83" y="301.96" width="2.89" height="2.88"/><rect class="cls-2" x="87.83" y="306.79" width="2.89" height="2.88"/><rect class="cls-2" x="87.83" y="311.62" width="2.89" height="2.88"/><rect class="cls-2" x="87.83" y="316.45" width="2.89" height="2.88"/><rect class="cls-2" x="87.83" y="321.28" width="2.89" height="2.88"/><rect class="cls-2" x="83.25" y="234.34" width="2.89" height="2.88"/><rect class="cls-2" x="83.25" y="239.17" width="2.89" height="2.88"/><rect class="cls-2" x="83.25" y="244" width="2.89" height="2.88"/><rect class="cls-2" x="83.25" y="248.83" width="2.89" height="2.88"/><rect class="cls-2" x="83.25" y="253.66" width="2.89" height="2.88"/><rect class="cls-2" x="83.25" y="258.49" width="2.89" height="2.88"/><rect class="cls-2" x="83.25" y="263.32" width="2.89" height="2.88"/><rect class="cls-2" x="83.25" y="268.15" width="2.89" height="2.88"/><rect class="cls-2" x="83.25" y="272.98" width="2.89" height="2.88"/><rect class="cls-2" x="83.25" y="277.81" width="2.89" height="2.88"/><rect class="cls-2" x="83.25" y="282.64" width="2.89" height="2.88"/><rect class="cls-2" x="83.25" y="287.47" width="2.89" height="2.88"/><rect class="cls-2" x="83.25" y="292.3" width="2.89" height="2.88"/><rect class="cls-2" x="83.25" y="297.13" width="2.89" height="2.88"/><rect class="cls-2" x="83.25" y="301.96" width="2.89" height="2.88"/><rect class="cls-2" x="83.25" y="306.79" width="2.89" height="2.88"/><rect class="cls-2" x="83.25" y="311.62" width="2.89" height="2.88"/><rect class="cls-2" x="83.25" y="316.45" width="2.89" height="2.88"/><rect class="cls-2" x="83.25" y="321.28" width="2.89" height="2.88"/><rect class="cls-2" x="78.66" y="234.34" width="2.89" height="2.88"/><rect class="cls-2" x="78.66" y="239.17" width="2.89" height="2.88"/><rect class="cls-2" x="78.66" y="244" width="2.89" height="2.88"/><rect class="cls-2" x="78.66" y="248.83" width="2.89" height="2.88"/><rect class="cls-2" x="78.66" y="253.66" width="2.89" height="2.88"/><rect class="cls-2" x="78.66" y="258.49" width="2.89" height="2.88"/><rect class="cls-2" x="78.66" y="263.32" width="2.89" height="2.88"/><rect class="cls-2" x="78.66" y="268.15" width="2.89" height="2.88"/><rect class="cls-2" x="78.66" y="272.98" width="2.89" height="2.88"/><rect class="cls-2" x="78.66" y="277.81" width="2.89" height="2.88"/><rect class="cls-2" x="78.66" y="282.64" width="2.89" height="2.88"/><rect class="cls-2" x="78.66" y="287.47" width="2.89" height="2.88"/><rect class="cls-2" x="78.66" y="292.3" width="2.89" height="2.88"/><rect class="cls-2" x="78.66" y="297.13" width="2.89" height="2.88"/><rect class="cls-2" x="78.66" y="301.96" width="2.89" height="2.88"/><rect class="cls-2" x="74.08" y="234.34" width="2.89" height="2.88"/><rect class="cls-2" x="74.08" y="239.17" width="2.89" height="2.88"/><rect class="cls-2" x="74.08" y="244" width="2.89" height="2.88"/><rect class="cls-2" x="74.08" y="248.83" width="2.89" height="2.88"/><rect class="cls-2" x="74.08" y="253.66" width="2.89" height="2.88"/><rect class="cls-2" x="74.08" y="258.49" width="2.89" height="2.88"/><rect class="cls-2" x="74.08" y="263.32" width="2.89" height="2.88"/><rect class="cls-2" x="74.08" y="268.15" width="2.89" height="2.88"/><rect class="cls-2" x="74.08" y="272.98" width="2.89" height="2.88"/><rect class="cls-2" x="74.08" y="277.81" width="2.89" height="2.88"/><rect class="cls-2" x="74.08" y="282.64" width="2.89" height="2.88"/><rect class="cls-2" x="74.08" y="287.47" width="2.89" height="2.88"/><rect class="cls-2" x="74.08" y="292.3" width="2.89" height="2.88"/><rect class="cls-2" x="69.5" y="234.34" width="2.89" height="2.88"/><rect class="cls-2" x="69.5" y="239.17" width="2.89" height="2.88"/><rect class="cls-2" x="69.5" y="244" width="2.89" height="2.88"/><rect class="cls-2" x="69.5" y="248.83" width="2.89" height="2.88"/><rect class="cls-2" x="69.5" y="253.66" width="2.89" height="2.88"/><rect class="cls-2" x="69.5" y="258.49" width="2.89" height="2.88"/><rect class="cls-2" x="69.5" y="263.32" width="2.89" height="2.88"/><rect class="cls-2" x="69.5" y="268.15" width="2.89" height="2.88"/><rect class="cls-2" x="69.5" y="272.98" width="2.89" height="2.88"/><rect class="cls-2" x="69.5" y="277.81" width="2.89" height="2.88"/><rect class="cls-2" x="69.5" y="282.64" width="2.89" height="2.88"/><rect class="cls-2" x="69.5" y="287.47" width="2.89" height="2.88"/><rect class="cls-2" x="406.31" y="269.59" width="2.89" height="2.88"/><rect class="cls-2" x="406.31" y="274.42" width="2.89" height="2.88"/><rect class="cls-2" x="406.31" y="279.25" width="2.89" height="2.88"/><rect class="cls-2" x="406.31" y="284.08" width="2.89" height="2.88"/><rect class="cls-2" x="406.31" y="288.91" width="2.89" height="2.88"/><rect class="cls-2" x="406.31" y="293.74" width="2.89" height="2.88"/><rect class="cls-2" x="406.31" y="298.57" width="2.89" height="2.88"/><rect class="cls-2" x="406.31" y="303.4" width="2.89" height="2.88"/><rect class="cls-2" x="406.31" y="308.23" width="2.89" height="2.88"/><rect class="cls-2" x="406.31" y="313.06" width="2.89" height="2.88"/><rect class="cls-2" x="406.31" y="317.89" width="2.89" height="2.88"/><rect class="cls-2" x="406.31" y="322.72" width="2.89" height="2.88"/><rect class="cls-2" x="406.31" y="327.55" width="2.89" height="2.88"/><rect class="cls-2" x="406.31" y="332.38" width="2.89" height="2.88"/><rect class="cls-2" x="406.31" y="337.21" width="2.89" height="2.88"/><rect class="cls-2" x="406.31" y="342.04" width="2.89" height="2.88"/><rect class="cls-2" x="406.31" y="346.87" width="2.89" height="2.88"/><rect class="cls-2" x="406.31" y="351.7" width="2.89" height="2.88"/><rect class="cls-2" x="406.31" y="356.53" width="2.89" height="2.88"/><rect class="cls-2" x="406.31" y="361.36" width="2.89" height="2.88"/><rect class="cls-2" x="401.73" y="269.59" width="2.89" height="2.88"/><rect class="cls-2" x="401.73" y="274.42" width="2.89" height="2.88"/><rect class="cls-2" x="401.73" y="279.25" width="2.89" height="2.88"/><rect class="cls-2" x="401.73" y="284.08" width="2.89" height="2.88"/><rect class="cls-2" x="401.73" y="288.91" width="2.89" height="2.88"/><rect class="cls-2" x="401.73" y="293.74" width="2.89" height="2.88"/><rect class="cls-2" x="401.73" y="298.57" width="2.89" height="2.88"/><rect class="cls-2" x="401.73" y="303.4" width="2.89" height="2.88"/><rect class="cls-2" x="401.73" y="308.23" width="2.89" height="2.88"/><rect class="cls-2" x="401.73" y="313.06" width="2.89" height="2.88"/><rect class="cls-2" x="401.73" y="317.89" width="2.89" height="2.88"/><rect class="cls-2" x="401.73" y="322.72" width="2.89" height="2.88"/><rect class="cls-2" x="401.73" y="327.55" width="2.89" height="2.88"/><rect class="cls-2" x="401.73" y="332.38" width="2.89" height="2.88"/><rect class="cls-2" x="401.73" y="337.21" width="2.89" height="2.88"/><rect class="cls-2" x="401.73" y="342.04" width="2.89" height="2.88"/><rect class="cls-2" x="401.73" y="346.87" width="2.89" height="2.88"/><rect class="cls-2" x="401.73" y="351.7" width="2.89" height="2.88"/><rect class="cls-2" x="397.15" y="269.59" width="2.89" height="2.88"/><rect class="cls-2" x="397.15" y="274.42" width="2.89" height="2.88"/><rect class="cls-2" x="397.15" y="279.25" width="2.89" height="2.88"/><rect class="cls-2" x="397.15" y="284.08" width="2.89" height="2.88"/><rect class="cls-2" x="397.15" y="288.91" width="2.89" height="2.88"/><rect class="cls-2" x="397.15" y="293.74" width="2.89" height="2.88"/><rect class="cls-2" x="397.15" y="298.57" width="2.89" height="2.88"/><rect class="cls-2" x="397.15" y="303.4" width="2.89" height="2.88"/><rect class="cls-2" x="397.15" y="308.23" width="2.89" height="2.88"/><rect class="cls-2" x="397.15" y="313.06" width="2.89" height="2.88"/><rect class="cls-2" x="397.15" y="317.89" width="2.89" height="2.88"/><rect class="cls-2" x="397.15" y="322.72" width="2.89" height="2.88"/><rect class="cls-2" x="397.15" y="327.55" width="2.89" height="2.88"/><rect class="cls-2" x="397.15" y="332.38" width="2.89" height="2.88"/><rect class="cls-2" x="397.15" y="337.21" width="2.89" height="2.88"/><rect class="cls-2" x="397.15" y="342.04" width="2.89" height="2.88"/><rect class="cls-2" x="397.15" y="346.87" width="2.89" height="2.88"/><rect class="cls-2" x="397.15" y="351.7" width="2.89" height="2.88"/><rect class="cls-2" x="423.46" y="304.84" width="2.89" height="2.88"/><rect class="cls-2" x="423.46" y="309.67" width="2.89" height="2.88"/><rect class="cls-2" x="423.46" y="314.5" width="2.89" height="2.88"/><rect class="cls-2" x="423.46" y="319.33" width="2.89" height="2.88"/><rect class="cls-2" x="423.46" y="324.16" width="2.89" height="2.88"/><rect class="cls-2" x="423.46" y="328.99" width="2.89" height="2.88"/><rect class="cls-2" x="423.46" y="333.82" width="2.89" height="2.88"/><rect class="cls-2" x="423.46" y="338.65" width="2.89" height="2.88"/><rect class="cls-2" x="423.46" y="343.48" width="2.89" height="2.88"/><rect class="cls-2" x="423.46" y="348.31" width="2.89" height="2.88"/><rect class="cls-2" x="423.46" y="353.14" width="2.89" height="2.88"/><rect class="cls-2" x="423.46" y="357.97" width="2.89" height="2.88"/><rect class="cls-2" x="423.46" y="362.8" width="2.89" height="2.88"/><rect class="cls-2" x="418.88" y="304.84" width="2.89" height="2.88"/><rect class="cls-2" x="418.88" y="309.67" width="2.89" height="2.88"/><rect class="cls-2" x="418.88" y="314.5" width="2.89" height="2.88"/><rect class="cls-2" x="418.88" y="319.33" width="2.89" height="2.88"/><rect class="cls-2" x="418.88" y="324.16" width="2.89" height="2.88"/><rect class="cls-2" x="418.88" y="328.99" width="2.89" height="2.88"/><rect class="cls-2" x="418.88" y="333.82" width="2.89" height="2.88"/><rect class="cls-2" x="418.88" y="338.65" width="2.89" height="2.88"/><rect class="cls-2" x="418.88" y="343.48" width="2.89" height="2.88"/><rect class="cls-2" x="418.88" y="348.31" width="2.89" height="2.88"/><rect class="cls-2" x="418.88" y="353.14" width="2.89" height="2.88"/><rect class="cls-2" x="418.88" y="357.97" width="2.89" height="2.88"/><rect class="cls-2" x="418.88" y="362.8" width="2.89" height="2.88"/><rect class="cls-2" x="414.29" y="304.84" width="2.89" height="2.88"/><rect class="cls-2" x="414.29" y="309.67" width="2.89" height="2.88"/><rect class="cls-2" x="414.29" y="314.5" width="2.89" height="2.88"/><rect class="cls-2" x="414.29" y="319.33" width="2.89" height="2.88"/><rect class="cls-2" x="414.29" y="324.16" width="2.89" height="2.88"/><rect class="cls-2" x="414.29" y="328.99" width="2.89" height="2.88"/><rect class="cls-2" x="414.29" y="333.82" width="2.89" height="2.88"/><rect class="cls-2" x="414.29" y="338.65" width="2.89" height="2.88"/><rect class="cls-2" x="414.29" y="343.48" width="2.89" height="2.88"/><rect class="cls-2" x="414.29" y="348.31" width="2.89" height="2.88"/><rect class="cls-2" x="414.29" y="353.14" width="2.89" height="2.88"/><rect class="cls-2" x="414.29" y="357.97" width="2.89" height="2.88"/><rect class="cls-2" x="414.29" y="362.8" width="2.89" height="2.88"/><rect class="cls-2" x="414.29" y="367.63" width="2.89" height="2.88"/><rect class="cls-2" x="388.83" y="306.28" width="2.89" height="2.88"/><rect class="cls-2" x="388.83" y="311.11" width="2.89" height="2.88"/><rect class="cls-2" x="388.83" y="315.94" width="2.89" height="2.88"/><rect class="cls-2" x="388.83" y="320.77" width="2.89" height="2.88"/><rect class="cls-2" x="388.83" y="325.6" width="2.89" height="2.88"/><rect class="cls-2" x="388.83" y="330.43" width="2.89" height="2.88"/><rect class="cls-2" x="388.83" y="335.26" width="2.89" height="2.88"/><rect class="cls-2" x="388.83" y="340.09" width="2.89" height="2.88"/><rect class="cls-2" x="388.83" y="344.92" width="2.89" height="2.88"/><rect class="cls-2" x="388.83" y="349.75" width="2.89" height="2.88"/><rect class="cls-2" x="388.83" y="364.24" width="2.89" height="2.88"/><rect class="cls-2" x="384.24" y="306.28" width="2.89" height="2.88"/><rect class="cls-2" x="384.24" y="311.11" width="2.89" height="2.88"/><rect class="cls-2" x="384.24" y="315.94" width="2.89" height="2.88"/><rect class="cls-2" x="384.24" y="320.77" width="2.89" height="2.88"/><rect class="cls-2" x="384.24" y="325.6" width="2.89" height="2.88"/><rect class="cls-2" x="384.24" y="330.43" width="2.89" height="2.88"/><rect class="cls-2" x="384.24" y="335.26" width="2.89" height="2.88"/><rect class="cls-2" x="384.24" y="340.09" width="2.89" height="2.88"/><rect class="cls-2" x="384.24" y="344.92" width="2.89" height="2.88"/><rect class="cls-2" x="384.24" y="359.41" width="2.89" height="2.88"/><rect class="cls-2" x="384.24" y="364.24" width="2.89" height="2.88"/><rect class="cls-2" x="379.66" y="306.28" width="2.89" height="2.88"/><rect class="cls-2" x="379.66" y="311.11" width="2.89" height="2.88"/><rect class="cls-2" x="379.66" y="315.94" width="2.89" height="2.88"/><rect class="cls-2" x="379.66" y="320.77" width="2.89" height="2.88"/><rect class="cls-2" x="379.66" y="325.6" width="2.89" height="2.88"/><rect class="cls-2" x="379.66" y="330.43" width="2.89" height="2.88"/><rect class="cls-2" x="379.66" y="335.26" width="2.89" height="2.88"/><rect class="cls-2" x="379.66" y="340.09" width="2.89" height="2.88"/><rect class="cls-2" x="379.66" y="354.58" width="2.89" height="2.88"/><rect class="cls-2" x="379.66" y="359.41" width="2.89" height="2.88"/><rect class="cls-2" x="379.66" y="364.24" width="2.89" height="2.88"/><rect class="cls-2" x="337.05" y="232.9" width="2.89" height="2.88"/><rect class="cls-2" x="337.05" y="237.73" width="2.89" height="2.88"/><rect class="cls-2" x="337.05" y="242.56" width="2.89" height="2.88"/><rect class="cls-2" x="337.05" y="247.39" width="2.89" height="2.88"/><rect class="cls-2" x="337.05" y="252.22" width="2.89" height="2.88"/><rect class="cls-2" x="337.05" y="257.05" width="2.89" height="2.88"/><rect class="cls-2" x="337.05" y="261.88" width="2.89" height="2.88"/><rect class="cls-2" x="337.05" y="266.71" width="2.89" height="2.88"/><rect class="cls-2" x="337.05" y="271.54" width="2.89" height="2.88"/><rect class="cls-2" x="337.05" y="276.37" width="2.89" height="2.88"/><rect class="cls-2" x="337.05" y="281.2" width="2.89" height="2.88"/><rect class="cls-2" x="337.05" y="286.03" width="2.89" height="2.88"/><rect class="cls-2" x="337.05" y="290.86" width="2.89" height="2.88"/><rect class="cls-2" x="337.05" y="295.69" width="2.89" height="2.88"/><rect class="cls-2" x="337.05" y="300.52" width="2.89" height="2.88"/><rect class="cls-2" x="337.05" y="305.35" width="2.89" height="2.88"/><rect class="cls-2" x="337.05" y="310.18" width="2.89" height="2.88"/><rect class="cls-2" x="337.05" y="319.84" width="2.89" height="2.88"/><rect class="cls-2" x="337.05" y="324.67" width="2.89" height="2.88"/><rect class="cls-2" x="337.05" y="329.5" width="2.89" height="2.88"/><rect class="cls-2" x="337.05" y="334.33" width="2.89" height="2.88"/><rect class="cls-2" x="337.05" y="339.16" width="2.89" height="2.88"/><rect class="cls-2" x="332.46" y="232.9" width="2.89" height="2.88"/><rect class="cls-2" x="332.46" y="237.73" width="2.89" height="2.88"/><rect class="cls-2" x="332.46" y="242.56" width="2.89" height="2.88"/><rect class="cls-2" x="332.46" y="247.39" width="2.89" height="2.88"/><rect class="cls-2" x="332.46" y="252.22" width="2.89" height="2.88"/><rect class="cls-2" x="332.46" y="257.05" width="2.89" height="2.88"/><rect class="cls-2" x="332.46" y="261.88" width="2.89" height="2.88"/><rect class="cls-2" x="332.46" y="266.71" width="2.89" height="2.88"/><rect class="cls-2" x="332.46" y="271.54" width="2.89" height="2.88"/><rect class="cls-2" x="332.46" y="276.37" width="2.89" height="2.88"/><rect class="cls-2" x="332.46" y="281.2" width="2.89" height="2.88"/><rect class="cls-2" x="332.46" y="286.03" width="2.89" height="2.88"/><rect class="cls-2" x="332.46" y="290.86" width="2.89" height="2.88"/><rect class="cls-2" x="332.46" y="295.69" width="2.89" height="2.88"/><rect class="cls-2" x="332.46" y="300.52" width="2.89" height="2.88"/><rect class="cls-2" x="332.46" y="305.35" width="2.89" height="2.88"/><rect class="cls-2" x="332.46" y="334.33" width="2.89" height="2.88"/><rect class="cls-2" x="332.46" y="339.16" width="2.89" height="2.88"/><rect class="cls-2" x="327.88" y="232.9" width="2.89" height="2.88"/><rect class="cls-2" x="327.88" y="237.73" width="2.89" height="2.88"/><rect class="cls-2" x="327.88" y="242.56" width="2.89" height="2.88"/><rect class="cls-2" x="327.88" y="247.39" width="2.89" height="2.88"/><rect class="cls-2" x="327.88" y="252.22" width="2.89" height="2.88"/><rect class="cls-2" x="327.88" y="257.05" width="2.89" height="2.88"/><rect class="cls-2" x="327.88" y="261.88" width="2.89" height="2.88"/><rect class="cls-2" x="327.88" y="266.71" width="2.89" height="2.88"/><rect class="cls-2" x="327.88" y="271.54" width="2.89" height="2.88"/><rect class="cls-2" x="327.88" y="276.37" width="2.89" height="2.88"/><rect class="cls-2" x="327.88" y="281.2" width="2.89" height="2.88"/><rect class="cls-2" x="327.88" y="286.03" width="2.89" height="2.88"/><rect class="cls-2" x="327.88" y="290.86" width="2.89" height="2.88"/><rect class="cls-2" x="327.88" y="295.69" width="2.89" height="2.88"/><rect class="cls-2" x="327.88" y="300.52" width="2.89" height="2.88"/><rect class="cls-2" x="327.88" y="305.35" width="2.89" height="2.88"/><rect class="cls-2" x="327.88" y="315.01" width="2.89" height="2.88"/><rect class="cls-2" x="327.88" y="319.84" width="2.89" height="2.88"/><rect class="cls-2" x="327.88" y="324.67" width="2.89" height="2.88"/><rect class="cls-2" x="327.88" y="329.5" width="2.89" height="2.88"/><rect class="cls-2" x="327.88" y="339.16" width="2.89" height="2.88"/><rect class="cls-2" x="353.69" y="293.74" width="2.89" height="2.88"/><rect class="cls-2" x="353.69" y="298.57" width="2.89" height="2.88"/><rect class="cls-2" x="353.69" y="303.4" width="2.89" height="2.88"/><rect class="cls-2" x="353.69" y="308.23" width="2.89" height="2.88"/><rect class="cls-2" x="353.69" y="313.06" width="2.89" height="2.88"/><rect class="cls-2" x="353.69" y="317.89" width="2.89" height="2.88"/><rect class="cls-2" x="353.69" y="322.72" width="2.89" height="2.88"/><rect class="cls-2" x="353.69" y="332.38" width="2.89" height="2.88"/><rect class="cls-2" x="353.69" y="337.21" width="2.89" height="2.88"/><rect class="cls-2" x="353.69" y="342.04" width="2.89" height="2.88"/><rect class="cls-2" x="353.69" y="346.87" width="2.89" height="2.88"/><rect class="cls-2" x="353.69" y="351.7" width="2.89" height="2.88"/><rect class="cls-2" x="353.69" y="356.53" width="2.89" height="2.88"/><rect class="cls-2" x="353.69" y="361.36" width="2.89" height="2.88"/><rect class="cls-2" x="353.69" y="366.19" width="2.89" height="2.88"/><rect class="cls-2" x="349.1" y="293.74" width="2.89" height="2.88"/><rect class="cls-2" x="349.1" y="298.57" width="2.89" height="2.88"/><rect class="cls-2" x="349.1" y="303.4" width="2.89" height="2.88"/><rect class="cls-2" x="349.1" y="308.23" width="2.89" height="2.88"/><rect class="cls-2" x="349.1" y="313.06" width="2.89" height="2.88"/><rect class="cls-2" x="349.1" y="317.89" width="2.89" height="2.88"/><rect class="cls-2" x="349.1" y="332.38" width="2.89" height="2.88"/><rect class="cls-2" x="349.1" y="337.21" width="2.89" height="2.88"/><rect class="cls-2" x="349.1" y="342.04" width="2.89" height="2.88"/><rect class="cls-2" x="349.1" y="346.87" width="2.89" height="2.88"/><rect class="cls-2" x="349.1" y="351.7" width="2.89" height="2.88"/><rect class="cls-2" x="349.1" y="356.53" width="2.89" height="2.88"/><rect class="cls-2" x="349.1" y="361.36" width="2.89" height="2.88"/><rect class="cls-2" x="349.1" y="366.19" width="2.89" height="2.88"/><rect class="cls-2" x="344.52" y="293.74" width="2.89" height="2.88"/><rect class="cls-2" x="344.52" y="298.57" width="2.89" height="2.88"/><rect class="cls-2" x="344.52" y="303.4" width="2.89" height="2.88"/><rect class="cls-2" x="344.52" y="308.23" width="2.89" height="2.88"/><rect class="cls-2" x="344.52" y="313.06" width="2.89" height="2.88"/><rect class="cls-2" x="344.52" y="317.89" width="2.89" height="2.88"/><rect class="cls-2" x="344.52" y="327.55" width="2.89" height="2.88"/><rect class="cls-2" x="344.52" y="332.38" width="2.89" height="2.88"/><rect class="cls-2" x="344.52" y="337.21" width="2.89" height="2.88"/><rect class="cls-2" x="344.52" y="342.04" width="2.89" height="2.88"/><rect class="cls-2" x="344.52" y="346.87" width="2.89" height="2.88"/><rect class="cls-2" x="344.52" y="351.7" width="2.89" height="2.88"/><rect class="cls-2" x="344.52" y="356.53" width="2.89" height="2.88"/><rect class="cls-2" x="344.52" y="361.36" width="2.89" height="2.88"/><rect class="cls-2" x="344.52" y="366.19" width="2.89" height="2.88"/><rect class="cls-2" x="247.92" y="266.71" width="2.89" height="2.88"/><rect class="cls-2" x="247.92" y="271.54" width="2.89" height="2.88"/><rect class="cls-2" x="247.92" y="276.37" width="2.89" height="2.88"/><rect class="cls-2" x="247.92" y="281.2" width="2.89" height="2.88"/><rect class="cls-2" x="247.92" y="286.03" width="2.89" height="2.88"/><rect class="cls-2" x="247.92" y="290.86" width="2.89" height="2.88"/><rect class="cls-2" x="247.92" y="295.69" width="2.89" height="2.88"/><rect class="cls-2" x="247.92" y="300.52" width="2.89" height="2.88"/><rect class="cls-2" x="247.92" y="305.35" width="2.89" height="2.88"/><rect class="cls-2" x="247.92" y="310.18" width="2.89" height="2.88"/><rect class="cls-2" x="247.92" y="315.01" width="2.89" height="2.88"/><rect class="cls-2" x="247.92" y="319.84" width="2.89" height="2.88"/><rect class="cls-2" x="247.92" y="324.67" width="2.89" height="2.88"/><rect class="cls-2" x="247.92" y="334.33" width="2.89" height="2.88"/><rect class="cls-2" x="247.92" y="339.16" width="2.89" height="2.88"/><rect class="cls-2" x="247.92" y="343.99" width="2.89" height="2.88"/><rect class="cls-2" x="247.92" y="348.82" width="2.89" height="2.88"/><rect class="cls-2" x="247.92" y="358.48" width="2.89" height="2.88"/><rect class="cls-2" x="247.92" y="363.31" width="2.89" height="2.88"/><rect class="cls-2" x="247.92" y="368.14" width="2.89" height="2.88"/><rect class="cls-2" x="243.34" y="266.71" width="2.89" height="2.88"/><rect class="cls-2" x="243.34" y="271.54" width="2.89" height="2.88"/><rect class="cls-2" x="243.34" y="276.37" width="2.89" height="2.88"/><rect class="cls-2" x="243.34" y="281.2" width="2.89" height="2.88"/><rect class="cls-2" x="243.34" y="286.03" width="2.89" height="2.88"/><rect class="cls-2" x="243.34" y="290.86" width="2.89" height="2.88"/><rect class="cls-2" x="243.34" y="295.69" width="2.89" height="2.88"/><rect class="cls-2" x="243.34" y="300.52" width="2.89" height="2.88"/><rect class="cls-2" x="243.34" y="305.35" width="2.89" height="2.88"/><rect class="cls-2" x="243.34" y="310.18" width="2.89" height="2.88"/><rect class="cls-2" x="243.34" y="315.01" width="2.89" height="2.88"/><rect class="cls-2" x="243.34" y="319.84" width="2.89" height="2.88"/><rect class="cls-2" x="243.34" y="324.67" width="2.89" height="2.88"/><rect class="cls-2" x="243.34" y="339.16" width="2.89" height="2.88"/><rect class="cls-2" x="243.34" y="343.99" width="2.89" height="2.88"/><rect class="cls-2" x="243.34" y="353.65" width="2.89" height="2.88"/><rect class="cls-2" x="243.34" y="358.48" width="2.89" height="2.88"/><rect class="cls-2" x="243.34" y="363.31" width="2.89" height="2.88"/><rect class="cls-2" x="243.34" y="368.14" width="2.89" height="2.88"/><rect class="cls-2" x="238.75" y="266.71" width="2.89" height="2.88"/><rect class="cls-2" x="238.75" y="271.54" width="2.89" height="2.88"/><rect class="cls-2" x="238.75" y="276.37" width="2.89" height="2.88"/><rect class="cls-2" x="238.75" y="281.2" width="2.89" height="2.88"/><rect class="cls-2" x="238.75" y="286.03" width="2.89" height="2.88"/><rect class="cls-2" x="238.75" y="290.86" width="2.89" height="2.88"/><rect class="cls-2" x="238.75" y="295.69" width="2.89" height="2.88"/><rect class="cls-2" x="238.75" y="300.52" width="2.89" height="2.88"/><rect class="cls-2" x="238.75" y="305.35" width="2.89" height="2.88"/><rect class="cls-2" x="238.75" y="310.18" width="2.89" height="2.88"/><rect class="cls-2" x="238.75" y="315.01" width="2.89" height="2.88"/><rect class="cls-2" x="238.75" y="319.84" width="2.89" height="2.88"/><rect class="cls-2" x="238.75" y="324.67" width="2.89" height="2.88"/><rect class="cls-2" x="238.75" y="329.5" width="2.89" height="2.88"/><rect class="cls-2" x="238.75" y="339.16" width="2.89" height="2.88"/><rect class="cls-2" x="238.75" y="348.82" width="2.89" height="2.88"/><rect class="cls-2" x="238.75" y="353.65" width="2.89" height="2.88"/><rect class="cls-2" x="238.75" y="358.48" width="2.89" height="2.88"/><rect class="cls-2" x="238.75" y="363.31" width="2.89" height="2.88"/><rect class="cls-2" x="238.75" y="368.14" width="2.89" height="2.88"/><rect class="cls-2" x="266.6" y="294.25" width="2.89" height="2.88"/><rect class="cls-2" x="266.6" y="299.08" width="2.89" height="2.88"/><rect class="cls-2" x="266.6" y="303.91" width="2.89" height="2.88"/><rect class="cls-2" x="266.6" y="308.74" width="2.89" height="2.88"/><rect class="cls-2" x="266.6" y="313.57" width="2.89" height="2.88"/><rect class="cls-2" x="266.6" y="318.4" width="2.89" height="2.88"/><rect class="cls-2" x="266.6" y="332.89" width="2.89" height="2.88"/><rect class="cls-2" x="266.6" y="337.72" width="2.89" height="2.88"/><rect class="cls-2" x="266.6" y="342.55" width="2.89" height="2.88"/><rect class="cls-2" x="266.6" y="347.38" width="2.89" height="2.88"/><rect class="cls-2" x="266.6" y="352.21" width="2.89" height="2.88"/><rect class="cls-2" x="266.6" y="357.04" width="2.89" height="2.88"/><rect class="cls-2" x="266.6" y="361.87" width="2.89" height="2.88"/><rect class="cls-2" x="262.01" y="294.25" width="2.89" height="2.88"/><rect class="cls-2" x="262.01" y="299.08" width="2.89" height="2.88"/><rect class="cls-2" x="262.01" y="303.91" width="2.89" height="2.88"/><rect class="cls-2" x="262.01" y="308.74" width="2.89" height="2.88"/><rect class="cls-2" x="262.01" y="313.57" width="2.89" height="2.88"/><rect class="cls-2" x="262.01" y="318.4" width="2.89" height="2.88"/><rect class="cls-2" x="262.01" y="332.89" width="2.89" height="2.88"/><rect class="cls-2" x="262.01" y="337.72" width="2.89" height="2.88"/><rect class="cls-2" x="262.01" y="342.55" width="2.89" height="2.88"/><rect class="cls-2" x="262.01" y="347.38" width="2.89" height="2.88"/><rect class="cls-2" x="262.01" y="352.21" width="2.89" height="2.88"/><rect class="cls-2" x="262.01" y="357.04" width="2.89" height="2.88"/><rect class="cls-2" x="262.01" y="366.7" width="2.89" height="2.88"/><rect class="cls-2" x="109.73" y="272.98" width="2.89" height="2.88"/><rect class="cls-2" x="109.73" y="277.81" width="2.89" height="2.88"/><rect class="cls-2" x="109.73" y="282.64" width="2.89" height="2.88"/><rect class="cls-2" x="109.73" y="287.47" width="2.89" height="2.88"/><rect class="cls-2" x="109.73" y="292.3" width="2.89" height="2.88"/><rect class="cls-2" x="109.73" y="297.13" width="2.89" height="2.88"/><rect class="cls-2" x="109.73" y="301.96" width="2.89" height="2.88"/><rect class="cls-2" x="109.73" y="306.79" width="2.89" height="2.88"/><rect class="cls-2" x="109.73" y="311.62" width="2.89" height="2.88"/><rect class="cls-2" x="109.73" y="316.45" width="2.89" height="2.88"/><rect class="cls-2" x="109.73" y="321.28" width="2.89" height="2.88"/><rect class="cls-2" x="109.73" y="330.94" width="2.89" height="2.88"/><rect class="cls-2" x="109.73" y="335.77" width="2.89" height="2.88"/><rect class="cls-2" x="109.73" y="340.6" width="2.89" height="2.88"/><rect class="cls-2" x="109.73" y="345.43" width="2.89" height="2.88"/><rect class="cls-2" x="109.73" y="350.26" width="2.89" height="2.88"/><rect class="cls-2" x="109.73" y="355.09" width="2.89" height="2.88"/><rect class="cls-2" x="109.73" y="359.92" width="2.89" height="2.88"/><rect class="cls-2" x="109.73" y="364.75" width="2.89" height="2.88"/><rect class="cls-2" x="105.15" y="272.98" width="2.89" height="2.88"/><rect class="cls-2" x="105.15" y="277.81" width="2.89" height="2.88"/><rect class="cls-2" x="105.15" y="282.64" width="2.89" height="2.88"/><rect class="cls-2" x="105.15" y="287.47" width="2.89" height="2.88"/><rect class="cls-2" x="105.15" y="292.3" width="2.89" height="2.88"/><rect class="cls-2" x="105.15" y="297.13" width="2.89" height="2.88"/><rect class="cls-2" x="105.15" y="301.96" width="2.89" height="2.88"/><rect class="cls-2" x="105.15" y="306.79" width="2.89" height="2.88"/><rect class="cls-2" x="105.15" y="311.62" width="2.89" height="2.88"/><rect class="cls-2" x="105.15" y="316.45" width="2.89" height="2.88"/><rect class="cls-2" x="105.15" y="321.28" width="2.89" height="2.88"/><rect class="cls-2" x="105.15" y="326.11" width="2.89" height="2.88"/><rect class="cls-2" x="105.15" y="330.94" width="2.89" height="2.88"/><rect class="cls-2" x="105.15" y="335.77" width="2.89" height="2.88"/><rect class="cls-2" x="105.15" y="340.6" width="2.89" height="2.88"/><rect class="cls-2" x="105.15" y="345.43" width="2.89" height="2.88"/><rect class="cls-2" x="105.15" y="350.26" width="2.89" height="2.88"/><rect class="cls-2" x="105.15" y="355.09" width="2.89" height="2.88"/><rect class="cls-2" x="105.15" y="359.92" width="2.89" height="2.88"/><rect class="cls-2" x="105.15" y="364.75" width="2.89" height="2.88"/><rect class="cls-2" x="132.31" y="291.79" width="2.89" height="2.88"/><rect class="cls-2" x="132.31" y="296.62" width="2.89" height="2.88"/><rect class="cls-2" x="132.31" y="301.45" width="2.89" height="2.88"/><rect class="cls-2" x="132.31" y="306.28" width="2.89" height="2.88"/><rect class="cls-2" x="132.31" y="311.11" width="2.89" height="2.88"/><rect class="cls-2" x="132.31" y="315.94" width="2.89" height="2.88"/><rect class="cls-2" x="132.31" y="320.77" width="2.89" height="2.88"/><rect class="cls-2" x="132.31" y="325.6" width="2.89" height="2.88"/><rect class="cls-2" x="132.31" y="330.43" width="2.89" height="2.88"/><rect class="cls-2" x="132.31" y="335.26" width="2.89" height="2.88"/><rect class="cls-2" x="127.73" y="291.79" width="2.89" height="2.88"/><rect class="cls-2" x="127.73" y="296.62" width="2.89" height="2.88"/><rect class="cls-2" x="127.73" y="301.45" width="2.89" height="2.88"/><rect class="cls-2" x="127.73" y="306.28" width="2.89" height="2.88"/><rect class="cls-2" x="127.73" y="311.11" width="2.89" height="2.88"/><rect class="cls-2" x="127.73" y="315.94" width="2.89" height="2.88"/><rect class="cls-2" x="127.73" y="320.77" width="2.89" height="2.88"/><rect class="cls-2" x="127.73" y="325.6" width="2.89" height="2.88"/><rect class="cls-2" x="127.73" y="330.43" width="2.89" height="2.88"/></g><g id="Shadow"><ellipse id="_Path_" data-name="&lt;Path&gt;" class="cls-4" cx="249.24" cy="414.52" rx="193.3" ry="11.27"/></g><g id="Arrow_1" data-name="Arrow 1"><polygon class="cls-5" points="244.73 234.25 246.4 236.33 87.16 362.95 93.94 371.34 94.87 372.49 254.12 245.86 255.79 247.93 258.78 234.22 244.73 234.25"/><polygon class="cls-6" points="244.73 234.25 246.4 236.33 87.16 362.95 93.94 371.34 94.87 372.49 254.12 245.86 255.79 247.93 258.78 234.22 244.73 234.25"/><path class="cls-5" d="M63.72,371.81A5.24,5.24,0,0,1,69,366.58a5,5,0,0,1,1.51.22,10.71,10.71,0,0,1-.12-1.61,11.09,11.09,0,0,1,11.1-11.08,10.71,10.71,0,0,1,2,.19,9.7,9.7,0,0,1,18,4.9h.16a8.93,8.93,0,1,1,0,17.85H68.81A5.24,5.24,0,0,1,63.72,371.81Z"/><path class="cls-7" d="M63.72,371.81A5.24,5.24,0,0,1,69,366.58a5,5,0,0,1,1.51.22,10.71,10.71,0,0,1-.12-1.61,11.09,11.09,0,0,1,11.1-11.08,10.71,10.71,0,0,1,2,.19,9.7,9.7,0,0,1,18,4.9h.16a8.93,8.93,0,1,1,0,17.85H68.81A5.24,5.24,0,0,1,63.72,371.81Z"/></g><g id="Arrow_3" data-name="Arrow 3"><polygon class="cls-5" points="397.54 314.47 401.52 319.39 327.5 379.08 343.58 398.95 345.79 401.68 419.81 341.99 423.79 346.91 430.86 314.4 397.54 314.47"/><polygon class="cls-8" points="397.54 314.47 401.52 319.39 327.5 379.08 343.58 398.95 345.79 401.68 419.81 341.99 423.79 346.91 430.86 314.4 397.54 314.47"/><path class="cls-5" d="M357.52,376.93a16.87,16.87,0,0,0-28.76.24,9,9,0,0,0-11.49,8.69H312.5a4.52,4.52,0,1,0,0,9H329a16.89,16.89,0,0,0,26.32,2.76c.28,0,.57,0,.86,0a10.43,10.43,0,0,0,1.38-20.77Z"/><path class="cls-7" d="M357.52,376.93a16.87,16.87,0,0,0-28.76.24,9,9,0,0,0-11.49,8.69H312.5a4.52,4.52,0,1,0,0,9H329a16.89,16.89,0,0,0,26.32,2.76c.28,0,.57,0,.86,0a10.43,10.43,0,0,0,1.38-20.77Z"/></g><g id="Character_1" data-name="Character 1"><path class="cls-9" d="M246.39,175,245,173.47a1.64,1.64,0,0,0-1.5-.49l-2.15.42a1.63,1.63,0,0,0-1.33,1.41l-1.1,9,3.34,1.28c4.06-1.77,3.85-7.12,3.85-7.12l.58-1.07A1.65,1.65,0,0,0,246.39,175Z"/><path class="cls-5" d="M206.15,201.94s3.19.19,5.06.15,3.77-.06,5.62-.17,3.67-.25,5.35-.48a20.85,20.85,0,0,0,2.27-.44,5.67,5.67,0,0,0,.72-.23c.21-.1,0,.08.1,0a17.25,17.25,0,0,0,1.44-1.65c.55-.7,1.1-1.44,1.64-2.2,1.1-1.52,2.18-3.11,3.27-4.7l6.51-9.64,5.09,2.7c-.75,1.86-1.56,3.65-2.37,5.46s-1.7,3.58-2.59,5.37-1.83,3.55-2.84,5.32c-.52.89-1,1.77-1.62,2.68a20.39,20.39,0,0,1-2.21,2.93,9.08,9.08,0,0,1-2.27,1.72,14.27,14.27,0,0,1-2,.88,26.83,26.83,0,0,1-3.42,1,52.28,52.28,0,0,1-6.31,1,100,100,0,0,1-12.23.47Z"/><path class="cls-6" d="M243.21,185.29c-.74,1.86-1.55,3.65-2.36,5.46s-1.7,3.58-2.59,5.37-1.83,3.55-2.84,5.32c-.51.88-1,1.77-1.63,2.67a19.06,19.06,0,0,1-2.2,2.94,9.21,9.21,0,0,1-2.27,1.71,14.56,14.56,0,0,1-2,.9,26.59,26.59,0,0,1-3.42,1,50.15,50.15,0,0,1-6.31,1c-.89.09-1.76.16-2.63.23-3.2.23-6.35.31-9.6.24l.16-2.09.63-8s3.19.19,5.06.14,3.77-.06,5.62-.16,3.67-.24,5.35-.48a17.28,17.28,0,0,0,2.27-.44,5.67,5.67,0,0,0,.72-.23c.22-.1,0,.08.1,0a14.93,14.93,0,0,0,1.44-1.65c.55-.7,1.1-1.44,1.64-2.2,1.1-1.52,2.18-3.11,3.27-4.7l6.51-9.64Z"/><path class="cls-10" d="M215,211.82c-3.2.23-6.35.31-9.6.24l.16-2.09.78-1.83A12.62,12.62,0,0,1,215,211.82Z"/><path d="M152.83,380.48s-9-6.2-8.48-10.37a.7.7,0,0,0-.62-.83l-7.65-1.16a1,1,0,0,0-1,.41l-4.52,6.32,2,.73,1.09-.76.52,1.34c11,4,15.82,5.59,18.25,5.69C153.17,381,152.83,380.48,152.83,380.48Z"/><path class="cls-11" d="M203.65,263.4s-.45,1.2-1.26,3.27c-.87,2.24-2.15,5.5-3.68,9.38-1,2.59-2.16,5.46-3.39,8.47-5.63,14-12.91,31.26-17.73,40-9.22,16.7-33.25,48.42-33.25,48.42l-9.6-3.5s17.29-32.67,26-49.22a191.17,191.17,0,0,0,8.76-20.57c1.44-3.85,2.88-7.86,4.26-11.83.63-1.8,1.25-3.59,1.85-5.35,1.58-4.66,3.07-9.15,4.38-13.15.16-.49.32-1,.47-1.47.53-1.64,1-3.19,1.48-4.63,1.87-5.89,3-9.77,3.08-9.92h0L193.6,258Z"/><path class="cls-12" d="M202.39,266.67c-.87,2.24-2.15,5.5-3.68,9.38-1,2.59-2.16,5.46-3.39,8.47-7.84,1.57-15.81,2.64-21.55,3.29.63-1.8,1.25-3.59,1.85-5.35,1.58-4.66,3.07-9.15,4.38-13.15.16-.49.32-1,.47-1.47.53-1.64,1-3.19,1.48-4.63C187.71,264,195.42,265.17,202.39,266.67Z"/><path class="cls-5" d="M173,207.24v0a78.23,78.23,0,0,1,2.64,15.31c.35,4.13.49,8.19.5,11.84s-.09,6.92-.21,9.41c-.16,3.2-.35,5.17-.35,5.17l30.29,1.55c9.09-32.88.3-48.6.3-48.6a63.54,63.54,0,0,0-8.13-.19c-.56,0-1.12.06-1.71.11a119.37,119.37,0,0,0-13.55,2.36c-.81.18-1.62.39-2.42.61C176.38,205.9,173,207.24,173,207.24Z"/><path class="cls-6" d="M205.85,250.54,175.56,249s.19-2,.35-5.17c0-.94.08-2,.12-3.16.06-1.86.1-4,.1-6.25,0-1.1,0-2.25-.06-3.42,0-.19,0-.38,0-.57-.05-1.86-.14-3.79-.27-5.75-.06-.7-.11-1.4-.17-2.09s-.09-1.11-.14-1.66c-.15-1.39-.31-2.78-.51-4.16-.05-.37-.11-.75-.17-1.12-.09-.63-.19-1.23-.3-1.85a62.05,62.05,0,0,0-1.51-6.54h0s3.42-1.33,7.37-2.42c.79-.21,1.61-.42,2.42-.6a119.37,119.37,0,0,1,13.55-2.36c.58,0,1.15-.09,1.72-.1a62.43,62.43,0,0,1,8.12.18S214.94,217.65,205.85,250.54Z"/><path d="M224.58,329.23s-8.65-6.7-7.86-10.83a.72.72,0,0,0-.57-.87l-7.57-1.59a1,1,0,0,0-1,.35l-4.88,6,2,.85,1.13-.7.43,1.37c10.78,4.61,15.48,6.48,17.9,6.72C224.9,329.76,224.58,329.23,224.58,329.23Z"/><path class="cls-11" d="M190,276.23c.46,0,.71,0,.71,0l36.32,5.27-20.68,34.23,10.35,3.93s37.43-40.28,29.07-49.47c-6.88-7.56-40.57-12.15-40.57-12.15l1.1-7.89-31.16-6.12C161.85,273.17,185.58,276,190,276.23Z"/><polygon class="cls-11" points="174.81 247.15 174.15 247.03 174.75 244.93 175.34 245.04 174.81 247.15"/><polygon class="cls-11" points="199.32 251.89 186.02 249.32 186.54 247.21 199.79 249.78 199.32 251.89"/><polygon class="cls-11" points="200.81 249.97 206.44 251.06 206.06 253.19 200.37 252.09 200.81 249.97"/><polygon class="cls-11" points="176.36 245.24 185.51 247.01 184.97 249.12 175.85 247.36 176.36 245.24"/><g class="cls-13"><polygon class="cls-14" points="174.81 247.15 174.15 247.03 174.75 244.93 175.34 245.04 174.81 247.15"/><polygon class="cls-14" points="199.32 251.89 186.02 249.32 186.54 247.21 199.79 249.78 199.32 251.89"/><polygon class="cls-14" points="200.81 249.97 206.44 251.06 206.06 253.19 200.37 252.09 200.81 249.97"/><polygon class="cls-14" points="176.36 245.24 185.51 247.01 184.97 249.12 175.85 247.36 176.36 245.24"/></g><path class="cls-15" d="M195.63,249.39l-.3,1.28a.39.39,0,0,1-.45.3l-3.34-.59a.39.39,0,0,1-.31-.48l.33-1.34a.41.41,0,0,1,.46-.29l3.3.64A.4.4,0,0,1,195.63,249.39Z"/><line class="cls-16" x1="192.87" y1="249.49" x2="191.85" y2="249.31"/><path class="cls-17" d="M185.9,190.5l7.91,6.55c-.77,3.2.57,6.16,2.13,6.71,0,0,1.16,2.74-1.07,3.21-4.51.93-9.65-3.43-9.65-3.43C187.61,201,186.74,194.59,185.9,190.5Z"/><path class="cls-18" d="M189.13,193.17l4.68,3.88a12.81,12.81,0,0,0-.38,2.27c-1.75-.22-4.18-2.1-4.38-3.93A6.06,6.06,0,0,1,189.13,193.17Z"/><path class="cls-11" d="M192.89,177.57c1.91,1.19,4.51,4.78,1.29,5.64S189.6,175.52,192.89,177.57Z"/><path class="cls-9" d="M183,189.84c3.34,4.41,5.08,7.16,9,7.95,5.85,1.19,10.1-4.76,8.13-10.09-1.77-4.8-7-11.2-12.65-10A7.63,7.63,0,0,0,183,189.84Z"/><path class="cls-11" d="M184,185l-4-4.68s-5.31,3.9-2.9,6.26c-1.59,3.74,4.73,8.95,10.25,7.88.64-3.37-4.28-9.12-4.28-9.12A9.9,9.9,0,0,0,184,185Z"/><path class="cls-9" d="M183.78,194.85a5.23,5.23,0,0,0,3.86,1.1c1.83-.23,2-2,.94-3.41s-3.12-2.58-4.68-1.66A2.38,2.38,0,0,0,183.78,194.85Z"/><path class="cls-11" d="M190.81,186.41c.25.37.65.54.9.38s.24-.61,0-1-.65-.54-.9-.38S190.56,186,190.81,186.41Z"/><path class="cls-11" d="M195,183.55c.25.37.65.54.89.37s.24-.6,0-1-.65-.55-.89-.38S194.78,183.17,195,183.55Z"/><path class="cls-19" d="M193.81,184.64a15.57,15.57,0,0,0,3.88,1.86c-.26,1-1.58,1.51-1.58,1.51Z"/><path class="cls-11" d="M192.64,190.54a4.55,4.55,0,0,0-.49.32.12.12,0,0,0,0,.18.13.13,0,0,0,.18,0,3.56,3.56,0,0,1,3.16-.58.14.14,0,0,0,.18-.07.15.15,0,0,0-.08-.18A3.71,3.71,0,0,0,192.64,190.54Z"/><path class="cls-11" d="M187.93,185.18a.3.3,0,0,0,.24-.12,2.17,2.17,0,0,1,1.62-1,.27.27,0,0,0,.27-.26.25.25,0,0,0-.27-.26,2.67,2.67,0,0,0-2.07,1.26.27.27,0,0,0,.08.37A.28.28,0,0,0,187.93,185.18Z"/><path class="cls-11" d="M195.08,180.15a.2.2,0,0,0,0-.15.26.26,0,0,0-.32-.19,2.61,2.61,0,0,0-1.8,1.6.27.27,0,0,0,.18.33.26.26,0,0,0,.33-.17,2,2,0,0,1,1.43-1.25A.26.26,0,0,0,195.08,180.15Z"/><path class="cls-11" d="M183,185.38s10.53-4.42,11.18-9.46-3.81-3-3.81-3,2.06-.14,1.86,1.35c0,0-3.55-2.42-6.94-.34a3.12,3.12,0,0,1,2.41,1.14,18.86,18.86,0,0,0-6.82,3.3C177.31,181.07,170.82,190.64,183,185.38Z"/><path class="cls-12" d="M205.24,258.07l-17.16-2a97.88,97.88,0,0,1,17.53-.72Z"/><path class="cls-10" d="M175.79,224.67c-.06-.7-.11-1.4-.17-2.09s-.09-1.11-.14-1.66c-.15-1.39-.31-2.78-.51-4.16-.05-.37-.11-.75-.17-1.12a10.73,10.73,0,0,1,1.51-1A23.78,23.78,0,0,1,175.79,224.67Z"/><path class="cls-17" d="M147.2,249.12l-3,7,6.45,1.6s2.77-4.59.07-8.09Z"/><polygon class="cls-17" points="144.68 261.49 149.78 261.52 150.67 257.69 144.22 256.1 144.68 261.49"/><path class="cls-5" d="M176.22,212.07c.45,4.38-1.05,6.16-1.05,6.16s-4.25,2.67-6.09,4c-1.57,1.18-3.11,2.38-4.56,3.58-.72.6-1.42,1.21-2.05,1.82a15.93,15.93,0,0,0-1.6,1.7,8.87,8.87,0,0,0-.51.78c-.18.29-.37.73-.57,1.08q-.58,1.22-1.14,2.55c-.74,1.78-1.43,3.63-2.1,5.51-1.38,3.74-2.66,7.6-4,11.39l-5.89-1.39c.6-4.13,1.41-8.16,2.35-12.23.49-2,1-4.06,1.66-6.13.31-1,.66-2.08,1.06-3.15.24-.57.43-1.08.73-1.69a16.7,16.7,0,0,1,1-1.85,24,24,0,0,1,2.37-2.95c.78-.86,1.57-1.65,2.37-2.41,1.59-1.52,3.21-2.9,4.86-4.24,3.3-2.67,6.61-5.12,10.16-7.48C173.27,207.15,175.82,208.11,176.22,212.07Z"/><path class="cls-6" d="M176.22,212.07c.45,4.38-1.05,6.16-1.05,6.16s-4.25,2.67-6.09,4c-1.57,1.18-3.11,2.38-4.56,3.58-.72.6-1.42,1.21-2.05,1.82a15.93,15.93,0,0,0-1.6,1.7,8.87,8.87,0,0,0-.51.78c-.18.29-.37.73-.57,1.08q-.58,1.22-1.14,2.55c-.74,1.78-1.43,3.63-2.1,5.51-1.38,3.74-2.66,7.6-4,11.39l-5.89-1.39c.6-4.13,1.41-8.16,2.35-12.23.49-2,1-4.06,1.66-6.13.31-1,.66-2.08,1.06-3.15.24-.57.43-1.08.73-1.69a16.7,16.7,0,0,1,1-1.85,24,24,0,0,1,2.37-2.95c.78-.86,1.57-1.65,2.37-2.41,1.59-1.52,3.21-2.9,4.86-4.24,3.3-2.67,6.61-5.12,10.16-7.48C173.27,207.15,175.82,208.11,176.22,212.07Z"/><path class="cls-5" d="M189.61,206.2l2.22,3.48s-7.73,9.35-22.52,12.43l-1,3,3.14.82s16-4.13,22.36-16.09l3.29-3.66-3.88-1.3Z"/><polygon class="cls-5" points="182.45 204.1 186.05 200.96 193.23 204.89 194.06 200.59 197.85 202.77 198.93 208.32 193.64 206.04 188.91 210.25 182.45 204.1"/><polygon class="cls-20" points="182.45 204.1 186.05 200.96 193.23 204.89 194.06 200.59 197.85 202.77 198.93 208.32 193.64 206.04 188.91 210.25 182.45 204.1"/></g><g id="Character_2" data-name="Character 2"><path class="cls-5" d="M281.33,141.86s-6.7,8.3-13.5,7.61-10.29,2.07-10.29,2.07l-.66,3.31,3.65-.49s0-2.63,7.1-2.33,12.42-5.8,14.49-8.56Z"/><path class="cls-5" d="M329.49,128.06l-.14-.65a4.52,4.52,0,0,0-.28-.94,6.46,6.46,0,0,0-1.62-2.36,9,9,0,0,0-3.05-1.79,19.84,19.84,0,0,0-4.41-1c-1.33-.15-2.6-.22-3.84-.25-2.48-.07-4.87,0-7.24.2a134.93,134.93,0,0,0-14,1.69l1.71,9.8c4.29-.68,8.78-1.31,13.12-1.76,2.17-.22,4.34-.35,6.42-.42,1,0,2.06,0,3,0,.66,0,1.31.12,1.8.2a7.8,7.8,0,0,1,0,1.1,24.68,24.68,0,0,1-1.07,5.65A77.51,77.51,0,0,1,315,149.53l4.73,3.14a57.71,57.71,0,0,0,7.57-12.33,28.59,28.59,0,0,0,2.25-7.58A14.88,14.88,0,0,0,329.49,128.06Z"/><path class="cls-6" d="M329.54,132.77a27.56,27.56,0,0,1-1.74,6.36c-.16.4-.33.81-.5,1.21a58.31,58.31,0,0,1-7.58,12.33L315,149.53a79.6,79.6,0,0,0,4.9-11.94,28.65,28.65,0,0,0,.91-4A13.81,13.81,0,0,0,321,132a9.76,9.76,0,0,0,0-1.1c-.49-.08-1.15-.15-1.81-.19-.94-.06-2-.06-3,0h-.23c-2,.07-4.1.2-6.2.41-4.21.44-8.53,1-12.71,1.71l-.4.06L294.88,123a137.82,137.82,0,0,1,14-1.68c2.38-.15,4.77-.27,7.25-.2,1.25,0,2.5.1,3.84.25a19.72,19.72,0,0,1,4.41,1,8.87,8.87,0,0,1,3.05,1.79,6.26,6.26,0,0,1,1.62,2.36,5.32,5.32,0,0,1,.28.93l.14.66A14.94,14.94,0,0,1,329.54,132.77Z"/><path class="cls-10" d="M315.9,130.63c-2,.07-4.1.2-6.2.41-4.21.44-8.53,1-12.71,1.71,1.53-3.75,3.09-7.53,3.09-7.53A46.5,46.5,0,0,1,315.9,130.63Z"/><path class="cls-10" d="M327.8,139.13c-.16.4-.33.81-.5,1.21a58.31,58.31,0,0,1-7.58,12.33L315,149.53a79.6,79.6,0,0,0,4.9-11.94,28.65,28.65,0,0,0,.91-4A56.69,56.69,0,0,1,327.8,139.13Z"/><path class="cls-11" d="M264.08,130c.27.34.31.77.08.95s-.62,0-.9-.31-.31-.76-.08-.94S263.81,129.69,264.08,130Z"/><path class="cls-21" d="M264.42,130.77a15.55,15.55,0,0,1,.68,4.24,2.52,2.52,0,0,0,1.89-1Z"/><path class="cls-11" d="M263.83,127.12a.25.25,0,0,0,.06-.17.26.26,0,0,0-.27-.25,2.57,2.57,0,0,0-2.07,1.12.26.26,0,1,0,.45.27h0a2,2,0,0,1,1.64-.87A.27.27,0,0,0,263.83,127.12Z"/><path class="cls-22" d="M274,124.71c3.29,2.37,9.6,6.12,13.18,4.7,0,0,3.22,2.67.13,9.38-3.4,7.39-5.3,1.85-5.3,1.85.89-4.47-2.15-5.74-5.29-6.33Z"/><path class="cls-22" d="M275,120.23c3.08,4.44,5.11,6.87,4.69,10.73-.63,5.8-7.39,8-11.74,4.56-3.91-3.08-8.3-9.81-5.48-14.76A7.38,7.38,0,0,1,275,120.23Z"/><path class="cls-11" d="M280,127.55c-.46,2.51-8.93,5.94-12.77.53,0,0-4.82,0-7.72-2.94s-2.28-6,.32-7.76c2.29-1.51,8.21-12.62,15.11-4.69C282.38,112.38,280.53,124.41,280,127.55Z"/><path class="cls-11" d="M265.65,116.18s-4.45-.21-7,1.82-1.84,8.28-.86,9.46a2.93,2.93,0,0,0,2,1.17s-1.51-.78-1.51-1.93c0,0,.66,1.54,3.68,1.93a1.91,1.91,0,0,1-.73-1.55s1.64,2.11,5.43,0S265.65,116.18,265.65,116.18Z"/><path class="cls-22" d="M269.43,127.15a6.09,6.09,0,0,1,1.07,3.77c-.11,1.76-1.59,1.9-2.75.79s-2.25-3.12-1.56-4.59S268.5,125.83,269.43,127.15Z"/><path class="cls-5" d="M278.28,141.86s-.82-10,5.73-15.65l7.8.71S287.32,137.88,278.28,141.86Z"/><path class="cls-20" d="M278.28,141.86s-.82-10,5.73-15.65l7.8.71S287.32,137.88,278.28,141.86Z"/><path class="cls-5" d="M300.79,164.39S289,152.83,275.94,144.73c0,0,8.69-20.37,19.69-22.19,0,0,28.45,8.58,36.7,31.82Z"/><polygon class="cls-22" points="302.29 234.96 297.19 237.12 291.68 225.56 296.77 223.4 302.29 234.96"/><path class="cls-11" d="M332.33,154.36l-3,31.81a21.21,21.21,0,0,1-7.46,2.91c-6.22,1.44-14.51,2.1-21.68,2.48-8.05.44-14.66.53-15.25,1-1.4,1.08,16.32,37.62,16.32,37.62l-8.46,1.05s-22.23-30.43-25.1-41c-1.06-3.91-2.13-8.79,5.05-13.36,6.32-4,29.85-7,29.85-7l-1.81-5.43Z"/><path class="cls-18" d="M321.87,189.08c-6.22,1.44-14.51,2.1-21.68,2.48-1-11.74,4.95-23,4.95-23l8.41-2.16Z"/><polygon class="cls-22" points="376.45 230.28 377.35 235.73 364.8 238.35 363.89 232.9 376.45 230.28"/><path class="cls-5" d="M377.62,235.93a.14.14,0,0,0-.15,0,.16.16,0,0,0-.08.13c0,.09.08,2.31.77,3a.72.72,0,0,0,.48.19.53.53,0,0,0,.5-.29c.15-.36-.13-1-.5-1.6A10.3,10.3,0,0,0,377.62,235.93Zm.05.46c.67.8,1.39,2,1.22,2.4,0,.05-.07.12-.26.13a.44.44,0,0,1-.29-.12l-.16-.2A6.23,6.23,0,0,1,377.67,236.39Z"/><path class="cls-5" d="M377.57,235.9a.12.12,0,0,0-.13,0c-.05,0-1.24,1-1.36,1.85a.91.91,0,0,0,.19.73c.22.29.43.28.56.23.59-.25.91-2,.82-2.72a.08.08,0,0,0,0-.05S377.6,235.91,377.57,235.9Zm-1.23,1.89a3,3,0,0,1,1.07-1.51c0,.79-.33,2.05-.68,2.19,0,0-.11.05-.26-.14l0-.06A.66.66,0,0,1,376.34,237.79Z"/><path class="cls-11" d="M376.67,235.85l-3.17-5.13a.48.48,0,0,1,.07-.6l3.62-3.5a.79.79,0,0,1,1.25.16c1.11,1.87,2.66,4.61,4.09,6.94,1.68,2.72,3.28,5,5.25,8.18,1.19,1.93-.43,3.66-1.11,3-3.07-3.18-5-6.13-8.94-8.1A2.6,2.6,0,0,1,376.67,235.85Z"/><path class="cls-11" d="M332.33,154.36s10.14,26-7,36.1c0,0-.22,30,4.1,33.57,5.26,4.29,43.78,6.47,43.78,6.47l-.34,9.55s-41.23,3.36-53.71-1.11c-14.62-5.23-17.88-74.09-17.88-74.09Z"/><path class="cls-18" d="M320.61,170.32l6.16-1.86a67.42,67.42,0,0,1,.83,8.12L324.75,179l-2.7-.86A69.51,69.51,0,0,0,320.61,170.32Z"/><polygon class="cls-11" points="302.81 164.41 303.61 166.94 301.33 167.65 300.53 165.14 302.81 164.41"/><polygon class="cls-11" points="313.32 161.05 314.18 163.67 304.75 166.59 303.92 164.06 313.32 161.05"/><polygon class="cls-11" points="325.05 157.3 325.9 160.04 315.37 163.3 314.53 160.66 325.05 157.3"/><polygon class="cls-11" points="333.62 157.65 327.13 159.66 327.13 159.66 326.26 156.91 332.7 154.85 333.62 157.65"/><g class="cls-13"><polygon class="cls-14" points="302.81 164.41 303.61 166.94 301.33 167.65 300.53 165.14 302.81 164.41"/><polygon class="cls-14" points="313.32 161.05 314.18 163.67 304.75 166.59 303.92 164.06 313.32 161.05"/><polygon class="cls-14" points="325.05 157.3 325.9 160.04 315.37 163.3 314.53 160.66 325.05 157.3"/><polygon class="cls-14" points="333.62 157.65 327.13 159.66 327.13 159.66 326.26 156.91 332.7 154.85 333.62 157.65"/></g><path class="cls-5" d="M295.63,235.51a.16.16,0,0,0,.1-.11.13.13,0,0,0-.07-.14c-.08,0-2-1.1-3-.82a.63.63,0,0,0-.41.31.49.49,0,0,0,0,.57c.24.32.93.4,1.64.38A10.07,10.07,0,0,0,295.63,235.51Zm-.43-.19c-1,.17-2.42.2-2.69-.15,0,0-.07-.13,0-.29a.35.35,0,0,1,.25-.19,1,1,0,0,1,.25,0A6,6,0,0,1,295.2,235.32Z"/><path class="cls-5" d="M295.68,235.48a.11.11,0,0,0,.05-.12,3.73,3.73,0,0,0-.91-2.1,1,1,0,0,0-.73-.21c-.36,0-.46.23-.48.38-.09.62,1.26,1.79,1.94,2.07h.05A.11.11,0,0,0,295.68,235.48Zm-1-2a3.09,3.09,0,0,1,.77,1.69c-.69-.39-1.61-1.31-1.56-1.69,0,0,0-.12.25-.15h.08A.72.72,0,0,1,294.66,233.46Z"/><path class="cls-11" d="M296.17,234.73l6-.15a.48.48,0,0,1,.48.37l1.21,4.88a.8.8,0,0,1-.77,1c-2.18,0-5.33,0-8.07,0-3.2.07-6,.31-9.72.4-2.27.06-2.95-2.22-2-2.45,4.31-1.05,7.84-1.23,11.52-3.62A2.53,2.53,0,0,1,296.17,234.73Z"/><path class="cls-6" d="M332.33,154.36l-31.54,10s-5.56-5.44-13.27-11.48c-1.47-1.15-3-2.31-4.6-3.46-2.24-1.64-4.59-3.24-7-4.72,0,0,8.7-20.37,19.7-22.19C295.63,122.54,324.08,131.11,332.33,154.36Z"/><path class="cls-10" d="M287.52,152.91c-1.47-1.15-3-2.31-4.6-3.46l.62-1.87A16.33,16.33,0,0,1,287.52,152.91Z"/><path class="cls-22" d="M241.94,173.69l-2.17.52a1.38,1.38,0,0,0-1.05,1.12l-.49,3a1.38,1.38,0,0,0,.85,1.5l1.59.64s4.59,3.3,8.47,1.17l-1.68-4.43-3.28-3A2.5,2.5,0,0,0,241.94,173.69Z"/><path class="cls-5" d="M281.53,145.53a7,7,0,0,1,3,5.12s-2.19,5.93-3.46,8.88c-.86,2-1.76,4-2.8,6a36.16,36.16,0,0,1-3.88,6.18l-.34.41-.41.44a9.52,9.52,0,0,1-1,.91c-.16.14-.43.34-.66.5s-.54.36-.64.4l-.84.44c-1.1.55-2.13,1-3.16,1.4-2.05.84-4.07,1.57-6.11,2.27-4.08,1.36-8.14,2.61-12.3,3.65l-2-5.32c3.74-1.91,7.55-3.72,11.26-5.59,1.87-.92,3.72-1.85,5.5-2.78.88-.47,1.75-1,2.51-1.42l.53-.33c.15-.09,0,0,0,0s-.07.06,0,0,.07-.07.16-.2l.12-.15.14-.21a32.22,32.22,0,0,0,2.51-4.72c.79-1.79,1.58-3.65,2.31-5.55,1.45-3.78,2.84-7.73,4.13-11.55A7.9,7.9,0,0,1,281.53,145.53Z"/><path class="cls-6" d="M281.53,145.53a7,7,0,0,1,3,5.12s-2.19,5.93-3.46,8.88c-.86,2-1.76,4-2.8,6a36.16,36.16,0,0,1-3.88,6.18l-.34.41-.41.44a9.52,9.52,0,0,1-1,.91c-.16.14-.43.34-.66.5s-.54.36-.64.4l-.84.44c-1.1.55-2.13,1-3.16,1.4-2.05.84-4.07,1.57-6.11,2.27-4.08,1.36-8.14,2.61-12.3,3.65l-2-5.32c3.74-1.91,7.55-3.72,11.26-5.59,1.87-.92,3.72-1.85,5.5-2.78.88-.47,1.75-1,2.51-1.42l.53-.33c.15-.09,0,0,0,0s-.07.06,0,0,.07-.07.16-.2l.12-.15.14-.21a32.22,32.22,0,0,0,2.51-4.72c.79-1.79,1.58-3.65,2.31-5.55,1.45-3.78,2.84-7.73,4.13-11.55A7.9,7.9,0,0,1,281.53,145.53Z"/></g><g id="Arrow_2" data-name="Arrow 2"><polygon class="cls-5" points="99.2 409.62 267.57 409.62 356.68 337.77 360.59 342.6 382.53 342.6 404.89 239.86 382.94 239.9 382.95 239.86 277.63 240.07 290.2 255.6 99.2 409.62"/><polygon class="cls-23" points="99.2 409.62 245.63 409.62 348.01 327.06 360.59 342.6 382.95 239.86 277.63 240.07 290.2 255.6 99.2 409.62"/><path class="cls-5" d="M95.78,403.69H216.67a13.3,13.3,0,0,1-.09-1.55,14,14,0,0,1,14-14l.51,0a12.43,12.43,0,0,1,24.08,4.33v0a11.84,11.84,0,0,1,11.28,11.2h.57a6.24,6.24,0,0,1,0,12.48H95.78a6.24,6.24,0,1,1,0-12.48Z"/><path class="cls-6" d="M95.78,403.69H216.67a13.3,13.3,0,0,1-.09-1.55,14,14,0,0,1,14-14l.51,0a12.43,12.43,0,0,1,24.08,4.33v0a11.84,11.84,0,0,1,11.28,11.2h.57a6.24,6.24,0,0,1,0,12.48H95.78a6.24,6.24,0,1,1,0-12.48Z"/></g></svg>