<svg xmlns="http://www.w3.org/2000/svg" viewBox="0 0 500 500"><defs><style>.cls-1{fill:#b9c4e1;}.cls-2{fill:#fff;}</style></defs><title>profile_female</title><g id="OBJECTS"><circle class="cls-1" cx="250" cy="250" r="229.32"/><ellipse class="cls-2" cx="250" cy="212.44" rx="89.21" ry="115.32"/><path class="cls-2" d="M250,344.23c-82.16,0-151.27,24.45-171.72,57.68a229.17,229.17,0,0,0,343.44,0C401.27,368.68,332.16,344.23,250,344.23Z"/><path class="cls-2" d="M219.35,250h61.31a9.62,9.62,0,0,1,9.62,9.62V386a9.63,9.63,0,0,1-9.62,9.63H219.35a9.62,9.62,0,0,1-9.62-9.62V259.62A9.62,9.62,0,0,1,219.35,250Z"/><ellipse class="cls-2" cx="159.95" cy="225.95" rx="14.83" ry="28.66" transform="translate(-41.91 36.5) rotate(-11.52)"/><path class="cls-2" d="M325.52,223c-3.16,15.51.78,29.41,8.81,31s17.09-9.62,20.25-25.13-.78-29.41-8.8-31S328.69,207.47,325.52,223Z"/><path class="cls-2" d="M361.38,257.51c-2-29.75-.49-60.28-9.6-88.68-9.93-31-33.2-56.94-62.06-71.76-35.94-16.8-69.77-4.26-77.47-1-29.76,14.63-53.88,41.06-64,72.72-9.11,28.4-7.58,58.93-9.6,88.68s-8.77,61.3-30.18,82.07a14.66,14.66,0,0,0,17.67-3.92c0,2.79.11,5.59.16,8.39a11.26,11.26,0,0,0,12.7-8.12,10,10,0,0,0,19.86-1.17c-.63,4.67,5.48,7.88,9.95,6.4s7.37-5.7,9.94-9.65c-.13,6.46,8.58,11.07,13.85,7.33-.63,3.48,3.63,6,7.15,5.78s6.93-1.84,10.44-1.55c6.84.55,13,8.16,19.23,5.36,2.73-1.23,5.22-4.38,8-3.25,1.67.68,2.36,2.63,3.51,4,2.16,2.63,5.85,3,9.1,1.76,3.25,1.19,6.94.87,9.1-1.76,1.15-1.4,1.84-3.35,3.51-4,2.78-1.13,5.27,2,8,3.25,6.26,2.8,12.39-4.81,19.23-5.36,3.51-.29,6.91,1.36,10.44,1.55s7.78-2.3,7.15-5.78c5.27,3.74,14-.87,13.85-7.33,2.57,3.95,5.47,8.17,9.94,9.65s10.58-1.73,9.95-6.4A10,10,0,0,0,361,335.93a11.26,11.26,0,0,0,12.7,8.12c0-2.8.11-5.6.16-8.39a14.66,14.66,0,0,0,17.67,3.92C370.15,318.81,363.41,287.27,361.38,257.51Z"/></g></svg>