<svg xmlns="http://www.w3.org/2000/svg" viewBox="0 0 500 500"><defs><style>.cls-1{fill:#b9c4e1;}.cls-2{fill:#fff;}</style></defs><title>profile_male</title><g id="OBJECTS"><circle class="cls-1" cx="250" cy="250" r="209.62" transform="translate(-103.55 250) rotate(-45)"/><ellipse class="cls-2" cx="250" cy="215.67" rx="81.54" ry="105.41"/><path class="cls-2" d="M250,328.91c-68.21,0-128.25,20.84-163.31,52.44a209.51,209.51,0,0,0,326.62,0C378.25,349.75,318.21,328.91,250,328.91Z"/><path class="cls-2" d="M219.37,250h61.26a9.62,9.62,0,0,1,9.62,9.62V373.5a9.62,9.62,0,0,1-9.62,9.62H219.37a9.63,9.63,0,0,1-9.62-9.62V259.62A9.62,9.62,0,0,1,219.37,250Z"/><path class="cls-2" d="M179.72,220.56c4.74,13.67,2.86,26.74-4.21,29.19s-16.65-6.63-21.4-20.3-2.86-26.74,4.21-29.2S175,206.89,179.72,220.56Z"/><ellipse class="cls-2" cx="333.09" cy="225" rx="26.2" ry="13.55" transform="translate(11.27 465.85) rotate(-70.85)"/><path class="cls-2" d="M178.63,220.11c-10.59-19.27-21.49-39.72-20.95-61.71S175,113.2,196.94,114c3.84.14,7.68,1,11.48.45,7.61-1.09,13.24-7.3,19.4-11.88a51.71,51.71,0,0,1,49.32-6.23c9.91,4,18.3,11.1,28,15.69a62.89,62.89,0,0,0,57.46-2.32,32.61,32.61,0,0,1-16.84,15,31.13,31.13,0,0,0,20.37-.56,35,35,0,0,1-17.88,15.57L365,140.82a42.09,42.09,0,0,1-19.27,15l13.12.42A30.9,30.9,0,0,1,337.19,176l8.46.11-27.72,40c-2.64,3.81-5.38,7.72-9.28,10.22-3.24,2.08-7.06,3-10.82,3.87a271.07,271.07,0,0,1-83.63,5.45c-9.55-.87-19.54-2.44-27.14-8.31S175.4,210,180.63,201.93"/><path class="cls-2" d="M197.43,348.83a237.12,237.12,0,0,1,4.12-33c5.47,6.26,14.75,7,23,7.38l37.7,1.53c1.46,8.57,2.48,18.65-3.71,24.76-2.88,2.83-6.84,4.23-10.72,5.31a99.67,99.67,0,0,1-26,3.64c-10.43.07-22.86-3.06-26.2-12.94l3.4-2.79"/><path class="cls-2" d="M302.57,348.83a237.12,237.12,0,0,0-4.12-33c-5.47,6.26-14.75,7-23.05,7.38l-37.7,1.53c-1.46,8.57-2.48,18.65,3.71,24.76,2.88,2.83,6.84,4.23,10.72,5.31a99.67,99.67,0,0,0,26,3.64c10.43.07,22.86-3.06,26.2-12.94l-3.4-2.79"/></g></svg>