<svg xmlns="http://www.w3.org/2000/svg" viewBox="0 0 500 500"><defs><style>.cls-1{fill:#e0e0e0;}.cls-2{fill:#ebebeb;}.cls-3,.cls-6{fill:#f5f5f5;}.cls-18,.cls-19,.cls-20,.cls-21,.cls-24,.cls-3,.cls-30,.cls-9{isolation:isolate;}.cls-11,.cls-12,.cls-13,.cls-18,.cls-20,.cls-27,.cls-28,.cls-31,.cls-4,.cls-9{fill:#fff;}.cls-4,.cls-5{stroke:#e0e0e0;}.cls-16,.cls-4{stroke-miterlimit:10;}.cls-4{stroke-width:0.5px;}.cls-16,.cls-26,.cls-5{fill:none;}.cls-26,.cls-5{stroke-linecap:round;stroke-linejoin:round;}.cls-14,.cls-7{fill:#407bff;}.cls-8{opacity:0.1;}.cls-10,.cls-14,.cls-19,.cls-22,.cls-9{opacity:0.3;}.cls-11{opacity:0.4;}.cls-12,.cls-18{opacity:0.6;}.cls-13,.cls-16,.cls-17{opacity:0.8;}.cls-15,.cls-17,.cls-24,.cls-30{fill:#263238;}.cls-16{stroke:#fff;}.cls-20,.cls-21{opacity:0.5;}.cls-23{fill:#fdbbb5;}.cls-24,.cls-26{opacity:0.2;}.cls-25{fill:#ff807b;}.cls-26{stroke:#000;stroke-width:0.75px;}.cls-28{opacity:0.9;}.cls-29{fill:#a24e3f;}.cls-31{opacity:0.7;}</style></defs><title>tax</title><g id="Background_complete" data-name="Background complete"><path class="cls-1" d="M443.92,355H263.17c-3.23,0-5.86-3.11-5.86-6.94V36.65c0-3.82,2.63-6.93,5.86-6.93H443.92c3.23,0,5.86,3.11,5.86,6.93v311.4C449.78,351.88,447.15,355,443.92,355ZM263.17,30c-3.09,0-5.61,3-5.61,6.64v311.4c0,3.66,2.52,6.64,5.61,6.64H443.92c3.1,0,5.61-3,5.61-6.64V36.65C449.53,33,447,30,443.92,30Z"/><path class="cls-1" d="M235.49,355H54.75c-3.24,0-5.87-3.11-5.87-6.94V36.65c0-3.82,2.63-6.93,5.87-6.93H235.49c3.24,0,5.86,3.11,5.86,6.93v311.4C241.35,351.88,238.73,355,235.49,355ZM54.75,30c-3.1,0-5.62,3-5.62,6.64v311.4c0,3.66,2.52,6.64,5.62,6.64H235.49c3.1,0,5.61-3,5.61-6.64V36.65c0-3.66-2.51-6.64-5.61-6.64Z"/><rect class="cls-1" y="411.45" width="500" height="0.25"/><rect class="cls-1" x="51.67" y="425.72" width="16.06" height="0.25"/><rect class="cls-1" x="170.35" y="423.01" width="53.53" height="0.25"/><rect class="cls-1" x="68.73" y="435.01" width="36.25" height="0.25"/><rect class="cls-1" x="378.35" y="422.88" width="43.19" height="0.25"/><rect class="cls-1" x="430.45" y="422.88" width="6.33" height="0.25"/><rect class="cls-1" x="316.21" y="429.11" width="53.89" height="0.25"/><path class="cls-2" d="M162.07,35.34a20.07,20.07,0,1,1-10,26.56A20.06,20.06,0,0,1,162.07,35.34Z"/><path class="cls-3" d="M172.12,55l1.47,4.33c1.69-.87,2.16-2,1.81-3C175,55.08,173.73,54.88,172.12,55Z"/><path class="cls-3" d="M165.75,50.88c.4,1.18,1.64,1.35,3.19,1.29l-1.48-4.35C165.82,48.68,165.38,49.8,165.75,50.88Z"/><path class="cls-3" d="M164.87,37.37a17.12,17.12,0,1,0,21.7,10.72h0A17.12,17.12,0,0,0,164.87,37.37ZM174.49,62l.93,2.74-2,.68-.91-2.71a11.28,11.28,0,0,1-6.68,0l.27-2.85a9.93,9.93,0,0,0,5.51.21L170,55.14c-2.94.26-6.15.36-7.3-3-.84-2.5.24-5.25,3.91-7l-.93-2.76,2-.68.92,2.72a11.14,11.14,0,0,1,5.47-.2l-.17,2.81a10.53,10.53,0,0,0-4.4,0L171.12,52c2.94-.26,6.2-.38,7.34,3,.84,2.48-.27,5.26-4,7Z"/><circle class="cls-2" cx="451.25" cy="234.7" r="18.61" transform="translate(-23.61 52.44) rotate(-6.48)"/><path class="cls-3" d="M451.58,236.74l-1.77,3.84c1.69.5,2.71.07,3.14-.87S452.72,237.71,451.58,236.74Z"/><path class="cls-3" d="M449.91,229.93c-.49,1,.24,1.95,1.32,2.9L453,229C451.36,228.49,450.35,229,449.91,229.93Z"/><path class="cls-3" d="M457.94,220.29a15.86,15.86,0,1,0,7.74,21.05h0A15.85,15.85,0,0,0,457.94,220.29ZM448.71,243l-1.12,2.43-1.79-.82,1.12-2.41a10.45,10.45,0,0,1-4.49-4.26l2-1.74a9.24,9.24,0,0,0,3.57,3.66l2-4.34c-2.14-1.7-4.36-3.68-3-6.7,1-2.21,3.5-3.37,7.06-2.17l1.13-2.45L457,225l-1.12,2.41a10.36,10.36,0,0,1,3.8,3.37l-1.91,1.78a10,10,0,0,0-3-2.8l-2,4.39c2.14,1.7,4.4,3.7,3,6.69-1,2.21-3.54,3.37-7.12,2.17Z"/><path class="cls-2" d="M92.66,349a13.6,13.6,0,1,1-17.32,8.38A13.61,13.61,0,0,1,92.66,349Z"/><path class="cls-3" d="M88.43,363.29l-1.3,2.81c1.24.36,2,0,2.3-.63S89.26,364,88.43,363.29Z"/><path class="cls-3" d="M87.21,358.31c-.36.77.17,1.43,1,2.12l1.31-2.82C88.27,357.26,87.53,357.61,87.21,358.31Z"/><path class="cls-3" d="M93.08,351.27a11.59,11.59,0,1,0,5.66,15.39h0A11.59,11.59,0,0,0,93.08,351.27Zm-6.75,16.56-.82,1.78-1.3-.6.81-1.76a7.65,7.65,0,0,1-3.28-3.12l1.46-1.27a6.73,6.73,0,0,0,2.61,2.68l1.47-3.18c-1.56-1.24-3.19-2.69-2.17-4.89.75-1.62,2.57-2.47,5.17-1.59l.83-1.79,1.3.6-.82,1.77a7.54,7.54,0,0,1,2.78,2.45L93,360.22a7.23,7.23,0,0,0-2.18-2.05l-1.48,3.21c1.56,1.24,3.22,2.7,2.21,4.89-.75,1.61-2.59,2.46-5.21,1.58Z"/><circle class="cls-2" cx="56.76" cy="211.05" r="30.55" transform="translate(-140.67 117.34) rotate(-49.56)"/><path class="cls-3" d="M59.46,213.09l2.23,6.6c2.58-1.34,3.3-3,2.76-4.59C63.83,213.28,61.91,213,59.46,213.09Z"/><path class="cls-3" d="M49.76,206.89c.6,1.78,2.49,2.05,4.85,2l-2.24-6.62C49.86,203.52,49.2,205.24,49.76,206.89Z"/><path class="cls-3" d="M48.42,186.32a26,26,0,1,0,33,16.31h0A26,26,0,0,0,48.42,186.32Zm14.65,37.42,1.41,4.17-3.05,1L60,224.82c-3.72,1-7.66,1-10.17,0l.41-4.33a15,15,0,0,0,8.4.31l-2.52-7.43c-4.47.38-9.35.55-11.11-4.62-1.28-3.8.36-8,6-10.57L49.57,194l3-1L54,197.07a16.87,16.87,0,0,1,8.32-.29l-.25,4.27a16.31,16.31,0,0,0-6.71,0l2.55,7.52c4.47-.41,9.43-.58,11.16,4.54,1.29,3.78-.4,8-6,10.64Z"/><rect class="cls-2" x="332.02" y="53.88" width="60.2" height="81.34" transform="translate(267.57 456.67) rotate(-90)"/><rect class="cls-4" x="337.12" y="59.84" width="50.01" height="69.41" transform="translate(267.57 456.67) rotate(-90)"/><polygon class="cls-1" points="321.45 124.65 327.42 119.55 327.42 69.54 321.45 64.45 321.45 124.65"/><path class="cls-1" d="M402.79,124.65l-6-5.1v-50l6-5.09C403.23,64.62,402.79,124.65,402.79,124.65Z"/><path class="cls-5" d="M339.29,87.06H386"/><path class="cls-5" d="M339.29,92.92H386"/><path class="cls-5" d="M354.28,98.79h18.85"/><path class="cls-5" d="M346.44,107.32H340"/><path class="cls-1" d="M383.6,103.11a3.57,3.57,0,1,1-3.82,3.56A3.69,3.69,0,0,1,383.6,103.11Z"/><path class="cls-5" d="M354.28,80.47h18.85"/></g><g id="Shadow"><path class="cls-6" d="M458.75,466.36c0,7.35-93.46,13.31-208.75,13.31s-208.75-6-208.75-13.31S134.71,453.05,250,453.05,458.75,459,458.75,466.36Z"/></g><g id="Coins"><circle class="cls-7" cx="300.5" cy="200.91" r="15.15" transform="translate(6.39 411.07) rotate(-69.31)"/><circle class="cls-8" cx="300.5" cy="200.91" r="15.15" transform="translate(6.39 411.07) rotate(-69.31)"/><path class="cls-9" d="M301.83,201.93l1.11,3.26c1.28-.66,1.64-1.48,1.37-2.27S303.05,201.87,301.83,201.93Z"/><path class="cls-9" d="M297,198.85c.3.88,1.24,1,2.41,1l-1.11-3.29C297.07,197.18,296.75,198,297,198.85Z"/><path class="cls-9" d="M296.36,188.65a12.92,12.92,0,1,0,16.38,8.08h0A12.92,12.92,0,0,0,296.36,188.65Zm7.26,18.56.7,2.06-1.51.52-.69-2a8.51,8.51,0,0,1-5,0l.2-2.14a7.55,7.55,0,0,0,4.16.15l-1.25-3.69c-2.21.19-4.64.27-5.51-2.29-.63-1.88.18-4,3-5.24l-.71-2.09,1.51-.51.7,2a8.49,8.49,0,0,1,4.13-.15l-.13,2.12a8.07,8.07,0,0,0-3.32,0l1.26,3.73c2.22-.2,4.68-.29,5.54,2.25.63,1.88-.2,4-3,5.28Z"/><circle class="cls-7" cx="281.96" cy="137.85" r="29.76" transform="translate(-4.44 9.48) rotate(-1.91)"/><circle class="cls-8" cx="281.96" cy="137.85" r="29.76" transform="translate(-4.44 9.48) rotate(-1.91)"/><path class="cls-9" d="M283.27,140.87,282,147.54c2.82.09,4.22-1,4.52-2.59C286.9,143.11,285.41,141.94,283.27,140.87Z"/><path class="cls-9" d="M278,131c-.34,1.81,1.13,2.93,3.19,4l1.25-6.7C279.69,128.17,278.31,129.31,278,131Z"/><path class="cls-9" d="M286.67,112.86A25.38,25.38,0,1,0,307,142.48h0A25.38,25.38,0,0,0,286.67,112.86Zm-5.41,38.77-.79,4.22-3.09-.58.78-4.17c-3.64-.91-7-2.78-8.63-4.85l2.41-3.48a14.62,14.62,0,0,0,7,4.27l1.41-7.52c-4-1.8-8.2-4-7.22-9.22.71-3.84,4.11-6.6,10.09-6.14l.8-4.25,3.09.58-.78,4.18a16.46,16.46,0,0,1,7.2,3.72l-2.25,3.51a16,16,0,0,0-5.71-3.17l-1.43,7.6c4,1.8,8.29,4,7.32,9.19-.72,3.83-4.16,6.61-10.19,6.16Z"/><path class="cls-10" d="M266.49,112.43l.43,51.11s-5-1.84-6.37-5.32,0-41,0-41A52.17,52.17,0,0,1,266.49,112.43Z"/><circle class="cls-7" cx="222.12" cy="348.13" r="21.06"/><circle class="cls-8" cx="222.12" cy="348.13" r="21.06"/><path class="cls-9" d="M220,349.11l-4.74-.77c0,2,.76,3,1.91,3.16C218.47,351.71,219.28,350.64,220,349.11Z"/><path class="cls-9" d="M226.92,345.22c-1.28-.21-2.06.85-2.76,2.32l4.76.78C228.93,346.37,228.1,345.41,226.92,345.22Z"/><path class="cls-9" d="M239.87,351.06a18,18,0,1,0-20.62,14.83h0A18,18,0,0,0,239.87,351.06Zm-27.52-3.2-3-.49.35-2.19,3,.48a11.71,11.71,0,0,1,3.29-6.18l2.5,1.64a10.48,10.48,0,0,0-2.91,5l5.35.88c1.21-2.85,2.69-5.87,6.4-5.26,2.73.44,4.74,2.8,4.51,7l3,.49-.36,2.2-3-.49a11.6,11.6,0,0,1-2.51,5.16l-2.53-1.53a11.23,11.23,0,0,0,2.16-4.1l-5.41-.88c-1.2,2.85-2.7,5.93-6.38,5.33-2.72-.45-4.74-2.84-4.52-7.11Z"/><path class="cls-10" d="M239.85,336.77l-36.16,1.15s1.23-3.59,3.67-4.6,29-.67,29-.67A37.52,37.52,0,0,1,239.85,336.77Z"/></g><g id="Documents"><rect class="cls-7" x="79.68" y="67.61" width="181.29" height="266.17"/><rect class="cls-11" x="79.68" y="67.61" width="181.29" height="266.17"/><rect class="cls-7" x="72.59" y="59.59" width="181.29" height="269.05"/><rect class="cls-12" x="72.59" y="59.59" width="181.29" height="269.05"/><rect class="cls-7" x="65.65" y="53.62" width="181.29" height="269.05"/><rect class="cls-13" x="65.65" y="53.62" width="181.29" height="269.05"/><rect class="cls-14" x="77.96" y="67.5" width="81.22" height="36.77"/><path class="cls-7" d="M89.63,79.46H81.85V74.87h21.2v4.59H95.26V99.21H89.63Z"/><path class="cls-7" d="M120.88,94h-11.3l-2.15,5.22h-5.77L112.5,74.87h5.56l10.88,24.34H123Zm-1.77-4.27-3.86-9.32-3.86,9.32Z"/><path class="cls-7" d="M145.56,99.21l-5.88-8.45-5.77,8.45h-6.46l9-12.38-8.55-12h6.4l5.59,7.9,5.49-7.9h6.09L143,86.62l9.07,12.59Z"/><rect class="cls-7" x="163.24" y="74.49" width="70.86" height="4.91"/><rect class="cls-7" x="163.24" y="84.66" width="70.86" height="4.91"/><rect class="cls-7" x="163.24" y="94.83" width="70.86" height="4.91"/><rect class="cls-14" x="77.96" y="109.02" width="157.26" height="12.18"/><rect class="cls-14" x="77.96" y="296.48" width="157.26" height="12.18"/><rect class="cls-14" x="77.45" y="217.39" width="157.77" height="12.18"/><rect class="cls-7" x="104.68" y="241.06" width="129.14" height="8.22"/><rect class="cls-7" x="104.68" y="258.1" width="129.14" height="8.22"/><rect class="cls-7" x="104.68" y="276.4" width="129.14" height="8.22"/><path class="cls-15" d="M235.22,206.88H80.36a12.51,12.51,0,0,0-2.12,0H78l.75.75V130.47l-.75.75H232.83a12.51,12.51,0,0,0,2.12,0h.27l-.75-.75v77.16a.75.75,0,0,0,1.5,0V130.47a.76.76,0,0,0-.75-.75H84.39c-2,0-4.11-.1-6.15,0H78a.76.76,0,0,0-.75.75v77.16a.76.76,0,0,0,.75.75H228.79c2,0,4.12.1,6.16,0h.27A.75.75,0,0,0,235.22,206.88Z"/><path class="cls-15" d="M188.06,131.67v75.9a.75.75,0,0,0,1.5,0v-75.9a.75.75,0,0,0-1.5,0Z"/><path class="cls-15" d="M79.12,145.8h155a.75.75,0,0,0,0-1.5h-155a.75.75,0,0,0,0,1.5Z"/><path class="cls-15" d="M79.12,158.24h155a.75.75,0,0,0,0-1.5h-155a.75.75,0,0,0,0,1.5Z"/><path class="cls-15" d="M79.12,170.68h155a.75.75,0,0,0,0-1.5h-155a.75.75,0,0,0,0,1.5Z"/><path class="cls-15" d="M79.12,183.13h155a.75.75,0,0,0,0-1.5h-155a.75.75,0,0,0,0,1.5Z"/><path class="cls-15" d="M79.12,195.57h155a.75.75,0,0,0,0-1.5h-155a.75.75,0,0,0,0,1.5Z"/><path class="cls-7" d="M95.12,250.9H82.91l.38.37V239.06l-.38.38H95.12l-.37-.38v12.21a.38.38,0,0,0,.75,0V239.06a.38.38,0,0,0-.38-.37H82.91a.38.38,0,0,0-.37.37v12.21a.38.38,0,0,0,.37.38H95.12A.38.38,0,0,0,95.12,250.9Z"/><path class="cls-7" d="M95.12,268.61H82.91l.38.37V256.77l-.38.38H95.12l-.37-.38V269a.38.38,0,0,0,.75,0V256.77a.38.38,0,0,0-.38-.37H82.91a.38.38,0,0,0-.37.37V269a.38.38,0,0,0,.37.38H95.12A.38.38,0,0,0,95.12,268.61Z"/><path class="cls-7" d="M95.12,286.24H82.91l.38.37V274.4l-.38.38H95.12l-.37-.38v12.21a.38.38,0,0,0,.75,0V274.4a.38.38,0,0,0-.38-.37H82.91a.38.38,0,0,0-.37.37v12.21a.38.38,0,0,0,.37.38H95.12A.38.38,0,0,0,95.12,286.24Z"/><rect class="cls-7" x="80.24" y="43.29" width="9.83" height="19.48" rx="4.63"/></g><g id="Speech_Bubbles" data-name="Speech Bubbles"><rect class="cls-7" x="377.09" y="150.75" width="80.33" height="25.97" rx="4.12"/><rect class="cls-13" x="377.09" y="150.75" width="80.33" height="25.97" rx="4.12"/><path class="cls-7" d="M381.63,181.36h54a5,5,0,0,1,5,5v16a5,5,0,0,1-5,5H391.39c0,1.79,0,6.69-9.74,7.7,0,0,4.2-1.9,3.53-7.7h-3.55a5,5,0,0,1-5-5v-16A5,5,0,0,1,381.63,181.36Z"/><path class="cls-13" d="M381.63,181.36h54a5,5,0,0,1,5,5v16a5,5,0,0,1-5,5H391.39c0,1.79,0,6.69-9.74,7.7,0,0,4.2-1.9,3.53-7.7h-3.55a5,5,0,0,1-5-5v-16A5,5,0,0,1,381.63,181.36Z"/><rect class="cls-7" x="377.85" y="120.2" width="49.39" height="25.97" rx="4.12"/><rect class="cls-13" x="377.85" y="120.2" width="49.39" height="25.97" rx="4.12"/><path class="cls-7" d="M400.47,127.68v10.13h-2.34v-8.25h-2v-1.88Z"/><path class="cls-7" d="M409.9,134.63c0,1.79-1.32,3.36-4.21,3.36a7,7,0,0,1-3.87-1.09l.93-1.79a4.84,4.84,0,0,0,2.88.91c1.17,0,1.89-.49,1.89-1.32s-.52-1.32-2.36-1.32h-2.59l.53-5.7h6.17v1.88h-4.22l-.16,1.93h.82C408.71,131.49,409.9,132.83,409.9,134.63Z"/><path class="cls-7" d="M410.54,130.36a2.52,2.52,0,1,1,2.52,2.79A2.52,2.52,0,0,1,410.54,130.36Zm3.57,0c0-1.09-.42-1.61-1.05-1.61s-1.06.54-1.06,1.61.43,1.61,1.06,1.61S414.11,131.45,414.11,130.36Zm5-2.68h1.72l-6.91,10.13h-1.73Zm-1.66,7.46a2.52,2.52,0,1,1,2.5,2.79A2.52,2.52,0,0,1,417.43,135.14Zm3.56,0c0-1.08-.42-1.61-1.06-1.61s-1.06.52-1.06,1.61.44,1.6,1.06,1.6S421,136.21,421,135.14Z"/><rect class="cls-7" x="386.65" y="132.34" width="5.8" height="2.14"/><rect class="cls-7" x="388.66" y="161.38" width="27.77" height="4.53"/><circle class="cls-7" cx="442.93" cy="163.77" r="7.52"/><polyline class="cls-16" points="439.16 164.32 442.7 166.69 446.7 160.84"/><rect class="cls-7" x="382.39" y="191.85" width="24.7" height="4.53"/><circle class="cls-7" cx="428.05" cy="194.23" r="7.52"/><polyline class="cls-16" points="424.28 194.78 427.82 197.15 431.82 191.31"/></g><g id="Character"><path class="cls-17" d="M379.15,281.67s-3.67,73.57-19.52,86.23h16.95s15.11-25.06,16.24-86.23Z"/><path class="cls-18" d="M379.15,281.67s-3.67,73.57-19.52,86.23h16.95s15.11-25.06,16.24-86.23Z"/><path class="cls-7" d="M303.94,361.81h87.88a0,0,0,0,1,0,0v7.7a4.49,4.49,0,0,1-4.49,4.49h-78.9a4.49,4.49,0,0,1-4.49-4.49v-7.7A0,0,0,0,1,303.94,361.81Z" transform="translate(695.76 735.8) rotate(180)"/><path class="cls-19" d="M303.94,361.81h87.88a0,0,0,0,1,0,0v7.7a4.49,4.49,0,0,1-4.49,4.49h-78.9a4.49,4.49,0,0,1-4.49-4.49v-7.7A0,0,0,0,1,303.94,361.81Z" transform="translate(695.76 735.8) rotate(180)"/><path class="cls-15" d="M388.5,444.9,354.62,442V388.62H342.71v53.32l-34,3a5.86,5.86,0,0,0-5.28,5.82v4.52h90.35v-4.52A5.85,5.85,0,0,0,388.5,444.9Z"/><path class="cls-20" d="M388.5,444.9,354.62,442V388.62H342.71v53.32l-34,3a5.86,5.86,0,0,0-5.28,5.82v4.52h90.35v-4.52A5.85,5.85,0,0,0,388.5,444.9Z"/><path class="cls-15" d="M355.67,460.83a7.79,7.79,0,1,1-7.79-7.78A7.79,7.79,0,0,1,355.67,460.83Z"/><path class="cls-15" d="M382.82,460.83a7.79,7.79,0,1,0,7.78-7.78A7.78,7.78,0,0,0,382.82,460.83Z"/><path class="cls-15" d="M340.93,369.68h16a0,0,0,0,1,0,0v34.16a3.71,3.71,0,0,1-3.71,3.71h-8.58a3.71,3.71,0,0,1-3.71-3.71V369.68A0,0,0,0,1,340.93,369.68Z"/><path class="cls-18" d="M340.93,369.68h16a0,0,0,0,1,0,0v34.16a3.71,3.71,0,0,1-3.71,3.71h-8.58a3.71,3.71,0,0,1-3.71-3.71V369.68A0,0,0,0,1,340.93,369.68Z"/><rect class="cls-15" x="300.6" y="367.9" width="94.57" height="6.1" rx="1.81" transform="translate(695.76 741.9) rotate(180)"/><rect class="cls-18" x="300.6" y="367.9" width="94.57" height="6.1" rx="1.81" transform="translate(695.76 741.9) rotate(180)"/><path class="cls-7" d="M389.69,355H361.78c-8.18,0-14.08-7.35-13.19-16.41l12.69-70.93c.89-9.06,8.24-16.41,16.42-16.41h27.91c8.18,0,14.08,7.35,13.19,16.41l-12.69,70.93C405.22,347.64,397.87,355,389.69,355Z"/><path class="cls-19" d="M389.69,355H361.78c-8.18,0-14.08-7.35-13.19-16.41l12.69-70.93c.89-9.06,8.24-16.41,16.42-16.41h27.91c8.18,0,14.08,7.35,13.19,16.41l-12.69,70.93C405.22,347.64,397.87,355,389.69,355Z"/><path class="cls-19" d="M405.61,251.24h-5.33c8.18,0,14.08,7.35,13.19,16.41l-12.69,70.93c-.89,9.06-8.24,16.41-16.42,16.41h5.33c8.18,0,15.53-7.35,16.42-16.41l12.69-70.93C419.69,258.59,413.79,251.24,405.61,251.24Z"/><rect class="cls-7" x="371.93" y="226.22" width="44.72" height="25.67" rx="8.71"/><rect class="cls-21" x="371.93" y="226.22" width="44.72" height="25.67" rx="8.71"/><rect class="cls-7" x="366.99" y="226.22" width="44.72" height="25.67" rx="8.71"/><rect class="cls-19" x="366.99" y="226.22" width="44.72" height="25.67" rx="8.71"/><g class="cls-22"><path d="M401.59,251.61h-20a.38.38,0,0,0,0,.75h20a.38.38,0,0,0,0-.75Z"/></g><path class="cls-15" d="M357.42,185.56s-5.68-11.31-19.56-5.77c-8.76,3.49-14.88,7.8-13.52,15.79.9,5.31,6.27,9,9.55,8.64s26.81-9.93,26.81-9.93S365.75,187.41,357.42,185.56Z"/><path class="cls-23" d="M358.59,235.21c-5-5.56-2.32-17-.36-24.16l-16.61,11.58a19.31,19.31,0,0,1,.67,2.67c.35,1.63.91,2.23.84,5.24a15.13,15.13,0,0,1-1.56,5.12s.48,4.32,7.72,4.66A16.64,16.64,0,0,0,358.59,235.21Z"/><path class="cls-24" d="M355.73,217.76c-.13,8.63-8.15,12.41-12.64,13.21a11,11,0,0,0-.81-5.65Z"/><path class="cls-23" d="M358.6,201.5c.23,10.33.56,16.14-4.34,21.85-7.37,8.58-20.51,5.13-23.9-4.92-3.06-9.05-2.91-24.42,7.11-29.34A14.5,14.5,0,0,1,358.6,201.5Z"/><path class="cls-15" d="M343.65,206.05c.09,1-.41,1.95-1.12,2s-1.35-.75-1.44-1.8.41-1.95,1.12-2S343.56,205,343.65,206.05Z"/><path class="cls-15" d="M334.44,206.73c.09,1.05-.41,2-1.12,2s-1.36-.75-1.44-1.8.41-1.95,1.12-2S334.35,205.68,334.44,206.73Z"/><path class="cls-25" d="M337.77,204.55s-3,5.53-3.89,7.75c1.61,1.19,4.15.34,4.15.34Z"/><path class="cls-15" d="M346,201.53a.52.52,0,0,1-.51,0,4.16,4.16,0,0,0-3.67-.28.52.52,0,0,1-.68-.21.49.49,0,0,1,.23-.67,5.22,5.22,0,0,1,4.63.3.48.48,0,0,1,.18.67A.45.45,0,0,1,346,201.53Z"/><path class="cls-15" d="M330.18,202.13a.45.45,0,0,1-.21-.2.48.48,0,0,1,.19-.67,5.12,5.12,0,0,1,4.61-.19.5.5,0,0,1,.21.67.5.5,0,0,1-.68.2,4,4,0,0,0-3.64.19A.51.51,0,0,1,330.18,202.13Z"/><path class="cls-15" d="M352,188s-9,9.26-18.42,5.2S344,179.07,352,188Z"/><path class="cls-15" d="M364.69,190.27c-3.2-4.42-7.51-3-7.51-3a12.88,12.88,0,0,0-.82,2.51c-2.24-1.41-4.42-2.45-5.67-2.17-3.36.76-1.15,3.16-1.15,3.16s2.66,2,2.76,4.51a22.27,22.27,0,0,1-.43,4.75c-.69,3.33-1.8,7.26-.69,8.42,1.82,1.9,3.2-.2,7.17-2.58a4.5,4.5,0,0,1,2-.66c-.78,3.59-1.55,6.57-2.19,8.72a15.39,15.39,0,0,1-.64,1.78c3-4,6.37-8.67,7.41-10.78a7.68,7.68,0,0,0,.49-1.23C367,200.61,367.89,194.69,364.69,190.27Z"/><path class="cls-23" d="M363.5,209.68a9.85,9.85,0,0,1-4.49,6.11c-3,1.81-4.48-1.44-4.45-4.7,0-2.94.59-6.56,4-7.05A4.46,4.46,0,0,1,363.5,209.68Z"/><path class="cls-26" d="M360.85,207.06a2,2,0,0,0-2.09-.48,3.32,3.32,0,0,0-1.69,1.45,5,5,0,0,0-.78,2.54"/><g class="cls-22"><path d="M353.25,196.25a27.31,27.31,0,0,0,11.87-4c.41-.26,0-.91-.38-.65a26.45,26.45,0,0,1-11.49,3.94c-.47.05-.48.8,0,.75Z"/></g><g class="cls-22"><path d="M353.33,198.44a26.93,26.93,0,0,0,12.87-1.3c.46-.16.26-.88-.2-.72a26.31,26.31,0,0,1-12.47,1.3c-.47-.07-.67.66-.2.72Z"/></g><g class="cls-22"><path d="M340.38,193.32A7.58,7.58,0,0,1,336.61,182c.26-.4-.39-.78-.65-.37a8.47,8.47,0,0,0-.8,7.5,8.55,8.55,0,0,0,5,4.89c.45.16.65-.56.2-.73Z"/></g><g class="cls-22"><path d="M334.48,192.82a7,7,0,0,1-3.92-9c.17-.45-.55-.64-.72-.2a7.74,7.74,0,0,0,4.44,10c.45.17.64-.55.2-.73Z"/></g><path class="cls-15" d="M340.72,217.16a4.82,4.82,0,0,0,3.59-2.92.38.38,0,0,0-.73-.2,4.09,4.09,0,0,1-3.06,2.4.38.38,0,0,0-.27.46.39.39,0,0,0,.47.26Z"/><path class="cls-7" d="M368,239.46l-9.43-5.59-9.19,3.78-8.26-2.72-4.21,2.72-4,10.79s-7.44,82.1-6.71,82.76,34.06,13.89,34.06,13.89l13-93.88Z"/><path class="cls-13" d="M368,239.46l-9.43-5.59-9.19,3.78-8.26-2.72-4.21,2.72-4,10.79s-7.44,82.1-6.71,82.76,34.06,13.89,34.06,13.89l13-93.88Z"/><path class="cls-15" d="M346.89,243.64c.05.71-10.39,68.51-10.39,68.51L341.91,325l7.71-11.78-.06-13.62.64-56.23Z"/><polygon class="cls-7" points="341.41 234.91 342.9 231.98 349.22 236.73 356.13 230.1 358.8 234.39 358.28 239.09 346.45 243.81 341.56 242.06 341.41 234.91"/><polygon class="cls-13" points="341.41 234.91 342.9 231.98 349.22 236.73 356.13 230.1 358.8 234.39 358.28 239.09 346.45 243.81 341.56 242.06 341.41 234.91"/><polygon class="cls-15" points="345.31 241.09 347.56 237.65 349.23 237.65 351.69 241.09 350.01 244.09 347.17 244.09 345.31 241.09"/><path class="cls-7" d="M314.71,243.16c-3,4.06-8.91,41.6-8.91,41.6l-13.92-12.35s-10.83,8-10.65,8.59,17.6,21.09,24.48,25.68,12.7-2.3,12.7-2.3l3.24-63.9v-1.82A11,11,0,0,0,314.71,243.16Z"/><g class="cls-22"><path d="M305.91,284.35a17,17,0,0,1,5.23,7.92c.14.46.87.26.72-.2a17.65,17.65,0,0,0-5.42-8.25c-.36-.31-.9.21-.53.53Z"/></g><path class="cls-23" d="M291,276.91c-.91-1.48-9.17-5.61-9.17-5.61l-4.55,2.42.35.36c1.25,1.27,5.51,5.52,6.35,5.31C285,279.14,291.88,278.4,291,276.91Z"/><path class="cls-7" d="M250,244.63c8.42,2.32,35.22-.66,35.22-.66l36.22,32.26-36,1S248.51,244.22,250,244.63Z"/><path class="cls-13" d="M250,244.63c8.42,2.32,35.22-.66,35.22-.66l36.22,32.26-36,1S248.51,244.22,250,244.63Z"/><path class="cls-23" d="M270.67,265.9c.23-.31-.2-3.12,2.24-3.7s10.24-2.15,9.55,0-5.87,3.31-5.87,3.31v1.27s8.7-3.31,10.36-1.76-1.37,5-1.37,5,1.47-.39.39,1.46-4.47,3.41-6.91,3-2.25-.88-3.81-2.83S270.08,266.68,270.67,265.9Z"/><g class="cls-22"><path d="M278.08,270.31a49.37,49.37,0,0,1,8.05-3.64c.45-.15.26-.88-.2-.72a50.19,50.19,0,0,0-8.22,3.71.37.37,0,0,0,.37.65Z"/></g><g class="cls-22"><path d="M279.92,272.8a37.44,37.44,0,0,0,6.26-2.65c.42-.23.05-.87-.38-.65a37.36,37.36,0,0,1-6.08,2.58c-.46.14-.26.87.2.72Z"/></g><path class="cls-15" d="M330.91,326.5l1.69-4.38c8.44,5.26,19.57,2.15,30.36-.29,0,0-.57,27.69-.57,27.3S330.91,326.5,330.91,326.5Z"/><g class="cls-22"><path d="M318.28,251.07C316.83,268,317,285,315.71,302c0,.48.71.47.75,0,1.24-17,1.12-34,2.57-50.92,0-.48-.71-.48-.75,0Z"/></g><path class="cls-7" d="M341.41,234.7l-8.22,3-11.68.94L319.72,268l-3.23,32.68s-6.9,35.64-5.26,39,12.43,6.48,13.24,5.89,9-22.75,11-32.28,1.8-20.92,1.86-25.95S341.41,234.7,341.41,234.7Z"/><g class="cls-22"><path class="cls-15" d="M333.19,237.65h-1a36,36,0,0,1-3.5,6c-1.53,1.81-2.85,4.15-2.26,6.44s3.17,4.05,3.31,6.51-2.25,4.35-3.41,6.59c-1.74,3.37-.54,7.47,1,10.95a132.28,132.28,0,0,0,10,19.63,34,34,0,0,1,.07-6.48c.06-5,4.08-52.63,4.08-52.63Z"/></g><path class="cls-7" d="M377.35,223.86h16.94a.38.38,0,0,0,0-.75H377.35a.38.38,0,0,0,0,.75Z"/><path class="cls-7" d="M396.52,223.79h3.23a.38.38,0,0,0,0-.75h-3.23a.38.38,0,0,0,0,.75Z"/><path class="cls-7" d="M298,454.83,295.4,438.6s12.58-2.33,12.34-2.16.82,17,.82,17Z"/><path class="cls-15" d="M309,451.18c.1-1.44-2-.63-3.61.16a5.53,5.53,0,0,1-3.73.44l-.48-.11-.37-2.28c-.33-2-1.42-3.19-3.31-2.86-.93.17-2.84,1.9-2.87,3.27a5.63,5.63,0,0,1-3.37,5s-10.67,5.19-13.68,6.34c-1.79.68-4.36,1.79-5.59,4a12.72,12.72,0,0,0-.61,4.17l22.42-.3s3.2-.72,4.12-.86a5.75,5.75,0,0,1,2.53.69l9.72-.49c.07-.89.34-5,.42-6C311,457.71,309,452.48,309,451.18Z"/><path class="cls-27" d="M285.37,457.06a.35.35,0,0,1,.46-.05,4.82,4.82,0,0,1,1.67,1.89c.21.42-.39.85-.6.42a4.34,4.34,0,0,0-1.46-1.67.38.38,0,0,1-.08-.58Z"/><path class="cls-27" d="M287.88,455.78a.37.37,0,0,1,.47,0,4.79,4.79,0,0,1,1.66,1.89c.21.42-.38.86-.6.43a4.12,4.12,0,0,0-1.46-1.67.4.4,0,0,1-.07-.59Z"/><path class="cls-27" d="M290.5,454.68a.36.36,0,0,1,.47-.05,4.84,4.84,0,0,1,1.66,1.88c.21.43-.38.86-.6.43a4.19,4.19,0,0,0-1.46-1.67.39.39,0,0,1-.07-.59Z"/><path class="cls-7" d="M237.37,419.07l6.12-16.27s12.8,4.44,12.49,4.46-8.13,16.09-8.13,16.09Z"/><path class="cls-15" d="M249.48,421.51c.84-1.27-1.55-1.64-3.41-1.74a5.89,5.89,0,0,1-3.66-1.54l-.38-.35.84-2.3c.73-2,.36-3.67-1.55-4.35-.94-.34-3.6.26-4.35,1.51a6,6,0,0,1-5.7,2.81s-12.53-.79-15.9-1.31c-2-.31-4.94-.62-7.23.77a13.38,13.38,0,0,0-2.74,3.51L226.19,430s3.33,1,4.25,1.36,2,2,2,2l9.2,4.62c.53-.78,2.9-4.39,3.54-5.33C247.85,428.53,248.72,422.65,249.48,421.51Z"/><path class="cls-27" d="M224.62,414.56a.38.38,0,0,1,.45.2,5,5,0,0,1,.55,2.6c0,.5-.8.59-.77.08a4.59,4.59,0,0,0-.47-2.3.41.41,0,0,1,.23-.58Z"/><path class="cls-27" d="M227.6,414.7a.37.37,0,0,1,.45.19,5.05,5.05,0,0,1,.55,2.61c0,.5-.8.59-.77.08a4.57,4.57,0,0,0-.47-2.3.41.41,0,0,1,.23-.58Z"/><path class="cls-27" d="M230.59,415.05a.37.37,0,0,1,.45.19,5.05,5.05,0,0,1,.55,2.61c0,.5-.8.59-.78.08a4.37,4.37,0,0,0-.47-2.3.42.42,0,0,1,.24-.58Z"/><path class="cls-15" d="M234.78,407.88c-.29-1.17,34.48-91.06,41.07-97,8.85-8,25.22-.91,34.41,3.17s52.36,24.26,52.36,24.26,4.49,21.17-6,23.5c-3.49.78-30.64-1.12-36.31-1.12-3.95,0-30.47-18-30.47-18s-29,71.38-32.21,75.46"/><path class="cls-15" d="M275.85,355c0,2,11,87,11,87l27.37-3.28s-8.19-77.61-9.36-85.19a56.75,56.75,0,0,0-6.41-18.65C292.4,324.51,272.73,330.34,275.85,355Z"/><g class="cls-22"><path d="M305.21,353.13c-.68-6.06-2.27-12.37-5.72-17.49a13.37,13.37,0,0,0-4.06-4.14,13.1,13.1,0,0,0-8.05-1.33,14.14,14.14,0,0,0-12,11.43c-.53,2.87,0,5.91.19,8.79q.78,11,1.35,22c.05,1,1.55,1,1.5,0-.48-9.18-1.18-18.33-1.76-27.5A12.76,12.76,0,0,1,284,332.65a13,13,0,0,1,9.09-.53,8.92,8.92,0,0,1,4.32,3.17c3.94,4.93,5.64,11.69,6.33,17.84.11.95,1.61,1,1.5,0Z"/></g><g class="cls-22"><path d="M300.29,440l-4.62-41.45q-2.49-22.49-5-44.95-1.23-11.07-2.47-22.12c-.1-.95-1.6-1-1.5,0L291.33,373q2.49,22.47,5,45Q297.55,429,298.79,440c.1,1,1.6,1,1.5,0Z"/></g><g class="cls-22"><path d="M327.41,322.87l17,7.89c.43.2.81-.44.38-.65l-17-7.89c-.44-.2-.82.44-.38.65Z"/></g><path class="cls-7" d="M365.88,238.21l-6.95-5s-5.61,50.47-6.32,55.45-5.93,15.17-5.45,24.89,4.82,42.23,5.6,42.86c1.71,1.38,32.74-.32,34.88-3.4S374,299.65,374,299.65l2.27-28.92L375,239.51Z"/><g class="cls-22"><path class="cls-15" d="M358.93,233.26s-5.61,50.47-6.32,55.45a17.77,17.77,0,0,1-.48,2.17L365.29,268c1.27-2.22,2.59-4.79,1.8-7.22a12.23,12.23,0,0,1-1-2.89c-.15-2.33,2.55-3.71,3.59-5.79s.33-4.46-.41-6.6c-.84-2.41-1.74-4.79-2.7-7.16l-.65-.12Z"/></g><g class="cls-22"><path d="M358.12,319.55A49.2,49.2,0,0,0,369.23,317c.45-.16.26-.88-.2-.72a48.67,48.67,0,0,1-10.91,2.51c-.48.05-.48.8,0,.75Z"/></g><path class="cls-7" d="M375,239.51s9.64.81,12.69,14.67c2.73,12.43,1.65,42.27-3.33,47.81s-42.85,1.13-42.85,1.13l.28-12.59L371.15,288l1.08-27.2Z"/><g class="cls-22"><path d="M373.31,253.77a30.06,30.06,0,0,1,.74-6.62,19,19,0,0,1,2.05-4.84.38.38,0,0,0-.65-.38,20,20,0,0,0-2.13,5,31.2,31.2,0,0,0-.76,6.82.38.38,0,0,0,.75,0Z"/></g><path class="cls-23" d="M346.26,290.78c-.92-.42-5.35-.49-8.42-.48a8,8,0,0,0-1.37-.72c-2.1-.77-2.6.83-2.6.83a3.2,3.2,0,0,0-2.27-1.88c-1.82-.49-2.87,1.94-2.87,1.94s.16-.83-2.49-1-4.26,7.58-4.26,7.58-3,.55-3.76,1.88,1.72,1.66,1.72,1.66c2,.44,2.37-.17,2.37-.17s.39.89,2.16,1a1.82,1.82,0,0,0,1.93-1.66c0,.22-.11,1.68,2.38,1.66,2.71,0,2.77-1.31,2.77-1.31.27,1.33,2,1.44,3.43,1.22s1.93-2.6,1.93-2.6,1.33,2.15,2.81,2.32c1.25.14,3.51-1.49,4.13-3.13C345.73,295.32,347.23,291.23,346.26,290.78Z"/><g class="cls-22"><path d="M347,290.51q10.67-1.36,21.32-2.77c1.11-.15,2.26-.22,3.34-.47a.38.38,0,0,0,.28-.36L373.76,265l.27-3.16c0-.48-.71-.48-.75,0l-1.87,21.92-.27,3.16.27-.36c-2.78.64-5.76.79-8.59,1.16l-12.88,1.66-3,.39c-.47.06-.47.81,0,.75Z"/></g><g class="cls-22"><path d="M370.81,287.23a21.79,21.79,0,0,1,6.78,5.93c.29.38.94,0,.65-.38a22.7,22.7,0,0,0-7.06-6.2.37.37,0,0,0-.37.65Z"/></g><g class="cls-22"><path d="M322.78,300.5c-.06-1.07-.11-2.14-.16-3.21a.38.38,0,1,0-.75,0c.05,1.07.1,2.14.16,3.21a.38.38,0,1,0,.75,0Z"/></g><g class="cls-22"><path d="M326.91,300.28a73.79,73.79,0,0,1,1.66-9.33c.12-.46-.61-.66-.72-.2a75.15,75.15,0,0,0-1.69,9.53c-.05.48.7.47.75,0Z"/></g><g class="cls-22"><path d="M331.48,300.93a32.38,32.38,0,0,0,2.76-7.59c.1-.47-.62-.67-.73-.2a31.4,31.4,0,0,1-2.67,7.41c-.22.43.42.81.64.38Z"/></g><g class="cls-22"><path d="M337.19,299.07a27.3,27.3,0,0,0,1.38-5.2c.07-.47-.65-.67-.72-.2a27.3,27.3,0,0,1-1.38,5.2c-.17.45.55.65.72.2Z"/></g><g class="cls-22"><path d="M338,290.56l4.24,4.26a.38.38,0,0,0,.53-.53L338.49,290a.38.38,0,0,0-.53.53Z"/></g></g><g id="Desk"><rect class="cls-7" x="159.04" y="300.54" width="68.07" height="3.67"/><rect class="cls-28" x="159.04" y="300.54" width="68.07" height="3.67"/><rect class="cls-10" x="193.07" y="300.54" width="34.03" height="3.67"/><rect class="cls-7" x="156.45" y="296.87" width="68.07" height="3.67"/><rect class="cls-28" x="156.45" y="296.87" width="68.07" height="3.67"/><rect class="cls-10" x="190.48" y="296.87" width="34.03" height="3.67"/><g class="cls-22"><path d="M156.79,300.56h67.26a.38.38,0,0,0,0-.75H156.79a.38.38,0,0,0,0,.75Z"/></g><rect class="cls-7" x="158.98" y="293.18" width="68.07" height="3.67"/><rect class="cls-28" x="158.98" y="293.18" width="68.07" height="3.67"/><rect class="cls-10" x="193.01" y="293.18" width="34.03" height="3.67"/><g class="cls-22"><path d="M159.32,296.88h67.22a.38.38,0,0,0,0-.75H159.32a.38.38,0,0,0,0,.75Z"/></g><polygon class="cls-15" points="190.17 314.49 163.31 468.62 168 468.62 200.4 314.49 190.17 314.49"/><polygon class="cls-18" points="190.17 314.49 163.31 468.62 168 468.62 200.4 314.49 190.17 314.49"/><path class="cls-10" d="M190.17,314.49s-.86,4.84-.87,4.82,10,0,10,0l1.05-4.82-9.85-.11"/><polygon class="cls-15" points="153.08 315.99 126.22 468.62 130.91 468.62 163.31 315.99 153.08 315.99"/><polygon class="cls-18" points="153.08 315.99 126.22 468.62 130.91 468.62 163.31 315.99 153.08 315.99"/><path class="cls-10" d="M153.08,316s-.85,4.83-.87,4.81,10,0,10,0l1.05-4.81-9.85-.11"/><polygon class="cls-15" points="421.79 315.31 448.83 468.94 444.11 468.94 411.49 315.31 421.79 315.31"/><polygon class="cls-18" points="421.79 315.31 448.83 468.94 444.11 468.94 411.49 315.31 421.79 315.31"/><polygon class="cls-15" points="381.61 315.31 408.65 468.94 403.93 468.94 371.31 315.31 381.61 315.31"/><polygon class="cls-18" points="381.61 315.31 408.65 468.94 403.93 468.94 371.31 315.31 381.61 315.31"/><rect class="cls-29" x="139.47" y="304.47" width="311.79" height="11.48"/><rect class="cls-10" x="398.78" y="304.47" width="52.47" height="11.48"/><rect class="cls-15" x="276.7" y="300.99" width="69.92" height="3.47"/><rect class="cls-20" x="276.7" y="300.99" width="69.92" height="3.47"/><path class="cls-30" d="M285.36,278.86c.24,3.07-1.71,5.56-4.36,5.56H196.89c-2.67,0-5-2.49-5.27-5.56l-5-61.89a5.67,5.67,0,0,1,.11-1.81,4.44,4.44,0,0,1,4.25-3.75h84.1c2.67,0,5,2.49,5.27,5.56Z"/><path class="cls-31" d="M285.36,278.86c.24,3.07-1.71,5.56-4.36,5.56H196.89c-2.67,0-5-2.49-5.27-5.56l-5-61.89a5.67,5.67,0,0,1,.11-1.81,4.44,4.44,0,0,1,4.25-3.75h84.1c2.67,0,5,2.49,5.27,5.56Z"/><path class="cls-30" d="M280.7,284.42H196.89c-2.67,0-5-2.49-5.27-5.56l-5-61.89a5.67,5.67,0,0,1,.11-1.81h83.81c2.65,0,5,2.49,5.26,5.56l5,61.89A6.31,6.31,0,0,1,280.7,284.42Z"/><path class="cls-20" d="M280.7,284.42H196.89c-2.67,0-5-2.49-5.27-5.56l-5-61.89a5.67,5.67,0,0,1,.11-1.81h83.81c2.65,0,5,2.49,5.26,5.56l5,61.89A6.31,6.31,0,0,1,280.7,284.42Z"/><polygon class="cls-30" points="224.3 269.99 241.21 270.06 237.94 300.52 254.54 300.77 254.54 304.36 209.81 304.47 209.81 300.93 220.59 300.72 224.3 269.99"/><path class="cls-10" d="M241.21,270.06c-.05.46,3.74,14.36,3.74,14.36h-5.28Z"/><polygon class="cls-10" points="222.56 284.42 224.3 269.99 219.93 284.42 222.56 284.42"/><polygon class="cls-18" points="224.3 269.99 241.21 270.06 237.94 300.52 254.54 300.77 254.54 304.36 209.81 304.47 209.81 300.93 220.59 300.72 224.3 269.99"/><rect class="cls-7" x="365.59" y="300.79" width="68.07" height="3.67"/><rect class="cls-13" x="365.59" y="300.79" width="68.07" height="3.67"/><rect class="cls-10" x="399.62" y="300.79" width="34.03" height="3.67"/><rect class="cls-7" x="363" y="297.12" width="68.07" height="3.67"/><rect class="cls-13" x="363" y="297.12" width="68.07" height="3.67"/><rect class="cls-10" x="397.03" y="297.12" width="34.03" height="3.67"/><g class="cls-22"><path d="M363.34,300.81H430.6a.38.38,0,0,0,0-.75H363.34a.38.38,0,0,0,0,.75Z"/></g><rect class="cls-7" x="365.52" y="293.43" width="68.07" height="3.67"/><rect class="cls-13" x="365.52" y="293.43" width="68.07" height="3.67"/><rect class="cls-10" x="399.56" y="293.43" width="34.03" height="3.67"/><g class="cls-22"><path d="M365.86,297.13h67.23a.38.38,0,0,0,0-.75H365.86a.38.38,0,0,0,0,.75Z"/></g></g><g id="Plant"><path class="cls-7" d="M85.26,422.31A11.85,11.85,0,0,1,78,419a22.76,22.76,0,0,1-4.69-6.55,42.24,42.24,0,0,1-4.5-20.8,11.45,11.45,0,0,1,.88-4.49,4.78,4.78,0,0,1,3.43-2.8c2.27-.33,4.26,1.49,5.7,3.27a42.49,42.49,0,0,1,9.25,29.11c-.17,2.55-1,5-2.85,5.55"/><path class="cls-7" d="M97.32,408.22a21,21,0,0,1-.91-15,29.25,29.25,0,0,1,8.21-12.74c4.09-3.84,9.34-6.78,14.94-6.81,2.39,0,5,.63,6.45,2.51s1.43,4.87.74,7.32a26.2,26.2,0,0,1-6.34,10.62,76.54,76.54,0,0,1-9.46,8.15c-3.72,2.86-7.74,5.83-12.43,6.18"/><path class="cls-7" d="M97.66,423.76c.66-5.17,4.68-9.45,9.38-11.72s10-2.82,15.23-3.08a10,10,0,0,1,3.46.25,3.5,3.5,0,0,1,2.44,2.28c.39,1.47-.54,2.94-1.52,4.11a30.13,30.13,0,0,1-23.55,10.67,8.48,8.48,0,0,1-3-.51A3.51,3.51,0,0,1,98,423.62"/><path class="cls-15" d="M73.22,388.41a302.35,302.35,0,0,1,14.87,46.86q1.55,6.76,2.79,13.61c.09.48.81.27.72-.2a301.41,301.41,0,0,0-12.69-47.5q-2.32-6.54-5-13c-.18-.44-.9-.25-.72.2Z"/><path class="cls-15" d="M92,442.66A89,89,0,0,1,95,414.8a63,63,0,0,1,13.3-24.22A73.31,73.31,0,0,1,121.69,379c.4-.27,0-.92-.38-.65a65.27,65.27,0,0,0-29.37,47.79,102,102,0,0,0-.72,16.57.38.38,0,0,0,.75,0Z"/><path class="cls-15" d="M92.25,429.76a49.85,49.85,0,0,1,28.8-16.5c.47-.09.27-.81-.2-.72a50.46,50.46,0,0,0-29.13,16.69c-.32.36.21.9.53.53Z"/><path class="cls-15" d="M76.94,442.1V430.9h31.2v11.2s.6,19.8-10.4,21.6H87.34C76.34,461.9,76.94,442.1,76.94,442.1Z"/></g></svg>